<svg width="1920" height="536" viewBox="0 0 1920 536" fill="none" xmlns="http://www.w3.org/2000/svg">
<g filter="url(#filter0_d_1167_2)">
<path d="M651.327 165.994C396.743 188.631 172.583 144.288 45.2917 96.5971L0 79.8285V536H45.2917H681.75H1445.5H1920V88.0421C1761.83 65.7077 1603.67 35.4053 1445.5 49.4691C1190.92 72.9851 905.91 142.478 651.327 165.994Z" fill="url(#paint0_linear_1167_2)"/>
</g>
<mask id="mask0_1167_2" style="mask-type:alpha" maskUnits="userSpaceOnUse" x="0" y="45" width="1920" height="492">
<path d="M651.327 165.994C396.743 188.631 172.583 144.288 45.2917 96.5971L0 79.8285V536H45.2917H681.75H1445.5H1920V88.0421C1761.83 65.7077 1603.67 35.4053 1445.5 49.4691C1190.92 72.9851 905.91 142.478 651.327 165.994Z" fill="url(#paint1_linear_1167_2)"/>
</mask>
<g mask="url(#mask0_1167_2)">
<path opacity="0.4" fill-rule="evenodd" clip-rule="evenodd" d="M2079.12 998.287C2363.07 998.287 2593.25 691.022 2593.25 311.991C2593.25 -67.0392 2363.07 -374.304 2079.12 -374.304C1795.18 -374.304 1565 -67.0392 1565 311.991C1565 691.022 1795.18 998.287 2079.12 998.287ZM2078.73 766.66C1890.55 766.66 1738 563.026 1738 311.83C1738 60.6346 1890.55 -143 2078.73 -143C2266.9 -143 2419.45 60.6346 2419.45 311.83C2419.45 563.026 2266.9 766.66 2078.73 766.66Z" fill="url(#paint2_linear_1167_2)"/>
<path opacity="0.4" fill-rule="evenodd" clip-rule="evenodd" d="M-164 946.415C163.505 946.415 429 593.298 429 157.708C429 -277.883 163.505 -631 -164 -631C-491.505 -631 -757 -277.883 -757 157.708C-757 593.298 -491.505 946.415 -164 946.415ZM-164 680.409C-381.048 680.409 -557 446.387 -557 157.708C-557 -130.972 -381.048 -364.994 -164 -364.994C53.0479 -364.994 229 -130.972 229 157.708C229 446.387 53.0479 680.409 -164 680.409Z" fill="url(#paint3_linear_1167_2)"/>
</g>
<defs>
<filter id="filter0_d_1167_2" x="-114" y="0.880859" width="2148" height="718.12" filterUnits="userSpaceOnUse" color-interpolation-filters="sRGB">
<feFlood flood-opacity="0" result="BackgroundImageFix"/>
<feColorMatrix in="SourceAlpha" type="matrix" values="0 0 0 0 0 0 0 0 0 0 0 0 0 0 0 0 0 0 127 0" result="hardAlpha"/>
<feOffset dy="69"/>
<feGaussianBlur stdDeviation="57"/>
<feComposite in2="hardAlpha" operator="out"/>
<feColorMatrix type="matrix" values="0 0 0 0 0.486275 0 0 0 0 0.0784314 0 0 0 0 0.992157 0 0 0 0.25 0"/>
<feBlend mode="normal" in2="BackgroundImageFix" result="effect1_dropShadow_1167_2"/>
<feBlend mode="normal" in="SourceGraphic" in2="effect1_dropShadow_1167_2" result="shape"/>
</filter>
<linearGradient id="paint0_linear_1167_2" x1="29.9812" y1="74.7335" x2="1544.04" y2="963.059" gradientUnits="userSpaceOnUse">
<stop stop-color="#E45F8E"/>
<stop offset="1" stop-color="#903AF8"/>
</linearGradient>
<linearGradient id="paint1_linear_1167_2" x1="29.9812" y1="74.7335" x2="1544.04" y2="963.059" gradientUnits="userSpaceOnUse">
<stop stop-color="#E45F8E"/>
<stop offset="1" stop-color="#903AF8"/>
</linearGradient>
<linearGradient id="paint2_linear_1167_2" x1="2593.25" y1="-372.475" x2="1567.74" y2="-372.475" gradientUnits="userSpaceOnUse">
<stop stop-color="white"/>
<stop offset="1" stop-color="white" stop-opacity="0.01"/>
</linearGradient>
<linearGradient id="paint3_linear_1167_2" x1="429" y1="-628.897" x2="-753.838" y2="-628.897" gradientUnits="userSpaceOnUse">
<stop stop-color="white" stop-opacity="0.01"/>
<stop offset="1" stop-color="white"/>
</linearGradient>
</defs>
</svg>
