<svg width="1920" height="884" viewBox="0 0 1920 884" fill="none" xmlns="http://www.w3.org/2000/svg">
<path d="M0 0H1920V881H0V0Z" fill="url(#paint0_linear_107_752)"/>
<path opacity="0.4" fill-rule="evenodd" clip-rule="evenodd" d="M685.673 857C683.248 836.673 682 815.983 682 795C682 510.021 912.181 279 1196.12 279C1480.07 279 1710.25 510.021 1710.25 795C1710.25 815.983 1709 836.673 1706.57 857H1531.26C1534.93 836.893 1536.85 816.171 1536.85 795C1536.85 606.135 1384.3 453.03 1196.12 453.03C1007.95 453.03 855.397 606.135 855.397 795C855.397 816.171 857.314 836.893 860.983 857H685.673Z" fill="url(#paint1_linear_107_752)"/>
<path d="M-69 693.5L54.5833 737.365C178.167 782.053 425.333 868.547 672.5 847.335C919.667 825.3 1166.83 693.5 1414 671.465C1661.17 650.253 1908.33 736.747 2155.5 726.45C2402.67 716.153 2649.83 604.947 2773.42 550.785L2897 495.8V883.5H2773.42C2649.83 883.5 2402.67 883.5 2155.5 883.5C1908.33 883.5 1661.17 883.5 1414 883.5C1166.83 883.5 919.667 883.5 672.5 883.5C425.333 883.5 178.167 883.5 54.5833 883.5H-69L-69 693.5Z" fill="url(#paint2_linear_107_752)"/>
<defs>
<linearGradient id="paint0_linear_107_752" x1="1881" y1="712" x2="475.915" y2="-152.176" gradientUnits="userSpaceOnUse">
<stop stop-color="#E45F8E"/>
<stop offset="1" stop-color="#903AF8"/>
</linearGradient>
<linearGradient id="paint1_linear_107_752" x1="1710.25" y1="280.376" x2="684.741" y2="280.376" gradientUnits="userSpaceOnUse">
<stop stop-color="white"/>
<stop offset="1" stop-color="white" stop-opacity="0.01"/>
</linearGradient>
<linearGradient id="paint2_linear_107_752" x1="1046" y1="-13" x2="1046" y2="883" gradientUnits="userSpaceOnUse">
<stop stop-color="#B880FF"/>
<stop offset="1" stop-color="#FAF6FF"/>
</linearGradient>
</defs>
</svg>
