<svg width="1920" height="2218" viewBox="0 0 1920 2218" fill="none" xmlns="http://www.w3.org/2000/svg">
<path d="M1783.6 76.7948C1786.35 74.683 1790.3 75.1938 1792.42 77.946C1794.53 80.6982 1794.02 84.6448 1791.27 86.7652C1788.52 88.877 1784.57 88.3663 1782.45 85.6141C1780.34 82.8618 1780.85 78.9153 1783.6 76.7948Z" fill="#E54884"/>
<path d="M1603.86 195.745C1607.88 192.655 1613.66 193.408 1616.76 197.433C1619.86 201.457 1619.1 207.238 1615.08 210.328C1611.05 213.426 1605.28 212.673 1602.18 208.649C1599.08 204.625 1599.84 198.843 1603.86 195.745Z" stroke="#4BDFEA" stroke-width="4"/>
<path d="M1685.55 80.5076C1689.57 77.4092 1695.34 78.1621 1698.44 82.1952C1701.54 86.2197 1700.79 91.9926 1696.75 95.091C1692.73 98.1894 1686.96 97.4363 1683.86 93.4118C1680.76 89.3787 1681.52 83.606 1685.55 80.5076Z" stroke="#4BDFEA" stroke-width="4"/>
<path d="M1585.89 61.0607L1581.85 50.199L1591.3 56.8891L1602.16 52.8474L1595.47 62.307L1599.51 73.1687L1590.05 66.4699L1579.19 70.5203L1585.89 61.0607Z" fill="#F44D99"/>
<path d="M1316.31 563.188C1319.07 561.077 1323.01 561.587 1325.13 564.34C1327.24 567.092 1326.73 571.038 1323.98 573.159C1321.23 575.271 1317.28 574.76 1315.16 572.008C1313.05 569.255 1313.56 565.309 1316.31 563.188Z" fill="#E54884"/>
<path d="M1136.57 682.139C1140.6 679.049 1146.38 679.802 1149.48 683.827C1152.57 687.851 1151.81 693.632 1147.79 696.722C1143.77 699.82 1137.99 699.067 1134.9 695.043C1131.8 691.019 1132.55 685.237 1136.57 682.139Z" stroke="#4BDFEA" stroke-width="4"/>
<path d="M1218.26 566.901C1222.29 563.803 1228.06 564.556 1231.16 568.589C1234.25 572.613 1233.5 578.386 1229.47 581.484C1225.45 584.583 1219.67 583.83 1216.58 579.806C1213.48 575.772 1214.23 570 1218.26 566.901Z" stroke="#4BDFEA" stroke-width="4"/>
<path d="M1118.6 547.454L1114.56 536.593L1124.02 543.283L1134.88 539.241L1128.18 548.701L1132.22 559.562L1122.76 552.863L1111.9 556.914L1118.6 547.454Z" fill="#F44D99"/>
<path d="M132.974 791.516L128.933 780.655L138.391 787.345L149.251 783.303L142.553 792.763L146.595 803.625L137.136 796.926L126.276 800.976L132.974 791.516Z" fill="#F44D99"/>
<path d="M1427.42 1708.32C1425.47 1707.21 1424.79 1704.73 1425.89 1702.79C1427 1700.85 1429.47 1700.16 1431.42 1701.27C1433.36 1702.38 1434.04 1704.85 1432.94 1706.8C1431.83 1708.74 1429.35 1709.42 1427.42 1708.32Z" fill="#FFE843"/>
<path d="M1470.68 1758.25L1456.98 1754.01L1470.68 1749.79L1474.91 1736.07L1479.14 1749.79L1492.84 1754.01L1479.14 1758.25L1474.91 1771.95L1470.68 1758.25Z" fill="#F44D99"/>
<path d="M1545.26 2114.64L1526.36 2108.81L1545.26 2102.97L1551.09 2084.07L1556.92 2102.97L1575.82 2108.81L1556.92 2114.64L1551.09 2133.54L1545.26 2114.64Z" fill="#F44D99"/>
<path d="M471.799 1072.28C471.799 1068.81 474.611 1066 478.09 1066C481.56 1066 484.372 1068.81 484.372 1072.28C484.372 1075.75 481.56 1078.58 478.09 1078.58C474.611 1078.58 471.799 1075.75 471.799 1072.28Z" fill="#E54884"/>
<path d="M456.5 1287.3C456.5 1282.22 460.619 1278.1 465.699 1278.1C470.778 1278.1 474.897 1282.22 474.897 1287.3C474.897 1292.38 470.778 1296.5 465.699 1296.5C460.619 1296.5 456.5 1292.38 456.5 1287.3Z" stroke="#4BDFEA" stroke-width="4"/>
<path d="M385.542 1181.71C385.542 1176.63 389.661 1172.51 394.74 1172.51C399.82 1172.51 403.938 1176.63 403.938 1181.71C403.938 1186.79 399.82 1190.91 394.74 1190.91C389.661 1190.91 385.542 1186.79 385.542 1181.71Z" stroke="#4BDFEA" stroke-width="4"/>
<path d="M186.495 1254.06L175.418 1250.64L186.495 1247.22L189.905 1236.15L193.323 1247.22L204.399 1250.64L193.323 1254.06L189.905 1265.13L186.495 1254.06Z" fill="#F44D99"/>
<path d="M563.958 1120.59L545.059 1114.76L563.958 1108.93L569.791 1090.03L575.623 1108.93L594.522 1114.76L575.623 1120.59L569.791 1139.5L563.958 1120.59Z" fill="#F44D99"/>
<path d="M1792.57 889.453C1792.57 886.935 1794.62 884.892 1797.13 884.892C1799.65 884.892 1801.69 886.935 1801.69 889.453C1801.69 891.972 1799.65 894.014 1797.13 894.014C1794.62 894.014 1792.57 891.972 1792.57 889.453Z" fill="#E54884"/>
<path d="M1577.26 1678.92C1577.26 1675.23 1580.24 1672.24 1583.93 1672.24C1587.62 1672.24 1590.6 1675.23 1590.6 1678.92C1590.6 1682.6 1587.62 1685.59 1583.93 1685.59C1580.24 1685.59 1577.26 1682.6 1577.26 1678.92Z" stroke="#4BDFEA" stroke-width="2.901"/>
<path d="M1525.8 1602.34C1525.8 1598.65 1528.78 1595.67 1532.47 1595.67C1536.16 1595.67 1539.14 1598.65 1539.14 1602.34C1539.14 1606.02 1536.16 1609.01 1532.47 1609.01C1528.78 1609.01 1525.8 1606.02 1525.8 1602.34Z" stroke="#4BDFEA" stroke-width="2.901"/>
<path d="M1859.42 924.487L1845.71 920.255L1859.42 916.032L1863.64 902.314L1867.88 916.032L1881.58 920.255L1867.88 924.487L1863.64 938.197L1859.42 924.487Z" fill="#F44D99"/>
<path d="M470.934 1937.75C470.934 1934.28 473.746 1931.47 477.225 1931.47C480.695 1931.47 483.508 1934.28 483.508 1937.75C483.508 1941.22 480.695 1944.04 477.225 1944.04C473.746 1944.04 470.934 1941.22 470.934 1937.75Z" fill="#E54884"/>
<path d="M455.635 2152.77C455.635 2147.69 459.754 2143.57 464.833 2143.57C469.912 2143.57 474.031 2147.69 474.031 2152.77C474.031 2157.85 469.912 2161.97 464.833 2161.97C459.754 2161.97 455.635 2157.85 455.635 2152.77Z" stroke="#4BDFEA" stroke-width="4"/>
<path d="M140.649 2013.43C140.649 2008.35 144.768 2004.23 149.848 2004.23C154.928 2004.23 159.047 2008.35 159.047 2013.43C159.047 2018.51 154.928 2022.63 149.848 2022.63C144.768 2022.63 140.649 2018.51 140.649 2013.43Z" stroke="#4BDFEA" stroke-width="4"/>
<path d="M53.4583 1818.55C50.7756 1817.03 49.8411 1813.62 51.3641 1810.94C52.8959 1808.25 56.3055 1807.32 58.9882 1808.85C61.6622 1810.37 62.6056 1813.78 61.0739 1816.47C59.5508 1819.15 56.141 1820.08 53.4583 1818.55Z" fill="#FFE843"/>
<path d="M957.179 2087.33C957.179 2083.68 960.147 2080.71 963.799 2080.71C967.46 2080.71 970.419 2083.68 970.419 2087.33C970.419 2090.98 967.46 2093.95 963.799 2093.95C960.147 2093.95 957.179 2090.98 957.179 2087.33Z" fill="#FFE843"/>
<path d="M840.402 1766.07C840.402 1757.73 847.16 1750.98 855.493 1750.98C863.827 1750.98 870.585 1757.73 870.585 1766.07C870.585 1774.41 863.827 1781.17 855.493 1781.17C847.16 1781.17 840.402 1774.41 840.402 1766.07Z" stroke="#4BDFEA" stroke-width="4.759"/>
<path d="M1154.81 2060.47C1154.81 2054.42 1159.71 2049.52 1165.75 2049.52C1171.8 2049.52 1176.69 2054.42 1176.69 2060.47C1176.69 2066.51 1171.8 2071.41 1165.75 2071.41C1159.71 2071.41 1154.81 2066.51 1154.81 2060.47Z" stroke="#4BDFEA" stroke-width="4.759"/>
<path d="M866.854 332.215C866.854 329.143 869.346 326.65 872.418 326.65C875.49 326.65 877.982 329.143 877.982 332.215C877.982 335.287 875.49 337.78 872.418 337.78C869.346 337.78 866.854 335.287 866.854 332.215Z" fill="#FFE843"/>
<path d="M768.578 343.959C768.578 340.887 771.07 338.394 774.142 338.394C777.214 338.394 779.706 340.887 779.706 343.959C779.706 347.032 777.214 349.525 774.142 349.525C771.07 349.525 768.578 347.032 768.578 343.959Z" fill="#FFE843"/>
<path d="M673.563 507.963L662.105 504.432L673.563 500.901L677.093 489.433L680.632 500.901L692.09 504.432L680.632 507.963L677.093 519.43L673.563 507.963Z" fill="#FFE843"/>
<path d="M1786.47 1123.68C1788.33 1126.09 1787.88 1129.54 1785.47 1131.4C1783.06 1133.25 1779.61 1132.8 1777.76 1130.39C1775.91 1127.99 1776.37 1124.53 1778.77 1122.68C1781.18 1120.83 1784.62 1121.28 1786.47 1123.68Z" fill="#E54884"/>
<path d="M1682.47 966.48C1685.18 970.002 1684.52 975.048 1681 977.757C1677.47 980.466 1672.42 979.808 1669.71 976.285C1667.01 972.763 1667.67 967.717 1671.19 965.008C1674.7 962.3 1679.76 962.957 1682.47 966.48Z" stroke="#4BDFEA" stroke-width="3.498"/>
<path d="M1783.23 1037.92C1785.94 1041.45 1785.28 1046.49 1781.76 1049.2C1778.23 1051.91 1773.19 1051.25 1770.48 1047.73C1767.77 1044.21 1768.43 1039.16 1771.95 1036.45C1775.47 1033.74 1780.52 1034.4 1783.23 1037.92Z" stroke="#4BDFEA" stroke-width="3.498"/>
<path d="M1800.24 950.754L1809.73 947.223L1803.87 955.497L1807.41 964.991L1799.14 959.132L1789.65 962.672L1795.5 954.398L1791.97 944.904L1800.24 950.754Z" fill="#F44D99"/>
<path d="M1624.26 1104.54C1624.26 1099.02 1628.75 1094.53 1634.27 1094.53C1639.8 1094.53 1644.28 1099.02 1644.28 1104.54C1644.28 1110.07 1639.8 1114.55 1634.27 1114.55C1628.75 1114.55 1624.26 1110.07 1624.26 1104.54Z" fill="#F44D99"/>
<path d="M1541.68 1050.86C1541.68 1047.31 1544.57 1044.42 1548.12 1044.42C1551.68 1044.42 1554.57 1047.31 1554.57 1050.86C1554.57 1054.43 1551.68 1057.31 1548.12 1057.31C1544.57 1057.31 1541.68 1054.43 1541.68 1050.86Z" fill="#FFE843"/>
<path d="M1427.91 1064.46C1427.91 1060.9 1430.79 1058.02 1434.35 1058.02C1437.9 1058.02 1440.79 1060.9 1440.79 1064.46C1440.79 1068.03 1437.9 1070.91 1434.35 1070.91C1430.79 1070.91 1427.91 1068.03 1427.91 1064.46Z" fill="#FFE843"/>
<path d="M238.434 2041.12C238.434 2036.04 242.553 2031.92 247.632 2031.92C252.712 2031.92 256.831 2036.04 256.831 2041.12C256.831 2046.2 252.712 2050.32 247.632 2050.32C242.553 2050.32 238.434 2046.2 238.434 2041.12Z" stroke="#4BDFEA" stroke-width="4"/>
<path d="M196.897 1906.11C196.897 1901.03 201.016 1896.91 206.095 1896.91C211.175 1896.91 215.294 1901.03 215.294 1906.11C215.294 1911.19 211.175 1915.31 206.095 1915.31C201.016 1915.31 196.897 1911.19 196.897 1906.11Z" stroke="#4BDFEA" stroke-width="4"/>
<path d="M120.73 1973.26L109.654 1969.84L120.73 1966.43L124.139 1955.36L127.558 1966.43L138.634 1969.84L127.558 1973.26L124.139 1984.33L120.73 1973.26Z" fill="#F44D99"/>
<path d="M1881.77 818.338C1881.77 815.655 1883.95 813.474 1886.64 813.474C1889.32 813.474 1891.49 815.655 1891.49 818.338C1891.49 821.02 1889.32 823.201 1886.64 823.201C1883.95 823.201 1881.77 821.02 1881.77 818.338Z" fill="#FFE843"/>
<path d="M1308.8 1110.58C1307.02 1110.58 1305.57 1109.14 1305.57 1107.35C1305.57 1105.57 1307.02 1104.12 1308.8 1104.12C1310.59 1104.12 1312.03 1105.57 1312.03 1107.35C1312.03 1109.14 1310.59 1110.58 1308.8 1110.58Z" fill="#FFE843"/>
<path d="M967.52 1347.34C965.66 1347.34 964.154 1345.83 964.154 1343.97C964.154 1342.11 965.66 1340.6 967.52 1340.6C969.381 1340.6 970.887 1342.11 970.887 1343.97C970.887 1345.83 969.381 1347.34 967.52 1347.34Z" fill="#E54884"/>
<path d="M993.403 1297.95L990.279 1308.08L987.155 1297.95L977.022 1294.82L987.155 1291.7L990.279 1281.57L993.403 1291.7L1003.53 1294.82L993.403 1297.95Z" fill="#F44D99"/>
<path d="M947.142 1133.24C942.902 1133.24 939.458 1129.79 939.458 1125.55C939.458 1121.3 942.902 1117.86 947.142 1117.86C951.391 1117.86 954.835 1121.3 954.835 1125.55C954.835 1129.79 951.391 1133.24 947.142 1133.24Z" fill="#F44D99"/>
<path d="M914.994 1281.43C913.012 1281.43 911.403 1279.82 911.403 1277.84C911.403 1275.86 913.012 1274.25 914.994 1274.25C916.975 1274.25 918.585 1275.86 918.585 1277.84C918.585 1279.82 916.975 1281.43 914.994 1281.43Z" fill="#FFE843"/>
<path d="M1168.98 1208.53L1165.83 1218.73L1162.69 1208.53L1152.5 1205.39L1162.69 1202.24L1165.83 1192.05L1168.98 1202.24L1179.17 1205.39L1168.98 1208.53Z" fill="#FFE843"/>
<path d="M728.599 2207.46C728.599 2201.96 733.055 2197.5 738.567 2197.5C744.071 2197.5 748.527 2201.96 748.527 2207.46C748.527 2212.97 744.071 2217.44 738.567 2217.44C733.055 2217.44 728.599 2212.97 728.599 2207.46Z" fill="#FFE843"/>
<path d="M1876.83 1610.11L1873.68 1620.31L1870.54 1610.11L1860.35 1606.97L1870.54 1603.82L1873.68 1593.62L1876.83 1603.82L1887.03 1606.97L1876.83 1610.11Z" fill="#FFE843"/>
<path d="M1063.14 1634.42C1063.14 1629.65 1067.01 1625.78 1071.78 1625.78C1076.55 1625.78 1080.42 1629.65 1080.42 1634.42C1080.42 1639.2 1076.55 1643.07 1071.78 1643.07C1067.01 1643.07 1063.14 1639.2 1063.14 1634.42Z" stroke="#F44D99" stroke-width="2"/>
<path d="M341.955 557.877C341.955 553.498 345.502 549.949 349.872 549.949C354.251 549.949 357.799 553.498 357.799 557.877C357.799 562.248 354.251 565.797 349.872 565.797C345.502 565.797 341.955 562.248 341.955 557.877Z" fill="#FFE843"/>
<path d="M578.07 408.859C578.07 403.779 582.189 399.668 587.268 399.668C592.348 399.668 596.467 403.779 596.467 408.859C596.467 413.94 592.348 418.06 587.268 418.06C582.189 418.06 578.07 413.94 578.07 408.859Z" stroke="#4BDFEA" stroke-width="6"/>
<path d="M48.4127 400.073C45.7303 398.541 44.7961 395.131 46.3276 392.449C47.8506 389.774 51.2597 388.831 53.9421 390.363C56.6245 391.886 57.559 395.296 56.0361 397.979C54.5045 400.662 51.0952 401.597 48.4127 400.073Z" fill="#FFE843"/>
<path d="M73.2485 1038.81L70.4793 1030.33L61.999 1027.56L70.4793 1024.79L73.2485 1016.3L76.0089 1024.79L84.498 1027.56L76.0089 1030.33L73.2485 1038.81Z" fill="#FFE843"/>
<path d="M953.45 1617.51C948.682 1617.51 944.814 1613.64 944.814 1608.87C944.814 1604.1 948.682 1600.22 953.45 1600.22C958.227 1600.22 962.095 1604.1 962.095 1608.87C962.095 1613.64 958.227 1617.51 953.45 1617.51Z" fill="#F44D99"/>
<path d="M231.033 1697.94C228.186 1694.35 412.296 1542.51 416.813 1538.92L684.515 1324.89C689.032 1321.3 697.617 1320.63 696.241 1325.32C694.874 1330.01 699.373 1334.34 694.856 1337.93L432.623 1547.16" fill="url(#paint0_linear_3_16885)"/>
<path d="M65.9805 202.342C64.4489 200.412 163.314 118.885 165.737 116.955L309.48 2.03827C311.903 0.108261 316.515 -0.246567 315.78 2.26329L315.771 2.27196C315.036 4.79047 317.45 7.10999 315.027 9.03998L174.226 121.386" fill="url(#paint1_linear_3_16885)"/>
<path d="M313.25 1812.83C313.25 1790.02 331.716 1771.52 354.501 1771.52C377.277 1771.52 395.743 1790.02 395.743 1812.83C395.743 1835.64 377.277 1854.14 354.501 1854.14C331.716 1854.14 313.25 1835.64 313.25 1812.83Z" fill="#FFBC4A"/>
<path d="M346.377 1772.45C348.376 1772.45 350.002 1774.44 350.002 1776.96C350.002 1779.47 348.376 1781.46 346.377 1781.46L335.517 1781.46C333.63 1781.46 332.09 1783.12 332.09 1785.63C332.09 1787.53 332.972 1789.46 334.219 1789.46L372.146 1789.46C374.318 1789.46 376.066 1791.95 376.066 1794.46C376.066 1796.98 374.318 1799.48 372.146 1799.48L343.33 1799.48C341.807 1799.48 340.665 1801.86 340.665 1804.04C340.665 1806.05 341.652 1806.48 343.019 1808.48L358.82 1808.48C360.646 1808.48 362.117 1810.47 362.117 1812.99C362.117 1815.5 360.646 1817.49 358.82 1817.49L338.234 1817.49C336.676 1817.49 335.421 1819.09 335.421 1821.61C335.421 1823.62 336.226 1825.49 337.351 1825.49L358.941 1825.49C360.689 1825.49 362.117 1827.98 362.117 1830.5C362.117 1833.01 360.689 1835.5 358.941 1835.5L337.663 1835.5C336.053 1835.5 334.738 1837.11 334.738 1839.62C334.738 1841.64 335.586 1843.51 336.745 1843.51L348.566 1843.51C350.184 1843.51 351.482 1845.5 351.482 1848.01C351.482 1850.53 350.184 1852.52 348.566 1852.52L345.58 1852.52C348.453 1853.52 351.439 1853.82 354.502 1853.82C377.278 1853.82 395.744 1835.48 395.744 1812.66C395.744 1789.85 377.278 1771.36 354.502 1771.36C351.24 1771.36 348.064 1772.45 345.018 1772.45L346.377 1772.45Z" fill="#FF9151"/>
<path d="M1861.88 2071.55C1861.88 2095.61 1842.4 2115.12 1818.38 2115.12C1794.36 2115.12 1774.88 2095.61 1774.88 2071.55C1774.88 2047.49 1794.36 2027.99 1818.38 2027.99C1842.4 2027.99 1861.88 2047.49 1861.88 2071.55Z" fill="#6679BF"/>
<path d="M1808.58 2090.73C1808.58 2085.31 1812.97 2080.92 1818.38 2080.92C1823.79 2080.92 1828.17 2085.31 1828.17 2090.73C1828.17 2096.15 1823.79 2100.54 1818.38 2100.54C1812.97 2100.54 1808.58 2096.15 1808.58 2090.73Z" fill="#303B72"/>
<path d="M1820.16 2100.54C1820.16 2096.6 1823.35 2093.41 1827.28 2093.41C1831.22 2093.41 1834.41 2096.6 1834.41 2100.54C1834.41 2104.48 1831.22 2107.68 1827.28 2107.68C1823.35 2107.68 1820.16 2104.48 1820.16 2100.54Z" fill="#303B72"/>
<path d="M1828.62 2049.21C1828.62 2046.01 1831.21 2043.41 1834.41 2043.41C1837.61 2043.41 1840.2 2046.01 1840.2 2049.21C1840.2 2052.41 1837.61 2055.01 1834.41 2055.01C1831.21 2055.01 1828.62 2052.41 1828.62 2049.21Z" fill="#303B72"/>
<path d="M1784.86 2076.54C1784.86 2074.08 1786.85 2072.08 1789.31 2072.08C1791.76 2072.08 1793.75 2074.08 1793.75 2076.54C1793.75 2079 1791.76 2080.99 1789.31 2080.99C1786.85 2080.99 1784.86 2079 1784.86 2076.54Z" fill="#303B72"/>
<path d="M1793.89 2049.26C1793.89 2044.08 1798.08 2039.9 1803.24 2039.9C1808.4 2039.9 1812.59 2044.08 1812.59 2049.26C1812.59 2054.43 1808.4 2058.62 1803.24 2058.62C1798.08 2058.62 1793.89 2054.43 1793.89 2049.26Z" fill="#303B72"/>
<path d="M15.9971 1159.78C15.9971 1177.81 1.40767 1192.42 -16.5915 1192.42C-34.5906 1192.42 -49.1804 1177.81 -49.1804 1159.78C-49.1804 1141.76 -34.5906 1127.15 -16.5915 1127.15C1.40768 1127.15 15.9971 1141.76 15.9971 1159.78Z" fill="#6679BF"/>
<defs>
<linearGradient id="paint0_linear_3_16885" x1="658.601" y1="1653.32" x2="233.629" y2="1699.31" gradientUnits="userSpaceOnUse">
<stop stop-color="white"/>
<stop offset="1" stop-color="#2AB0FF"/>
</linearGradient>
<linearGradient id="paint1_linear_3_16885" x1="295.482" y1="179.105" x2="67.2951" y2="203.797" gradientUnits="userSpaceOnUse">
<stop stop-color="white"/>
<stop offset="1" stop-color="#2AB0FF"/>
</linearGradient>
</defs>
</svg>
