<svg width="455" height="348" viewBox="0 0 455 348" fill="none" xmlns="http://www.w3.org/2000/svg">
<g opacity="0.46">
<path opacity="0.46" d="M220.441 344.921L76.5623 261.988C71.3501 258.983 71.3504 251.473 76.5629 248.469L236.202 156.467C241.528 153.397 248.089 153.391 253.421 156.45L400.53 240.852C405.754 243.849 405.762 251.37 400.544 254.378L243.462 344.921C236.339 349.026 227.564 349.026 220.441 344.921Z" fill="#CDE9F9"/>
</g>
<path d="M184.395 314.982L354.691 216.316V188.683L184.395 286.961V314.982Z" fill="url(#paint0_linear_3_20557)"/>
<g opacity="0.46">
<path opacity="0.75" d="M194.556 135.722L139.504 167.369C137.418 168.568 134.812 167.065 134.812 164.661V147.65C134.812 146.532 135.41 145.5 136.381 144.942L191.433 113.295C193.519 112.096 196.125 113.6 196.125 116.003V133.014C196.124 134.132 195.526 135.164 194.556 135.722Z" fill="#CDE9F9"/>
</g>
<g opacity="0.46">
<path opacity="0.75" d="M262.596 109.475L207.544 141.122C205.458 142.321 202.853 140.818 202.853 138.414V121.403C202.853 120.285 203.45 119.253 204.421 118.695L259.473 87.0483C261.559 85.8488 264.165 87.3525 264.165 89.756V106.767C264.165 107.885 263.567 108.917 262.596 109.475Z" fill="#CDE9F9"/>
</g>
<g opacity="0.46">
<path opacity="0.75" d="M267.744 75.1585L212.692 106.805C210.605 108.005 208 106.501 208 104.098V87.0863C208 85.9689 208.598 84.9362 209.568 84.3786L264.62 52.7319C266.707 51.5323 269.312 53.036 269.312 55.4396V72.4509C269.312 73.5686 268.714 74.601 267.744 75.1585Z" fill="#CDE9F9"/>
</g>
<path d="M222.657 128.042C222.671 130.689 222.263 132.429 221.553 133.733C220.396 135.866 218.431 136.843 216.176 138.746C215.235 139.541 214.242 140.499 213.235 141.773C208.352 147.952 214.816 150.492 214.816 150.492C214.816 150.492 219.56 178.788 197.163 196.01C197.08 196.073 196.997 196.137 196.914 196.198C193.507 198.779 190.238 200.469 187.195 201.427C184.959 202.131 182.845 202.441 180.889 202.419C177.84 202.388 175.177 201.554 173.035 200.159C166.196 195.702 164.665 185.527 172.868 177.515C187.584 163.138 191.14 153.477 189.784 144.736C188.136 134.085 197.771 127.011 201.613 125.022C207.986 121.724 209.332 119.918 215.091 120.353C222.382 120.902 222.657 128.042 222.657 128.042Z" fill="#A17194"/>
<path d="M180.889 202.419C177.84 202.388 175.177 201.554 173.035 200.159C170.857 198.123 169.492 195.021 169.256 190.418C168.776 181.007 181.666 171.164 181.666 171.164C171.575 189.764 177.937 199.333 180.889 202.419Z" fill="url(#paint1_linear_3_20557)"/>
<path d="M207.341 143.717C206.852 145.548 199.084 185.117 196.915 196.198C193.508 198.779 190.24 200.469 187.196 201.427C182.763 201.555 177.777 199.99 174.861 193.57C168.716 180.035 190.589 164.722 193.119 151.896C195.649 139.073 206.244 137.516 206.244 137.516C206.244 137.516 207.91 141.588 207.341 143.717Z" fill="url(#paint2_linear_3_20557)"/>
<path d="M221.554 133.733C220.397 135.866 218.432 136.843 216.177 138.746L216.92 133.968C216.92 133.968 220.657 130.651 220.777 128.545C220.857 127.138 221.584 130.601 221.554 133.733Z" fill="url(#paint3_linear_3_20557)"/>
<path d="M233.386 149.461C233.386 149.461 230.462 156.607 229.615 159.244C228.772 161.886 228.289 160.986 228.289 160.986L223.798 155.693C222.022 153.311 220.383 151.533 218.907 150.204C218.685 150.007 218.474 149.824 218.263 149.647C217.706 149.162 217.142 148.741 216.579 148.384C216.418 148.273 216.277 148.177 216.144 148.085C216.135 148.077 216.124 148.071 216.116 148.063C214.904 147.199 214.928 146.994 212.984 146.673C212.104 146.457 210.859 146.714 210.776 146.747C210.762 146.753 205.008 148.456 205.008 148.456C200.41 151.106 194.179 154.195 190.531 155.965C190.193 156.059 189.874 156.214 189.574 156.424C189.496 156.477 189.421 156.535 189.349 156.596C189.346 156.596 189.341 156.601 189.338 156.601C189.263 156.665 189.191 156.729 189.119 156.795C189.069 156.843 189.022 156.89 188.975 156.939C188.928 156.989 188.88 157.039 188.833 157.092C188.786 157.144 188.742 157.197 188.694 157.252C184.627 162.185 185.16 178.658 185.798 183.53C186.139 186.122 186.375 186.366 186.974 187.598C187.061 187.773 187.149 187.942 187.246 188.102C188.054 189.479 189.23 190.287 191.133 190.412C191.829 190.462 192.751 190.108 193.683 189.764C193.68 193.099 192.928 199.22 192.537 201.779C192.229 203.803 188.88 204.598 188.861 205.747C188.861 205.806 188.856 205.861 188.861 205.916C188.833 207.944 189.105 208.689 189.105 208.689L205.277 198.128L217.661 190.041L219.737 188.684C219.151 188.991 218.496 189.246 217.928 189.266H217.8C217.795 189.266 217.795 189.266 217.792 189.266C216.993 189.266 215.722 191.933 215.736 190.335C215.736 190.18 215.114 187.864 215.092 187.598C214.992 185.989 215.941 181.408 216.743 178.639C216.823 178.356 216.904 178.054 216.984 177.73C217.5 175.678 218.05 172.836 219.037 169.912C219.467 168.629 219.983 167.333 220.616 166.081C220.835 166.704 220.957 167.07 220.957 167.07C220.957 167.07 224.822 169.978 228.564 170.778C232.315 171.579 233.977 168.582 234.382 166.837C234.626 165.801 235.572 160.584 236.299 156.526C236.793 153.773 237.187 151.558 237.187 151.558C234.892 151.464 233.386 149.461 233.386 149.461Z" fill="#3C7FBE"/>
<path d="M237.187 151.558C237.187 151.558 236.793 153.774 236.299 156.527C235.572 160.584 234.626 165.802 234.382 166.838C233.977 168.582 232.315 171.579 228.564 170.779C224.821 169.978 220.957 167.07 220.957 167.07C220.957 167.07 220.835 166.704 220.616 166.081C219.983 167.333 219.467 168.629 219.037 169.912C218.049 172.836 217.5 175.678 216.984 177.73C216.904 178.055 216.823 178.356 216.743 178.639C215.941 181.408 214.992 185.989 215.092 187.598C215.114 187.864 215.736 190.18 215.736 190.335C215.722 191.933 216.992 189.266 217.791 189.266C217.794 189.266 217.794 189.266 217.8 189.266H217.927C218.496 189.246 219.151 188.992 219.736 188.684L217.661 190.042L205.276 198.129L189.105 208.689C189.105 208.689 188.833 207.944 188.861 205.917C188.855 205.861 188.861 205.806 188.861 205.748C188.877 204.728 191.513 203.989 192.323 202.421C192.429 202.222 192.501 202.008 192.537 201.779C192.922 199.253 193.66 193.256 193.683 189.894V189.764C192.75 190.107 191.829 190.462 191.133 190.412C189.23 190.288 188.053 189.479 187.246 188.102C187.149 187.942 187.06 187.773 186.974 187.598C186.375 186.366 186.139 186.122 185.798 183.53C185.476 181.071 185.179 175.656 185.493 170.261C185.795 164.968 186.68 159.695 188.694 157.252C188.741 157.197 188.786 157.144 188.833 157.091C188.88 157.039 188.927 156.989 188.975 156.939C189.022 156.89 189.069 156.842 189.119 156.795C189.191 156.729 189.263 156.665 189.338 156.601C189.341 156.601 189.346 156.596 189.349 156.596C189.421 156.535 189.496 156.477 189.574 156.424C189.873 156.214 190.192 156.059 190.531 155.965C194.179 154.195 200.41 151.107 205.007 148.456C205.007 148.456 210.761 146.753 210.775 146.747C210.859 146.714 212.104 146.457 212.984 146.672C214.928 146.994 214.904 147.199 216.116 148.063C216.124 148.071 216.135 148.076 216.144 148.085C216.277 148.176 216.418 148.273 216.579 148.384C217.142 148.741 217.705 149.162 218.263 149.647C218.474 149.824 218.685 150.007 218.907 150.204C220.382 151.533 222.022 153.311 223.798 155.693L228.289 160.986C228.289 160.986 228.772 161.886 229.615 159.243C230.461 156.607 233.386 149.461 233.386 149.461C233.386 149.461 234.892 151.464 237.187 151.558Z" fill="url(#paint4_linear_3_20557)"/>
<path d="M221.396 187.6C221.261 187.709 220.569 188.245 219.737 188.683L221.396 187.6Z" fill="#BD8AAE"/>
<path d="M202.271 173.448C201.511 173.549 201.11 173.477 201.11 173.477C201.11 173.477 200.659 173.376 202.271 173.448Z" fill="#2A2F6D"/>
<path d="M236.3 156.526C235.574 160.585 234.628 165.802 234.383 166.839C233.977 168.584 232.314 171.58 228.565 170.78C224.821 169.979 220.958 167.071 220.958 167.071C220.958 167.071 220.835 166.704 220.616 166.081C219.983 167.332 219.467 168.63 219.037 169.912C218.091 169.798 217.044 169.689 216.939 169.739C216.744 169.827 213.903 169.874 213.903 169.874C213.903 169.874 213.266 168.732 211.408 169.785C209.546 170.835 205.143 173.6 202.851 173.477C202.635 173.465 202.445 173.456 202.276 173.448C203.387 173.304 205.27 172.795 207.798 171.164C212.066 168.412 214.709 166.578 217.698 166.625C220.687 166.671 216.284 164.703 216.284 164.703C216.284 164.703 218.488 163.468 218.348 160.813C218.209 158.158 215.87 152.818 214.498 151.688C214.498 151.688 215.946 150.613 217.698 153.926C217.698 153.926 221.143 165.664 228.16 165.436C232.699 165.288 235.143 160.147 236.3 156.526Z" fill="url(#paint5_linear_3_20557)"/>
<path d="M217.799 189.266C217.519 189.828 217.131 190.285 216.603 190.584C213.857 192.146 192.663 203.817 188.86 205.917C188.854 205.861 188.86 205.806 188.86 205.748C188.879 204.598 192.228 203.803 192.536 201.779C192.927 199.22 193.679 193.099 193.682 189.764C194.117 189.601 194.556 189.443 194.974 189.33C201.012 187.682 206.125 185.826 207.342 184.674C208.552 183.525 208.438 184.178 207.731 182.32C207.19 180.899 207.845 178.489 207.845 178.489C203.778 179.495 197.425 180.397 196.689 179.758C195.957 179.115 196.415 171.698 197.791 164.469C198.546 160.511 196.44 158.307 194.381 157.125C194.381 157.125 199.688 158.318 199.206 163.328C198.726 168.344 198.199 174.096 199.236 176.786C199.236 176.786 199.786 178.719 205.135 177.514C209.571 176.512 215.042 176.099 216.984 177.73C216.903 178.054 216.823 178.356 216.742 178.639C215.94 181.408 214.992 185.989 215.092 187.598C215.114 187.864 215.735 190.179 215.735 190.334C215.722 191.932 216.992 189.265 217.791 189.265C217.794 189.266 217.794 189.266 217.799 189.266Z" fill="url(#paint6_linear_3_20557)"/>
<path d="M207.799 184.192L213.768 164.81L227.596 156.84L223.302 175.255L207.799 184.192Z" fill="#AECFDC"/>
<path d="M207.876 178.718C207.876 178.718 209.031 176.219 211.645 175.203C214.258 174.187 211.92 176.521 211.92 176.521C211.92 176.521 213.094 176.49 214.327 174.947C215.559 173.405 214.396 176.252 213.846 176.833C213.846 176.833 214.74 176.453 215.358 175.491C215.977 174.53 216.184 175.655 215.358 176.946C214.533 178.237 213.914 178.718 213.914 178.718C213.914 178.718 214.877 178.306 215.565 177.688C216.253 177.071 215.834 178.616 214.79 179.473L215.903 178.924C215.903 178.924 216.285 179.198 214.79 180.365C213.295 181.533 210.605 183.661 208.821 183.523C207.037 183.386 207.519 183.53 207.519 183.53C207.519 183.53 205.833 181.227 207.876 178.718Z" fill="#FDE0D9"/>
<path d="M233.411 150.306C233.411 150.306 232.402 147.743 232.952 146.644C233.503 145.546 233.686 144.767 233.686 144.47C233.686 144.173 234.328 144.78 234.236 145.483C234.145 146.186 234.145 146.186 234.145 146.186C234.145 146.186 234.889 145.523 235.245 144.393C235.602 143.263 236.128 142.273 236.3 142.754C236.472 143.235 236.093 144.745 236.093 144.745C236.093 144.745 237.331 143.466 237.4 142.629C237.469 141.793 238.397 141.759 238.191 142.788C237.984 143.818 237.4 144.882 237.4 144.882C237.4 144.882 238.5 143.852 238.775 143.235C239.051 142.617 239.601 142.857 239.291 143.612C238.982 144.367 238.363 145.484 238.363 145.484C238.363 145.484 239.463 144.985 239.773 144.47C240.083 143.956 240.873 144.403 240.082 145.484C239.291 146.564 238.397 147.663 238.225 148.658C238.053 149.654 237.927 151.52 236.684 151.857C235.44 152.194 233.411 150.306 233.411 150.306Z" fill="#FDE0D9"/>
<path d="M216.114 148.063C212.268 145.45 210.824 148.401 209.866 149.636C208.903 150.87 199.687 153.58 198.691 154.335C197.695 155.093 194.38 157.125 193.772 156.569C193.164 156.012 190.53 155.966 190.53 155.966C194.178 154.196 200.409 151.106 205.007 148.455C205.007 148.455 210.761 146.753 210.774 146.749C210.858 146.715 212.104 146.458 212.982 146.673C214.928 146.993 214.903 147.199 216.114 148.063Z" fill="url(#paint7_linear_3_20557)"/>
<path d="M215.734 135.549C214.817 136.281 214.496 135.136 214.496 135.136C214.496 135.136 213.304 136.555 212.204 136.876C211.104 137.196 211.899 135.64 211.899 135.64C211.899 135.64 210.003 137.242 209.316 137.288C208.628 137.333 209.086 136.143 209.086 136.143C209.086 136.143 207.986 136.738 207.528 137.837C207.069 138.935 206.886 139.347 206.886 139.347C206.886 139.347 206.932 138.066 206.244 137.516C205.556 136.967 205.144 140.537 205.831 141.315C206.519 142.093 206.519 142.093 206.519 142.093C206.519 142.093 203.051 149.353 200.951 150.641C200.886 150.719 200.82 150.796 200.753 150.87C200.753 150.87 202.769 152.804 205.045 153.466C205.049 153.462 205.057 153.462 205.061 153.458C206.805 152.573 207.603 151.06 207.768 150.723C207.789 150.676 207.802 150.63 207.806 150.584L207.886 149.989L208.304 146.959C208.308 146.951 208.312 146.938 208.312 146.93C208.316 146.925 208.316 146.925 208.316 146.921C209.591 147.478 211.677 147.557 213.543 147.027C216.304 146.239 216.646 138.707 216.646 138.707C216.809 137.111 216.886 135.43 216.919 133.968C216.566 134.585 216.138 135.226 215.734 135.549Z" fill="#FDE0D9"/>
<path d="M208.313 146.93C208.313 146.938 208.309 146.951 208.305 146.959L207.887 149.99C206.772 148.317 206.772 145.847 206.772 145.847C207.161 146.31 207.756 146.668 208.313 146.93Z" fill="#ECBFB9"/>
<path d="M206.771 153.614C206.222 153.707 205.636 153.635 205.045 153.466C202.769 152.805 200.753 150.87 200.753 150.87L203.322 149.989H207.886C207.886 149.989 209.452 153.172 206.771 153.614Z" fill="#FDE0D9"/>
<g opacity="0.1">
<path opacity="0.1" d="M194.381 157.125C194.381 157.125 197.458 158.832 196.554 165.238C195.65 171.645 194.113 180.036 195.921 180.758C197.729 181.48 205.954 179.012 205.954 179.012C205.954 179.012 197.276 180.743 196.689 179.758C196.102 178.773 196.317 175.031 196.656 172.197C196.996 169.364 198.669 162.901 197.675 160.988C196.681 159.074 194.381 157.125 194.381 157.125Z" fill="white"/>
</g>
<path d="M193.682 189.894V189.764C192.749 190.107 191.828 190.462 191.132 190.412C189.229 190.288 188.052 189.479 187.245 188.102C187.148 187.942 187.059 187.773 186.973 187.598C186.374 186.366 186.138 186.122 185.797 183.53C185.475 181.07 185.178 175.656 185.492 170.261C185.761 174.731 186.479 180.204 188.33 182.923C191.764 187.975 196.913 186.983 200.484 186.26C203.988 185.554 207.217 184.707 207.339 184.676C207.24 184.717 204.892 186.02 201.494 187.341C199.111 188.269 196.003 189.13 193.682 189.894Z" fill="#1C3F75"/>
<path d="M210.697 191.867L192.386 202.422H192.322C192.428 202.222 192.5 202.009 192.536 201.779C192.922 199.253 193.659 193.257 193.682 189.895V189.765L198.786 188.291C198.786 188.291 198.182 191.166 201.375 192.85C204.493 194.495 210.417 191.986 210.697 191.867Z" fill="#1C3F75"/>
<path d="M155.428 201.713C153.808 201.713 152.127 201.565 150.394 201.229C135.154 198.274 127.933 188.849 125.111 183.881C124.21 182.295 124.958 180.282 126.676 179.661L129.158 178.762L126.384 179.766L126.652 179.668C128.012 179.169 129.529 179.728 130.241 180.987C132.472 184.934 138.481 192.916 151.52 195.445C159.99 197.087 167.135 192.898 170.454 190.441C171.643 189.56 173.297 189.677 174.335 190.732C175.59 192.009 175.425 194.096 173.986 195.163C170.507 197.745 163.798 201.713 155.428 201.713Z" fill="#CDE9F9"/>
<path d="M127.21 191.764C130.68 191.764 133.493 187.579 133.493 182.416C133.493 177.254 130.68 173.069 127.21 173.069C123.74 173.069 120.928 177.254 120.928 182.416C120.928 187.579 123.74 191.764 127.21 191.764Z" fill="#AECFDC"/>
<path d="M176.137 179.826C176.137 179.826 169.386 182.982 168.275 188.613C167.164 194.243 171.095 199.959 176.137 199.618C181.179 199.276 185.965 195.096 185.965 195.096L183.145 188.954C183.145 188.954 179.964 192.343 177.025 192.482C174.086 192.622 172.092 186.821 178.388 184.177L176.137 179.826Z" fill="url(#paint8_linear_3_20557)"/>
<path d="M138.588 216.823V206.978L130.525 207.945C126.923 206.412 122.5 205.663 117.817 205.663V206.056C118.563 206.056 119.3 206.076 120.026 206.114C117.21 206.065 113.937 206.246 110.21 206.686C112.723 206.273 115.28 206.056 117.815 206.056L117.816 205.663C117.816 205.663 117.815 205.663 117.815 205.663C110.155 205.663 101.803 207.664 95.2316 211.504C94.7658 211.776 94.3215 212.056 93.8874 212.338L85.2275 213.376V225.1C85.2275 225.1 85.2362 225.103 85.2495 225.108C85.3982 228.292 87.2997 231.247 91.0602 233.445C94.9805 235.736 100.308 236.848 106.02 236.848C113.68 236.848 122.032 234.847 128.603 231.007C135.197 227.153 138.614 222.253 138.59 217.764C138.626 217.166 138.588 216.823 138.588 216.823ZM100.56 236.083C99.3634 235.915 98.2125 235.691 97.1168 235.414C98.2983 235.691 99.4453 235.91 100.56 236.083ZM96.986 235.382C96.941 235.37 96.8963 235.358 96.8517 235.347C96.8976 235.358 96.94 235.371 96.986 235.382Z" fill="#2A2F6D"/>
<path d="M113.056 221.445C127.794 219.867 139.232 213.85 138.604 208.006C137.976 202.163 125.519 198.705 110.781 200.284C96.0425 201.863 84.6039 207.88 85.2321 213.724C85.8602 219.567 98.3172 223.024 113.056 221.445Z" fill="#65939E"/>
<path d="M106.021 225.926C100.213 225.926 94.9857 224.741 91.3027 222.589C87.6867 220.475 85.7577 217.623 85.7246 214.341H85.707V138.071H85.7093L85.7239 137.638C85.7006 133.121 89.2545 128.446 95.474 124.811C101.754 121.141 109.897 119.036 117.815 119.035C123.625 119.035 128.851 120.22 132.534 122.373C134.048 123.257 135.271 124.281 136.183 125.413L135.875 125.65C136.15 126.019 136.392 126.367 136.618 126.712L136.947 126.507C137.517 127.461 137.884 128.479 138.037 129.547L138.045 129.605L138.042 129.615L138.056 129.724C138.109 130.161 138.127 130.601 138.11 131.032L138.105 131.16L138.127 131.202V207.562L138.111 207.562C138.007 212.002 134.454 216.591 128.362 220.15C122.082 223.822 113.938 225.926 106.021 225.926Z" fill="url(#paint9_linear_3_20557)"/>
<path d="M117.816 119.513C123.54 119.513 128.68 120.675 132.291 122.785C133.747 123.636 134.923 124.616 135.797 125.698L135.49 125.935C135.759 126.296 135.996 126.635 136.215 126.972L136.544 126.768C137.066 127.647 137.406 128.582 137.554 129.559L137.553 129.562L137.579 129.782C137.629 130.193 137.646 130.607 137.631 131.013L137.621 131.267L137.648 131.318V207.13L137.63 207.131L137.631 207.563C137.525 211.83 134.059 216.268 128.12 219.739C121.91 223.368 113.855 225.449 106.02 225.449C100.295 225.449 95.154 224.287 91.5434 222.177C88.0805 220.153 86.2333 217.442 86.2017 214.337H86.1842V138.495L86.2055 138.492L86.2011 137.636C86.1788 133.294 89.6464 128.769 95.7145 125.223C101.923 121.594 109.978 119.513 117.814 119.513H117.816ZM117.816 118.557C117.816 118.557 117.815 118.557 117.815 118.557C110.155 118.558 101.803 120.558 95.2315 124.398C88.6378 128.252 85.2215 133.152 85.2444 137.641L85.2275 137.643V215.731L85.2451 214.346C85.2786 217.65 87.1749 220.73 91.0602 223.001C94.9805 225.292 100.308 226.404 106.02 226.404C113.68 226.404 122.032 224.403 128.603 220.563C135.073 216.782 138.484 211.993 138.588 207.573L138.587 207.129C138.591 207.276 138.591 207.425 138.588 207.573L138.604 216.812V131.092C138.597 131.078 138.594 131.064 138.587 131.051C138.605 130.585 138.585 130.124 138.529 129.667C138.569 129.553 138.604 129.479 138.604 129.479H138.509C138.096 126.61 136.211 123.969 132.774 121.961C128.855 119.67 123.528 118.557 117.816 118.557ZM137.018 126.451C136.8 126.118 136.551 125.759 136.258 125.365C136.542 125.718 136.795 126.079 137.018 126.451Z" fill="#FDFEFE"/>
<g opacity="0.5">
<path opacity="0.5" d="M88.748 212.698V137.797C88.748 137.797 93.4531 130.218 101.54 131.03C109.627 131.842 110.932 136.444 110.932 136.444V219.817C110.932 219.817 94.9845 231.565 88.748 212.698Z" fill="url(#paint10_linear_3_20557)"/>
</g>
<path d="M92.8498 217.095C96.3195 217.095 99.1322 212.91 99.1322 207.747C99.1322 202.585 96.3195 198.4 92.8498 198.4C89.3801 198.4 86.5674 202.585 86.5674 207.747C86.5674 212.91 89.3801 217.095 92.8498 217.095Z" fill="url(#paint11_linear_3_20557)"/>
<path d="M121.068 227.044C119.448 227.044 117.767 226.896 116.033 226.56C100.794 223.605 93.5724 214.181 90.7507 209.213C89.8496 207.626 90.5976 205.614 92.3153 204.992L94.798 204.094L92.0238 205.098L92.292 204.999C93.6515 204.501 95.169 205.059 95.8809 206.319C98.1119 210.266 104.121 218.248 117.159 220.776C125.63 222.419 132.775 218.229 136.093 215.772C137.283 214.892 138.937 215.008 139.974 216.063C141.23 217.34 141.065 219.427 139.626 220.494C136.147 223.076 129.438 227.044 121.068 227.044Z" fill="#CDE9F9"/>
<path d="M141.777 205.157C141.777 205.157 135.026 208.314 133.915 213.944C132.804 219.575 136.735 225.29 141.777 224.949C146.819 224.608 151.604 220.428 151.604 220.428L148.784 214.285C148.784 214.285 145.604 217.674 142.665 217.814C139.726 217.954 137.732 212.152 144.027 209.508L141.777 205.157Z" fill="url(#paint12_linear_3_20557)"/>
<g opacity="0.5">
<path opacity="0.5" d="M116.589 214.453C116.589 213.458 115.771 212.698 114.762 212.698C113.753 212.698 112.936 213.504 112.936 214.5C112.936 215.495 113.753 216.302 114.762 216.302C115.771 216.302 116.589 215.449 116.589 214.453Z" fill="white"/>
</g>
<g opacity="0.5">
<path opacity="0.5" d="M110.932 205.6C110.932 204.241 109.817 203.204 108.44 203.204C107.063 203.204 105.947 204.305 105.947 205.663C105.947 207.021 107.063 208.122 108.44 208.122C109.817 208.122 110.932 206.958 110.932 205.6Z" fill="white"/>
</g>
<g opacity="0.5">
<path opacity="0.5" d="M116.59 194.13C116.59 192.139 114.954 190.618 112.936 190.618C110.918 190.618 109.282 192.232 109.282 194.222C109.282 196.213 110.918 197.827 112.936 197.827C114.954 197.827 116.59 196.12 116.59 194.13Z" fill="white"/>
</g>
<path d="M120.8 180.815H115.535C114.404 180.815 113.479 179.892 113.479 178.763C113.479 177.634 114.404 176.71 115.535 176.71H120.8C121.931 176.71 122.856 177.634 122.856 178.763C122.856 179.892 121.931 180.815 120.8 180.815Z" fill="white"/>
<path d="M133.979 180.815H131.901C130.804 180.815 129.906 179.919 129.906 178.824C129.906 177.728 130.804 176.832 131.901 176.832H133.979C135.077 176.832 135.974 177.728 135.974 178.824C135.974 179.919 135.077 180.815 133.979 180.815Z" fill="white"/>
<path d="M273.028 143.178V137.546L268.416 138.099C266.355 137.223 263.825 136.794 261.146 136.794V137.019C261.573 137.019 261.995 137.03 262.41 137.052C260.799 137.024 258.927 137.128 256.795 137.379C258.232 137.143 259.695 137.019 261.145 137.019L261.146 136.794C261.146 136.794 261.145 136.794 261.145 136.794C256.763 136.794 251.985 137.938 248.226 140.135C247.96 140.291 247.706 140.451 247.458 140.612L242.504 141.206V147.912C242.504 147.912 242.509 147.914 242.516 147.917C242.602 149.739 243.689 151.429 245.84 152.687C248.083 153.997 251.13 154.633 254.398 154.633C258.78 154.633 263.558 153.489 267.316 151.292C271.089 149.087 273.043 146.284 273.029 143.716C273.05 143.374 273.028 143.178 273.028 143.178ZM251.274 154.196C250.59 154.099 249.931 153.971 249.304 153.813C249.98 153.971 250.636 154.097 251.274 154.196ZM249.23 153.794C249.204 153.788 249.178 153.781 249.153 153.774C249.179 153.781 249.203 153.788 249.23 153.794Z" fill="#2A2F6D"/>
<path d="M258.424 145.824C266.855 144.921 273.398 141.479 273.039 138.136C272.679 134.793 265.553 132.816 257.122 133.719C248.691 134.622 242.148 138.064 242.507 141.407C242.866 144.749 249.992 146.727 258.424 145.824Z" fill="#65939E"/>
<path d="M254.397 148.181C251.11 148.181 248.157 147.513 246.081 146.3C244.078 145.129 243.01 143.558 242.992 141.756H242.981V98.3108L242.984 98.3105L242.991 97.8797C242.978 95.3707 244.974 92.7605 248.467 90.7189C252.029 88.6373 256.65 87.4432 261.144 87.4432C264.431 87.4432 267.384 88.1113 269.46 89.3245C270.301 89.8162 270.981 90.383 271.487 91.0094L271.31 91.145C271.465 91.3536 271.602 91.5488 271.728 91.7421L271.916 91.6249C272.223 92.1414 272.422 92.691 272.507 93.2658L272.506 93.2693L272.519 93.3786C272.548 93.6167 272.558 93.8572 272.549 94.0941L272.544 94.2205L272.559 94.2482V137.876H272.549C272.491 140.343 270.496 142.906 267.074 144.905C263.512 146.987 258.891 148.181 254.397 148.181Z" fill="url(#paint13_linear_3_20557)"/>
<path d="M261.146 87.9209C264.349 87.9209 267.216 88.5657 269.219 89.7366C270.003 90.1945 270.635 90.719 271.103 91.2947L270.927 91.4301C271.076 91.6294 271.207 91.8167 271.328 92.0023L271.515 91.8858C271.776 92.3294 271.948 92.7978 272.027 93.285L272.045 93.4356C272.071 93.6493 272.08 93.8645 272.071 94.075L272.061 94.3298L272.081 94.3664V137.634H272.071L272.071 137.876C272.011 140.171 270.103 142.582 266.833 144.493C263.342 146.533 258.809 147.703 254.398 147.703C251.194 147.703 248.327 147.058 246.323 145.888C244.473 144.806 243.487 143.376 243.47 141.751H243.461V98.7347L243.475 98.7331L243.47 97.8772C243.458 95.5774 245.417 93.0557 248.71 91.1314C252.2 89.0912 256.733 87.9212 261.145 87.9209H261.146ZM261.146 86.9656C261.146 86.9656 261.145 86.9656 261.145 86.9656C256.763 86.9659 251.985 88.11 248.227 90.3069C244.455 92.5112 242.5 95.3141 242.513 97.8823L242.504 97.8836V142.553L242.514 141.761C242.533 143.651 243.618 145.413 245.84 146.712C248.083 148.023 251.13 148.659 254.398 148.659C258.78 148.659 263.558 147.514 267.317 145.318C271.018 143.154 272.969 140.415 273.029 137.887L273.028 137.632C273.03 137.717 273.031 137.802 273.029 137.887L273.038 143.172V94.1355C273.033 94.1279 273.032 94.1199 273.028 94.1123C273.038 93.8458 273.027 93.5818 272.995 93.3207C273.018 93.2551 273.038 93.2133 273.038 93.2133H272.984C272.747 91.5718 271.668 90.0611 269.703 88.9122C267.461 87.6018 264.413 86.9656 261.146 86.9656ZM272.13 91.4814C272.006 91.2906 271.864 91.0855 271.696 90.8601C271.858 91.0613 272.003 91.2683 272.13 91.4814Z" fill="#FDFEFE"/>
<g opacity="0.5">
<path opacity="0.5" d="M260.443 141.822C260.443 141.253 259.975 140.818 259.398 140.818C258.82 140.818 258.353 141.279 258.353 141.849C258.353 142.418 258.82 142.88 259.398 142.88C259.975 142.88 260.443 142.392 260.443 141.822Z" fill="white"/>
</g>
<g opacity="0.5">
<path opacity="0.5" d="M257.207 136.758C257.207 135.981 256.569 135.387 255.781 135.387C254.994 135.387 254.355 136.017 254.355 136.794C254.355 137.571 254.994 138.2 255.781 138.2C256.569 138.201 257.207 137.535 257.207 136.758Z" fill="white"/>
</g>
<g opacity="0.5">
<path opacity="0.5" d="M260.444 130.196C260.444 129.057 259.508 128.187 258.354 128.187C257.199 128.187 256.264 129.11 256.264 130.249C256.264 131.388 257.199 132.311 258.354 132.311C259.508 132.311 260.444 131.335 260.444 130.196Z" fill="white"/>
</g>
<path d="M252.78 123.754H249.768C249.121 123.754 248.592 123.226 248.592 122.58C248.592 121.934 249.121 121.405 249.768 121.405H252.78C253.427 121.405 253.956 121.934 253.956 122.58C253.956 123.226 253.427 123.754 252.78 123.754Z" fill="white"/>
<path d="M263.322 123.754H260.31C259.663 123.754 259.134 123.226 259.134 122.58C259.134 121.934 259.663 121.405 260.31 121.405H263.322C263.969 121.405 264.499 121.934 264.499 122.58C264.499 123.226 263.969 123.754 263.322 123.754Z" fill="white"/>
<path d="M454.031 107.4V179.309C454.031 183.389 451.85 187.161 448.31 189.202L384.698 225.869C382.617 227.065 380.297 227.666 377.978 227.666C375.659 227.666 373.339 227.065 371.262 225.869L288.101 177.932V99.4288L377.978 148.19L454.031 107.4Z" fill="#CDE9F9"/>
<path d="M357.239 211.692L357.238 149.028L295.015 111.385V175.825L357.239 211.692Z" fill="url(#paint14_linear_3_20557)"/>
<path d="M184.393 286.961L357.238 187.104V179.134L190.419 275.29C190.419 275.29 185.226 277.425 183.719 279.711C182.212 281.997 184.393 286.961 184.393 286.961Z" fill="#AECFDC"/>
<path d="M357.237 179.133L188.176 276.583C185.835 277.932 184.393 280.425 184.393 283.123V317.408C184.393 320.707 180.816 322.769 177.954 321.119L131.229 294.186C129.901 293.421 129.083 292.006 129.083 290.475V238.911L184.393 270.792L357.237 171.163V179.133Z" fill="#3C7FBE"/>
<path d="M357.237 149.028V171.164L347.213 176.944H347.21L346.941 177.099L333.724 184.718L333.455 184.87L324.674 189.933L324.405 190.088L314.958 195.533L314.692 195.688L301.947 203.033L301.677 203.188L288.458 210.808L288.189 210.963L279.169 216.161L278.903 216.316L269.456 221.758L269.19 221.913L256.444 229.261L256.175 229.416L242.956 237.035L242.686 237.19L233.906 242.25L233.636 242.406L224.193 247.851L223.923 248.006L211.181 255.35L210.909 255.505L197.692 263.125L197.423 263.28L187.827 268.811L187.56 268.966L184.392 270.791C184.392 270.791 183.291 272.871 182.137 275.865C182.101 275.951 182.067 276.04 182.034 276.128C181.06 278.685 180.067 281.864 179.678 284.972C179.665 285.071 179.654 285.174 179.642 285.276C179.579 285.841 179.537 286.404 179.518 286.96C179.482 287.99 178.361 288.614 177.468 288.099L132.496 258.819C130.382 257.597 129.083 255.343 129.083 252.905V238.911L135.791 235.045L136.06 234.889L145.657 229.358L145.926 229.203L159.143 221.584L159.412 221.429L172.157 214.084L172.424 213.929L181.871 208.484L182.14 208.329L190.918 203.269L191.189 203.114L204.409 195.492L204.675 195.34L217.421 187.992L217.69 187.837L227.134 182.395L227.403 182.237L236.422 177.042L236.689 176.887L249.908 169.267L250.178 169.112L262.923 161.765L263.189 161.609H263.192L272.636 156.164H272.639L272.905 156.012L281.686 150.949L281.955 150.794L295.175 143.175L295.444 143.02L308.187 135.675L308.456 135.52L317.9 130.075L318.169 129.92L322.001 127.712L357.237 149.028Z" fill="#E7F6FD"/>
<path d="M236.423 177.041L288.189 210.962L288.458 210.807L236.689 176.886L236.423 177.041Z" fill="#AECFDC"/>
<path d="M249.909 169.266L301.678 203.188L301.947 203.033L250.178 169.111L249.909 169.266Z" fill="#AECFDC"/>
<path d="M263.19 161.609L262.924 161.764L314.693 195.688L314.959 195.533L263.193 161.609H263.19Z" fill="#AECFDC"/>
<path d="M272.639 156.164L324.674 189.933L272.905 156.011L272.639 156.164Z" fill="#AECFDC"/>
<path d="M281.686 150.949L333.455 184.87L333.724 184.718L281.955 150.793L281.686 150.949Z" fill="#AECFDC"/>
<path d="M295.444 143.019L295.175 143.174L346.941 177.099L347.213 176.944H347.21L295.444 143.019Z" fill="#AECFDC"/>
<path d="M308.187 135.674L357.237 167.815V167.483L308.456 135.519L308.187 135.674Z" fill="#AECFDC"/>
<path d="M318.17 129.919L317.9 130.074L357.238 155.853V155.521L318.17 129.919Z" fill="#AECFDC"/>
<path d="M145.658 229.358L197.425 263.28L197.694 263.125L145.927 229.203L145.658 229.358Z" fill="#AECFDC"/>
<path d="M135.792 235.044L187.561 268.966L187.827 268.811L136.061 234.889L135.792 235.044Z" fill="#AECFDC"/>
<path d="M129.084 241.431L182.035 276.128L182.138 275.865L129.084 241.099V241.431Z" fill="#AECFDC"/>
<path d="M129.084 252.146L179.643 285.276L179.679 284.971L129.084 251.814V252.146Z" fill="#AECFDC"/>
<path d="M159.145 221.584L210.911 255.506L211.183 255.351L159.414 221.429L159.145 221.584Z" fill="#AECFDC"/>
<path d="M172.158 214.084L223.924 248.006L224.194 247.851L172.425 213.929L172.158 214.084Z" fill="#AECFDC"/>
<path d="M181.871 208.484L233.638 242.406L233.907 242.251L182.14 208.329L181.871 208.484Z" fill="#AECFDC"/>
<path d="M190.918 203.269L242.687 237.191L242.956 237.036L191.19 203.114L190.918 203.269Z" fill="#AECFDC"/>
<path d="M204.41 195.492L256.176 229.416L256.445 229.261L204.677 195.339L204.41 195.492Z" fill="#AECFDC"/>
<path d="M217.422 187.992L269.191 221.914L269.457 221.759L217.691 187.836L217.422 187.992Z" fill="#AECFDC"/>
<path d="M227.134 182.394L278.903 216.316L279.169 216.161L227.403 182.236L227.134 182.394Z" fill="#AECFDC"/>
<path d="M454.03 107.4V179.309C454.03 183.389 451.85 187.161 448.309 189.202L384.697 225.869C382.616 227.065 380.297 227.666 377.978 227.666V148.19L454.03 107.4Z" fill="#AECFDC"/>
<path d="M315.756 115.37L368.766 145.926C374.467 149.213 381.492 149.213 387.193 145.926L454.031 107.4L380.255 64.8747C370.291 59.131 358.014 59.131 348.049 64.8747L288.101 99.4298L315.756 115.37Z" fill="#3C7FBE"/>
<path d="M315.756 88.9296L368.766 119.485C374.467 122.772 381.492 122.772 387.193 119.485L454.031 80.9594L380.255 38.4338C370.291 32.6901 358.014 32.6901 348.049 38.4338L288.101 72.9889L315.756 88.9296Z" fill="url(#paint15_linear_3_20557)"/>
<path d="M315.756 102.816L368.766 133.372C374.467 136.658 381.492 136.658 387.193 133.372L454.031 94.8458L380.255 52.3202C370.291 46.5765 358.014 46.5765 348.049 52.3202L288.101 86.8752L315.756 102.816Z" fill="url(#paint16_linear_3_20557)"/>
<g opacity="0.44">
<path opacity="0.44" d="M196.35 253.277C214.564 253.277 229.33 244.487 229.33 233.645C229.33 222.803 214.564 214.014 196.35 214.014C178.135 214.014 163.369 222.803 163.369 233.645C163.369 244.487 178.135 253.277 196.35 253.277Z" fill="#AECFDC"/>
</g>
<path d="M195.747 203.847L173.71 216.55C172.018 217.525 170.976 219.327 170.976 221.278V231.133C170.976 232.965 171.896 234.675 173.427 235.686L195.366 250.174C197.089 251.311 199.306 251.383 201.098 250.36L223.531 237.555C225.234 236.583 226.285 234.775 226.285 232.816V222.869C226.285 221.009 225.337 219.277 223.768 218.273L201.433 203.979C199.712 202.877 197.518 202.826 195.747 203.847Z" fill="#3C7FBE"/>
<path d="M195.747 203.847L173.71 216.55C172.018 217.525 170.976 219.327 170.976 221.278V231.133C170.976 232.965 171.896 234.675 173.427 235.686L195.366 250.174C197.089 251.311 199.306 251.383 201.098 250.36L223.531 237.555C225.234 236.583 226.285 234.775 226.285 232.816V222.869C226.285 221.009 225.337 219.277 223.768 218.273L201.433 203.979C199.712 202.877 197.518 202.826 195.747 203.847Z" fill="url(#paint17_linear_3_20557)"/>
<path d="M177.056 215.96L197.208 204.344C198.082 203.84 199.165 203.865 200.015 204.409L220.313 217.399C222.022 218.493 221.956 221.008 220.192 222.01L200.041 233.462C199.173 233.955 198.104 233.93 197.261 233.397L176.962 220.571C175.247 219.487 175.298 216.973 177.056 215.96Z" fill="white"/>
<path d="M178.169 216.02L197.266 205.11C198.095 204.637 199.121 204.661 199.926 205.172L219.162 217.373C220.782 218.4 220.719 220.761 219.047 221.703L199.951 232.459C199.129 232.922 198.116 232.899 197.317 232.398L178.08 220.351C176.455 219.333 176.503 216.972 178.169 216.02Z" fill="url(#paint18_linear_3_20557)"/>
<path d="M183.796 223.931L198.63 215.278L213.311 224.934L219.047 221.703C219.047 221.703 221.337 220.66 221.077 219.438C220.817 218.215 220.817 218.216 220.817 218.216L199.441 204.41C199.441 204.41 199.198 203.713 195.546 205.754C191.893 207.794 177.07 216.366 177.07 216.366C177.07 216.366 175.308 218.146 177.07 220.121C178.833 222.095 183.796 223.931 183.796 223.931Z" fill="url(#paint19_linear_3_20557)"/>
<path d="M209.539 219.167C209.539 213.343 204.754 208.893 198.851 208.893C192.948 208.893 188.163 213.614 188.163 219.438C188.163 225.261 192.948 229.982 198.851 229.982C204.754 229.983 209.539 224.99 209.539 219.167Z" fill="url(#paint20_linear_3_20557)"/>
<path d="M204.073 223.278C204.069 223.271 204.064 223.267 204.064 223.267L202.061 218.94C202.061 218.665 200.602 218.441 198.803 218.441C197.004 218.441 195.546 218.665 195.546 218.94L193.198 223.236C193.135 223.291 193.102 223.347 193.102 223.404C193.102 223.898 195.57 224.299 198.615 224.299C201.66 224.299 204.129 223.898 204.129 223.404C204.128 223.361 204.109 223.319 204.073 223.278Z" fill="white"/>
<path d="M204.067 223.268C203.658 222.393 201.415 217.581 201.156 216.902C200.945 216.349 200.907 215.971 200.901 215.812V212.835H200.899C200.9 212.83 200.901 212.825 200.901 212.82C200.901 212.599 199.984 212.421 198.854 212.421C197.723 212.421 196.807 212.6 196.807 212.82C196.807 212.825 196.808 212.83 196.809 212.835H196.807V215.727H196.805C196.636 217.208 193.766 222.253 193.2 223.237C193.137 223.292 193.104 223.348 193.104 223.405C193.104 223.899 195.572 224.3 198.617 224.3C201.662 224.3 204.131 223.899 204.131 223.405C204.13 223.358 204.109 223.313 204.067 223.268Z" fill="white"/>
<path d="M198.853 213.217C199.983 213.217 200.9 213.039 200.9 212.819C200.9 212.598 199.983 212.42 198.853 212.42C197.722 212.42 196.806 212.598 196.806 212.819C196.806 213.039 197.722 213.217 198.853 213.217Z" fill="white"/>
<path d="M198.804 219.438C200.603 219.438 202.062 219.215 202.062 218.94C202.062 218.665 200.603 218.442 198.804 218.442C197.005 218.442 195.547 218.665 195.547 218.94C195.547 219.215 197.005 219.438 198.804 219.438Z" fill="white"/>
<path d="M198.615 224.299C201.66 224.299 204.129 223.898 204.129 223.404C204.129 222.909 201.66 222.509 198.615 222.509C195.57 222.509 193.102 222.909 193.102 223.404C193.102 223.898 195.57 224.299 198.615 224.299Z" fill="white"/>
<path d="M209.539 219.167C209.539 213.343 204.754 208.893 198.851 208.893C192.948 208.893 188.163 213.614 188.163 219.438C188.163 225.261 192.948 229.982 198.851 229.982C204.754 229.983 209.539 224.99 209.539 219.167Z" fill="url(#paint21_linear_3_20557)"/>
<g opacity="0.44">
<path opacity="0.44" d="M258.322 216.664C276.537 216.664 291.303 207.875 291.303 197.032C291.303 186.19 276.537 177.401 258.322 177.401C240.108 177.401 225.342 186.19 225.342 197.032C225.342 207.875 240.108 216.664 258.322 216.664Z" fill="#AECFDC"/>
</g>
<path d="M255.844 168.333L233.806 181.036C232.114 182.011 231.072 183.813 231.072 185.763V195.618C231.072 197.45 231.993 199.16 233.524 200.171L255.463 214.66C257.185 215.797 259.402 215.869 261.195 214.846L283.628 202.041C285.331 201.069 286.382 199.26 286.382 197.302V187.355C286.382 185.495 285.434 183.763 283.865 182.759L261.53 168.465C259.808 167.363 257.615 167.312 255.844 168.333Z" fill="#3C7FBE"/>
<path d="M257.72 167.234L235.682 179.937C233.99 180.912 232.948 182.714 232.948 184.665V194.52C232.948 196.352 233.869 198.062 235.4 199.073L257.339 213.561C259.061 214.698 261.278 214.77 263.071 213.747L285.504 200.942C287.207 199.97 288.258 198.162 288.258 196.203V186.256C288.258 184.396 287.31 182.664 285.741 181.66L263.406 167.366C261.684 166.264 259.491 166.214 257.72 167.234Z" fill="url(#paint22_linear_3_20557)"/>
<path d="M237.152 180.446L257.305 168.83C258.179 168.326 259.261 168.351 260.111 168.894L280.41 181.885C282.118 182.978 282.052 185.493 280.288 186.496L260.137 197.948C259.27 198.441 258.201 198.416 257.358 197.883L237.059 185.056C235.344 183.973 235.395 181.458 237.152 180.446Z" fill="white"/>
<path d="M238.265 180.506L257.363 169.596C258.192 169.122 259.218 169.146 260.023 169.657L279.259 181.858C280.879 182.885 280.816 185.247 279.144 186.188L260.047 196.944C259.226 197.407 258.213 197.384 257.414 196.884L238.176 184.836C236.551 183.819 236.6 181.457 238.265 180.506Z" fill="url(#paint23_linear_3_20557)"/>
<path d="M243.893 188.416L258.727 179.763L273.407 189.419L279.144 186.188C279.144 186.188 281.434 185.146 281.174 183.923C280.914 182.701 280.914 182.701 280.914 182.701L259.537 168.896C259.537 168.896 259.295 168.199 255.642 170.239C251.99 172.279 237.167 180.851 237.167 180.851C237.167 180.851 235.405 182.632 237.167 184.606C238.93 186.581 243.893 188.416 243.893 188.416Z" fill="url(#paint24_linear_3_20557)"/>
<path d="M269.636 183.652C269.636 177.829 264.851 173.379 258.948 173.379C253.045 173.379 248.26 178.099 248.26 183.923C248.26 189.747 253.045 194.468 258.948 194.468C264.851 194.468 269.636 189.476 269.636 183.652Z" fill="url(#paint25_linear_3_20557)"/>
<path d="M264.171 187.763C264.166 187.757 264.162 187.753 264.162 187.753L262.159 183.425C262.159 183.15 260.7 182.927 258.901 182.927C257.102 182.927 255.644 183.15 255.644 183.425L253.296 187.722C253.233 187.776 253.199 187.832 253.199 187.889C253.199 188.384 255.668 188.784 258.713 188.784C261.758 188.784 264.227 188.384 264.227 187.889C264.226 187.846 264.207 187.804 264.171 187.763Z" fill="white"/>
<path d="M264.161 187.754C263.753 186.879 261.509 182.067 261.25 181.388C261.04 180.835 261.001 180.457 260.996 180.298V177.321H260.994C260.995 177.316 260.996 177.311 260.996 177.305C260.996 177.085 260.079 176.907 258.949 176.907C257.818 176.907 256.902 177.085 256.902 177.305C256.902 177.311 256.903 177.316 256.904 177.321H256.902V180.212H256.9C256.73 181.694 253.861 186.739 253.295 187.723C253.232 187.777 253.198 187.833 253.198 187.891C253.198 188.385 255.667 188.786 258.712 188.786C261.757 188.786 264.226 188.385 264.226 187.891C264.225 187.844 264.204 187.798 264.161 187.754Z" fill="white"/>
<path d="M258.949 177.703C260.08 177.703 260.996 177.524 260.996 177.304C260.996 177.084 260.08 176.905 258.949 176.905C257.819 176.905 256.902 177.084 256.902 177.304C256.902 177.524 257.819 177.703 258.949 177.703Z" fill="white"/>
<path d="M258.901 183.923C260.7 183.923 262.159 183.7 262.159 183.425C262.159 183.15 260.7 182.927 258.901 182.927C257.102 182.927 255.644 183.15 255.644 183.425C255.644 183.7 257.102 183.923 258.901 183.923Z" fill="white"/>
<path d="M258.712 188.784C261.757 188.784 264.226 188.384 264.226 187.889C264.226 187.395 261.757 186.994 258.712 186.994C255.667 186.994 253.198 187.395 253.198 187.889C253.198 188.384 255.667 188.784 258.712 188.784Z" fill="white"/>
<path d="M269.636 183.652C269.636 177.829 264.851 173.379 258.948 173.379C253.045 173.379 248.26 178.099 248.26 183.923C248.26 189.747 253.045 194.468 258.948 194.468C264.851 194.468 269.636 189.476 269.636 183.652Z" fill="url(#paint26_linear_3_20557)"/>
<g opacity="0.44">
<path opacity="0.44" d="M319.362 180.934C337.577 180.934 352.343 172.145 352.343 161.303C352.343 150.461 337.577 141.671 319.362 141.671C301.148 141.671 286.382 150.461 286.382 161.303C286.382 172.145 301.148 180.934 319.362 180.934Z" fill="#AECFDC"/>
</g>
<path d="M318.76 131.505L296.722 144.208C295.03 145.183 293.988 146.985 293.988 148.935V158.79C293.988 160.622 294.909 162.332 296.44 163.343L318.379 177.832C320.101 178.969 322.318 179.041 324.111 178.018L346.544 165.213C348.247 164.241 349.298 162.432 349.298 160.474V150.527C349.298 148.667 348.35 146.935 346.781 145.931L324.446 131.637C322.724 130.535 320.531 130.484 318.76 131.505Z" fill="#3C7FBE"/>
<path d="M318.76 131.505L296.722 144.208C295.03 145.183 293.988 146.985 293.988 148.935V158.79C293.988 160.622 294.909 162.332 296.44 163.343L318.379 177.832C320.101 178.969 322.318 179.041 324.111 178.018L346.544 165.213C348.247 164.241 349.298 162.432 349.298 160.474V150.527C349.298 148.667 348.35 146.935 346.781 145.931L324.446 131.637C322.724 130.535 320.531 130.484 318.76 131.505Z" fill="url(#paint27_linear_3_20557)"/>
<path d="M300.068 143.617L320.22 132.001C321.095 131.498 322.177 131.522 323.027 132.066L343.325 145.057C345.034 146.15 344.968 148.665 343.204 149.667L323.053 161.12C322.186 161.613 321.117 161.588 320.274 161.055L299.974 148.228C298.26 147.145 298.311 144.631 300.068 143.617Z" fill="white"/>
<path d="M301.181 143.678L320.279 132.768C321.107 132.294 322.134 132.318 322.939 132.829L342.175 145.03C343.795 146.057 343.732 148.419 342.06 149.36L322.964 160.116C322.142 160.579 321.129 160.556 320.33 160.056L301.093 148.008C299.467 146.991 299.516 144.629 301.181 143.678Z" fill="url(#paint28_linear_3_20557)"/>
<path d="M306.809 151.588L321.643 142.935L336.323 152.591L342.06 149.36C342.06 149.36 344.35 148.318 344.09 147.095C343.83 145.873 343.83 145.873 343.83 145.873L322.453 132.068C322.453 132.068 322.211 131.371 318.558 133.411C314.906 135.451 300.083 144.023 300.083 144.023C300.083 144.023 298.321 145.804 300.083 147.778C301.845 149.753 306.809 151.588 306.809 151.588Z" fill="url(#paint29_linear_3_20557)"/>
<path d="M332.552 146.824C332.552 141 327.767 136.551 321.864 136.551C315.961 136.551 311.176 141.271 311.176 147.095C311.176 152.919 315.961 157.639 321.864 157.639C327.767 157.639 332.552 152.648 332.552 146.824Z" fill="url(#paint30_linear_3_20557)"/>
<path d="M327.086 150.935C327.081 150.928 327.077 150.925 327.077 150.925L325.074 146.597C325.074 146.322 323.615 146.099 321.816 146.099C320.017 146.099 318.559 146.322 318.559 146.597L316.211 150.894C316.148 150.948 316.114 151.004 316.114 151.061C316.114 151.556 318.583 151.956 321.628 151.956C324.673 151.956 327.142 151.556 327.142 151.061C327.141 151.019 327.122 150.976 327.086 150.935Z" fill="white"/>
<path d="M327.078 150.925C326.67 150.05 324.426 145.239 324.167 144.559C323.957 144.006 323.918 143.629 323.912 143.469V140.492H323.911C323.912 140.487 323.912 140.482 323.912 140.477C323.912 140.257 322.996 140.078 321.866 140.078C320.735 140.078 319.819 140.257 319.819 140.477C319.819 140.482 319.82 140.487 319.821 140.492H319.819V143.384H319.817C319.647 144.866 316.778 149.91 316.212 150.895C316.149 150.949 316.115 151.005 316.115 151.062C316.115 151.556 318.584 151.957 321.629 151.957C324.674 151.957 327.143 151.557 327.143 151.062C327.142 151.015 327.12 150.97 327.078 150.925Z" fill="white"/>
<path d="M321.865 140.875C322.996 140.875 323.912 140.696 323.912 140.476C323.912 140.256 322.996 140.077 321.865 140.077C320.735 140.077 319.818 140.256 319.818 140.476C319.818 140.696 320.735 140.875 321.865 140.875Z" fill="white"/>
<path d="M321.817 147.095C323.616 147.095 325.075 146.872 325.075 146.597C325.075 146.322 323.616 146.099 321.817 146.099C320.018 146.099 318.56 146.322 318.56 146.597C318.56 146.872 320.018 147.095 321.817 147.095Z" fill="white"/>
<path d="M321.628 151.956C324.673 151.956 327.142 151.556 327.142 151.061C327.142 150.567 324.673 150.166 321.628 150.166C318.583 150.166 316.114 150.567 316.114 151.061C316.114 151.556 318.583 151.956 321.628 151.956Z" fill="white"/>
<path d="M332.552 146.824C332.552 141 327.767 136.551 321.864 136.551C315.961 136.551 311.176 141.271 311.176 147.095C311.176 152.919 315.961 157.639 321.864 157.639C327.767 157.639 332.552 152.648 332.552 146.824Z" fill="url(#paint31_linear_3_20557)"/>
<defs>
<linearGradient id="paint0_linear_3_20557" x1="184.395" y1="251.832" x2="354.691" y2="251.832" gradientUnits="userSpaceOnUse">
<stop stop-color="#6B385F"/>
<stop offset="0.4197" stop-color="#6F3B62" stop-opacity="0.7323"/>
<stop offset="0.5218" stop-color="#764268" stop-opacity="0.6035"/>
<stop offset="0.6937" stop-color="#8C567A" stop-opacity="0.3865"/>
<stop offset="0.9131" stop-color="#B5799B" stop-opacity="0.1096"/>
<stop offset="1" stop-color="#CC8DAE" stop-opacity="0"/>
</linearGradient>
<linearGradient id="paint1_linear_3_20557" x1="169.243" y1="186.791" x2="181.666" y2="186.791" gradientUnits="userSpaceOnUse">
<stop stop-color="#6B385F"/>
<stop offset="0.4197" stop-color="#6F3B62" stop-opacity="0.7323"/>
<stop offset="0.5218" stop-color="#764268" stop-opacity="0.6035"/>
<stop offset="0.6937" stop-color="#8C567A" stop-opacity="0.3865"/>
<stop offset="0.9131" stop-color="#B5799B" stop-opacity="0.1096"/>
<stop offset="1" stop-color="#CC8DAE" stop-opacity="0"/>
</linearGradient>
<linearGradient id="paint2_linear_3_20557" x1="173.778" y1="169.475" x2="207.459" y2="169.475" gradientUnits="userSpaceOnUse">
<stop offset="0.2595" stop-color="#6B385F"/>
<stop offset="0.6487" stop-color="#6F3B62" stop-opacity="0.7323"/>
<stop offset="0.7105" stop-color="#764268" stop-opacity="0.6035"/>
<stop offset="0.8146" stop-color="#8C567A" stop-opacity="0.3865"/>
<stop offset="0.9474" stop-color="#B5799B" stop-opacity="0.1096"/>
<stop offset="1" stop-color="#CC8DAE" stop-opacity="0"/>
</linearGradient>
<linearGradient id="paint3_linear_3_20557" x1="216.177" y1="133.484" x2="221.555" y2="133.484" gradientUnits="userSpaceOnUse">
<stop stop-color="#6B385F"/>
<stop offset="0.4197" stop-color="#6F3B62" stop-opacity="0.7323"/>
<stop offset="0.5218" stop-color="#764268" stop-opacity="0.6035"/>
<stop offset="0.6937" stop-color="#8C567A" stop-opacity="0.3865"/>
<stop offset="0.9131" stop-color="#B5799B" stop-opacity="0.1096"/>
<stop offset="1" stop-color="#CC8DAE" stop-opacity="0"/>
</linearGradient>
<linearGradient id="paint4_linear_3_20557" x1="185.359" y1="177.638" x2="237.187" y2="177.638" gradientUnits="userSpaceOnUse">
<stop offset="0.1342" stop-color="#1D4989"/>
<stop offset="0.9351" stop-color="white" stop-opacity="0"/>
</linearGradient>
<linearGradient id="paint5_linear_3_20557" x1="202.277" y1="162.501" x2="236.3" y2="162.501" gradientUnits="userSpaceOnUse">
<stop offset="0.3423" stop-color="#1D4989"/>
<stop offset="0.9818" stop-color="#2575AE" stop-opacity="0.4681"/>
<stop offset="1" stop-color="#29ABE2" stop-opacity="0"/>
</linearGradient>
<linearGradient id="paint6_linear_3_20557" x1="188.858" y1="181.521" x2="217.799" y2="181.521" gradientUnits="userSpaceOnUse">
<stop offset="0.3423" stop-color="#1D4989"/>
<stop offset="1" stop-color="#29ABE2" stop-opacity="0"/>
</linearGradient>
<linearGradient id="paint7_linear_3_20557" x1="190.53" y1="151.626" x2="216.114" y2="151.626" gradientUnits="userSpaceOnUse">
<stop offset="0.3423" stop-color="#1D4989"/>
<stop offset="1" stop-color="#29ABE2" stop-opacity="0"/>
</linearGradient>
<linearGradient id="paint8_linear_3_20557" x1="168.086" y1="189.729" x2="185.965" y2="189.729" gradientUnits="userSpaceOnUse">
<stop offset="0.0607" stop-color="#28A8E0"/>
<stop offset="0.9984" stop-color="#29ABE2" stop-opacity="0"/>
</linearGradient>
<linearGradient id="paint9_linear_3_20557" x1="85.7069" y1="172.481" x2="138.127" y2="172.481" gradientUnits="userSpaceOnUse">
<stop offset="0.0607" stop-color="#28A8E0"/>
<stop offset="0.9984" stop-color="#29ABE2" stop-opacity="0"/>
</linearGradient>
<linearGradient id="paint10_linear_3_20557" x1="88.7481" y1="177.2" x2="110.932" y2="177.2" gradientUnits="userSpaceOnUse">
<stop offset="0.4247" stop-color="white"/>
<stop offset="1" stop-color="#2484C6" stop-opacity="0"/>
</linearGradient>
<linearGradient id="paint11_linear_3_20557" x1="86.5673" y1="207.747" x2="99.1321" y2="207.747" gradientUnits="userSpaceOnUse">
<stop stop-color="#6B385F"/>
<stop offset="0.4197" stop-color="#6F3B62" stop-opacity="0.7323"/>
<stop offset="0.5218" stop-color="#764268" stop-opacity="0.6035"/>
<stop offset="0.6937" stop-color="#8C567A" stop-opacity="0.3865"/>
<stop offset="0.9131" stop-color="#B5799B" stop-opacity="0.1096"/>
<stop offset="1" stop-color="#CC8DAE" stop-opacity="0"/>
</linearGradient>
<linearGradient id="paint12_linear_3_20557" x1="133.726" y1="215.06" x2="151.604" y2="215.06" gradientUnits="userSpaceOnUse">
<stop offset="0.0607" stop-color="#28A8E0"/>
<stop offset="0.9984" stop-color="#29ABE2" stop-opacity="0"/>
</linearGradient>
<linearGradient id="paint13_linear_3_20557" x1="242.981" y1="117.812" x2="272.558" y2="117.812" gradientUnits="userSpaceOnUse">
<stop offset="0.0607" stop-color="#28A8E0"/>
<stop offset="0.9984" stop-color="#29ABE2" stop-opacity="0"/>
</linearGradient>
<linearGradient id="paint14_linear_3_20557" x1="295.015" y1="161.538" x2="357.239" y2="161.538" gradientUnits="userSpaceOnUse">
<stop stop-color="#29ABE2" stop-opacity="0"/>
<stop offset="0.2747" stop-color="#20439C" stop-opacity="0.8757"/>
<stop offset="0.7514" stop-color="#21409A"/>
</linearGradient>
<linearGradient id="paint15_linear_3_20557" x1="288.1" y1="78.038" x2="454.031" y2="78.038" gradientUnits="userSpaceOnUse">
<stop offset="0.0607" stop-color="#28A8E0"/>
<stop offset="0.9984" stop-color="#29ABE2" stop-opacity="0"/>
</linearGradient>
<linearGradient id="paint16_linear_3_20557" x1="288.1" y1="91.9244" x2="454.031" y2="91.9244" gradientUnits="userSpaceOnUse">
<stop offset="0.0607" stop-color="#28A8E0"/>
<stop offset="0.9984" stop-color="#29ABE2" stop-opacity="0"/>
</linearGradient>
<linearGradient id="paint17_linear_3_20557" x1="170.975" y1="227.098" x2="226.285" y2="227.098" gradientUnits="userSpaceOnUse">
<stop offset="0.3062" stop-color="#29ABE2" stop-opacity="0"/>
<stop offset="0.6875" stop-color="#28A8E0" stop-opacity="0.8614"/>
<stop offset="0.9037" stop-color="#28A8E0"/>
</linearGradient>
<linearGradient id="paint18_linear_3_20557" x1="176.89" y1="218.781" x2="220.34" y2="218.781" gradientUnits="userSpaceOnUse">
<stop stop-color="white"/>
<stop offset="0.9052" stop-color="#2484C6" stop-opacity="0"/>
</linearGradient>
<linearGradient id="paint19_linear_3_20557" x1="176.287" y1="214.615" x2="221.097" y2="214.615" gradientUnits="userSpaceOnUse">
<stop offset="0.3423" stop-color="#1D4989"/>
<stop offset="1" stop-color="#29ABE2" stop-opacity="0"/>
</linearGradient>
<linearGradient id="paint20_linear_3_20557" x1="188.163" y1="219.438" x2="209.54" y2="219.438" gradientUnits="userSpaceOnUse">
<stop stop-color="#BD8AAE"/>
<stop offset="1" stop-color="#2484C6" stop-opacity="0"/>
</linearGradient>
<linearGradient id="paint21_linear_3_20557" x1="188.163" y1="219.438" x2="209.54" y2="219.438" gradientUnits="userSpaceOnUse">
<stop offset="0.3062" stop-color="#29ABE2" stop-opacity="0"/>
<stop offset="0.6875" stop-color="#28A8E0" stop-opacity="0.8614"/>
<stop offset="0.9037" stop-color="#28A8E0"/>
</linearGradient>
<linearGradient id="paint22_linear_3_20557" x1="232.948" y1="190.485" x2="288.258" y2="190.485" gradientUnits="userSpaceOnUse">
<stop offset="0.3062" stop-color="#29ABE2" stop-opacity="0"/>
<stop offset="0.6875" stop-color="#28A8E0" stop-opacity="0.8614"/>
<stop offset="0.9037" stop-color="#28A8E0"/>
</linearGradient>
<linearGradient id="paint23_linear_3_20557" x1="236.986" y1="183.266" x2="280.437" y2="183.266" gradientUnits="userSpaceOnUse">
<stop stop-color="white"/>
<stop offset="0.9052" stop-color="#2484C6" stop-opacity="0"/>
</linearGradient>
<linearGradient id="paint24_linear_3_20557" x1="236.384" y1="179.1" x2="281.194" y2="179.1" gradientUnits="userSpaceOnUse">
<stop offset="0.3423" stop-color="#1D4989"/>
<stop offset="1" stop-color="#29ABE2" stop-opacity="0"/>
</linearGradient>
<linearGradient id="paint25_linear_3_20557" x1="248.26" y1="183.923" x2="269.636" y2="183.923" gradientUnits="userSpaceOnUse">
<stop stop-color="#BD8AAE"/>
<stop offset="1" stop-color="#2484C6" stop-opacity="0"/>
</linearGradient>
<linearGradient id="paint26_linear_3_20557" x1="248.26" y1="183.923" x2="269.636" y2="183.923" gradientUnits="userSpaceOnUse">
<stop offset="0.3062" stop-color="#29ABE2" stop-opacity="0"/>
<stop offset="0.6875" stop-color="#28A8E0" stop-opacity="0.8614"/>
<stop offset="0.9037" stop-color="#28A8E0"/>
</linearGradient>
<linearGradient id="paint27_linear_3_20557" x1="293.988" y1="154.755" x2="349.298" y2="154.755" gradientUnits="userSpaceOnUse">
<stop offset="0.3062" stop-color="#29ABE2" stop-opacity="0"/>
<stop offset="0.6875" stop-color="#28A8E0" stop-opacity="0.8614"/>
<stop offset="0.9037" stop-color="#28A8E0"/>
</linearGradient>
<linearGradient id="paint28_linear_3_20557" x1="299.902" y1="146.438" x2="343.353" y2="146.438" gradientUnits="userSpaceOnUse">
<stop stop-color="white"/>
<stop offset="0.9052" stop-color="#2484C6" stop-opacity="0"/>
</linearGradient>
<linearGradient id="paint29_linear_3_20557" x1="299.3" y1="142.272" x2="344.11" y2="142.272" gradientUnits="userSpaceOnUse">
<stop offset="0.3423" stop-color="#1D4989"/>
<stop offset="1" stop-color="#29ABE2" stop-opacity="0"/>
</linearGradient>
<linearGradient id="paint30_linear_3_20557" x1="311.176" y1="147.095" x2="332.552" y2="147.095" gradientUnits="userSpaceOnUse">
<stop stop-color="#BD8AAE"/>
<stop offset="1" stop-color="#2484C6" stop-opacity="0"/>
</linearGradient>
<linearGradient id="paint31_linear_3_20557" x1="311.176" y1="147.095" x2="332.552" y2="147.095" gradientUnits="userSpaceOnUse">
<stop offset="0.3062" stop-color="#29ABE2" stop-opacity="0"/>
<stop offset="0.6875" stop-color="#28A8E0" stop-opacity="0.8614"/>
<stop offset="0.9037" stop-color="#28A8E0"/>
</linearGradient>
</defs>
</svg>
