<svg width="384" height="346" viewBox="0 0 384 346" fill="none" xmlns="http://www.w3.org/2000/svg">
<g opacity="0.28">
<path opacity="0.28" d="M209.905 342.856L73.8458 263.962C68.9172 261.104 68.9172 253.96 73.8462 251.102L224.809 163.58C229.846 160.66 236.05 160.654 241.093 163.565L380.206 243.855C385.146 246.707 385.153 253.861 380.219 256.722L231.674 342.856C224.939 346.762 216.64 346.762 209.905 342.856Z" fill="#CDE9F9"/>
</g>
<g opacity="0.46">
<path opacity="0.75" d="M74.0979 126.578L6.35786 165.75C3.79051 167.235 0.584961 165.374 0.584961 162.399V141.342C0.584961 139.959 1.32051 138.681 2.5145 137.99L70.2546 98.8177C72.8219 97.3329 76.0274 99.1941 76.0274 102.169V123.226C76.0274 124.609 75.2915 125.887 74.0979 126.578Z" fill="#CDE9F9"/>
</g>
<g opacity="0.46">
<path opacity="0.75" d="M157.819 94.0889L90.0786 133.262C87.5112 134.746 84.3057 132.885 84.3057 129.91V108.853C84.3057 107.47 85.0412 106.191 86.2352 105.501L153.975 66.3285C156.543 64.8437 159.748 66.7049 159.748 69.6801V90.7369C159.748 92.1204 159.013 93.3987 157.819 94.0889Z" fill="#CDE9F9"/>
</g>
<g opacity="0.46">
<path opacity="0.75" d="M164.152 51.6115L96.4116 90.7841C93.8442 92.269 90.6387 90.4077 90.6387 87.4326V66.3758C90.6387 64.9927 91.3742 63.7144 92.5682 63.0242L160.308 23.8515C162.876 22.3667 166.081 24.2279 166.081 27.2031V48.2599C166.081 49.6434 165.346 50.9213 164.152 51.6115Z" fill="#CDE9F9"/>
</g>
<path d="M366.699 104.347V259.254C366.699 261.95 365.255 264.437 362.915 265.762L353.845 270.894L351.702 125.592L351.447 108.296L180.293 6.4475L188.692 1.5756C191.452 -0.0247128 194.851 -0.0247128 197.61 1.5756L362.629 97.2635C364.136 98.1385 365.294 99.455 365.981 100.996C366.448 102.033 366.699 103.172 366.699 104.347Z" fill="#CDE9F9"/>
<path d="M366.699 104.347V259.254C366.699 261.95 365.254 264.438 362.915 265.762L353.844 270.894L351.701 125.592V109.065L365.98 100.996C366.447 102.033 366.699 103.172 366.699 104.347Z" fill="#AECFDC"/>
<path d="M180.295 165.118V6.4455L348.124 103.762C351.664 105.815 353.845 109.608 353.845 113.713V270.895L184.887 173.099C182.046 171.454 180.295 168.411 180.295 165.118Z" fill="#7CCAF1"/>
<path d="M180.295 165.118V6.4455L348.124 103.762C351.664 105.815 353.845 109.608 353.845 113.713V270.895L184.887 173.099C182.046 171.454 180.295 168.411 180.295 165.118Z" fill="url(#paint0_linear_107_763)"/>
<path d="M189.432 127.261L228.841 150.112C230.621 151.144 231.717 153.051 231.717 155.115V155.203C231.717 156.994 229.787 158.114 228.242 157.218L188.892 134.401C187.549 133.623 186.723 132.185 186.723 130.628V128.831C186.722 127.435 188.228 126.563 189.432 127.261Z" fill="#17A1DB"/>
<path d="M189.432 138.176L228.841 161.027C230.621 162.059 231.717 163.966 231.717 166.03V166.119C231.717 167.91 229.787 169.029 228.242 168.134L188.892 145.317C187.549 144.539 186.723 143.1 186.723 141.544V139.747C186.722 138.351 188.228 137.478 189.432 138.176Z" fill="#E7F6FD"/>
<path d="M189.432 148.835L228.841 171.686C230.621 172.718 231.717 174.625 231.717 176.688V176.777C231.717 178.568 229.787 179.688 228.242 178.792L188.892 155.975C187.549 155.197 186.723 153.759 186.723 152.202V150.406C186.722 149.009 188.228 148.136 189.432 148.835Z" fill="#17A1DB"/>
<path d="M189.432 159.75L228.841 182.601C230.621 183.633 231.717 185.54 231.717 187.604V187.692C231.717 189.483 229.787 190.603 228.242 189.707L188.892 166.89C187.549 166.112 186.723 164.674 186.723 163.117V161.321C186.722 159.924 188.228 159.052 189.432 159.75Z" fill="#17A1DB"/>
<path d="M246.303 61.3044L344.939 118.499C346.138 119.195 346.877 120.48 346.877 121.87V225.877C346.877 228.348 344.213 229.893 342.082 228.657L247.509 173.819C245.357 172.572 244.032 170.267 244.032 167.772V62.621C244.033 61.4507 245.294 60.7195 246.303 61.3044Z" fill="url(#paint1_linear_107_763)"/>
<path d="M240.415 63.6694L339.052 120.864C340.251 121.56 340.989 122.844 340.989 124.235V228.242C340.989 230.713 338.325 232.258 336.195 231.022L241.621 176.184C239.47 174.937 238.145 172.632 238.145 170.137V64.986C238.145 63.8157 239.406 63.0845 240.415 63.6694Z" fill="white"/>
<path d="M244.317 85.5362V137.99C244.317 139.709 245.237 141.296 246.725 142.146L271.851 156.486C274.02 157.724 276.711 156.15 276.711 153.646V102.349C276.711 100.536 275.737 98.8646 274.163 97.9765L248.137 83.2915C246.428 82.3277 244.317 83.5678 244.317 85.5362Z" fill="url(#paint2_linear_107_763)"/>
<path d="M283.08 107.004L283.132 123.218C283.137 124.67 283.908 126.011 285.159 126.74L330.96 153.433C332.559 154.364 334.562 153.206 334.562 151.349V135.709C334.562 134.137 333.727 132.685 332.372 131.899L286.254 105.158C284.841 104.338 283.075 105.366 283.08 107.004Z" fill="#BD8AAE"/>
<path d="M285.964 134.807L332.473 161.775C333.766 162.525 334.562 163.91 334.562 165.409V166.502C334.562 168.252 332.675 169.347 331.165 168.471L284.973 141.687C283.794 141.003 283.068 139.74 283.068 138.374V136.486C283.068 134.994 284.677 134.061 285.964 134.807Z" fill="#BD8AAE"/>
<path d="M283.14 151.829V183.126C283.14 184.477 283.856 185.725 285.02 186.402L305.429 198.269C306.933 199.143 308.815 198.054 308.815 196.309V165.583C308.815 163.965 307.952 162.47 306.554 161.666L286.279 150.001C284.882 149.197 283.14 150.21 283.14 151.829Z" fill="#306097"/>
<path d="M315.278 170.495V201.514C315.278 203.044 316.091 204.457 317.41 205.221L330.918 213.054C332.538 213.993 334.562 212.82 334.562 210.942V181.057C334.562 179.1 333.523 177.293 331.836 176.315L318.539 168.605C317.09 167.764 315.278 168.814 315.278 170.495Z" fill="#3C7FBE"/>
<path d="M258.159 155.691C252.856 152.648 248.518 155.131 248.518 161.208C248.518 167.285 252.856 174.806 258.159 177.922C263.462 181.037 267.801 178.555 267.801 172.405C267.801 166.255 263.462 158.734 258.159 155.691Z" fill="#3C7FBE"/>
<path d="M238.145 69.522L340.954 129.422V124.192C340.954 122.828 340.229 121.568 339.053 120.885L240.384 63.6525C239.389 63.075 238.145 63.7963 238.145 64.9509V69.522Z" fill="#3C7FBE"/>
<path d="M242.625 66.8323C241.694 66.2982 240.933 66.7341 240.933 67.8007C240.933 68.8673 241.694 70.1878 242.625 70.7349C243.556 71.282 244.318 70.8461 244.318 69.7664C244.318 68.6868 243.556 67.3664 242.625 66.8323Z" fill="white"/>
<path d="M248.051 70.0391C247.12 69.505 246.358 69.9406 246.358 71.0076C246.358 72.0746 247.12 73.3947 248.051 73.9418C248.982 74.4889 249.743 74.053 249.743 72.9733C249.743 71.8937 248.982 70.5732 248.051 70.0391Z" fill="#E7F6FD"/>
<path d="M253.391 72.973C252.46 72.4389 251.698 72.8744 251.698 73.9414C251.698 75.0084 252.46 76.3285 253.391 76.8756C254.322 77.4227 255.083 76.9868 255.083 75.9071C255.083 74.8275 254.322 73.5075 253.391 72.973Z" fill="#CDE9F9"/>
<path d="M197.469 33.9429L235.497 55.9934C237.044 56.8905 237.998 58.5488 237.998 60.343V140.698C237.998 143.452 235.028 145.174 232.653 143.796L195.355 122.169C193.899 121.325 193.003 119.766 193.003 118.078V36.5318C193.003 34.2303 195.484 32.792 197.469 33.9429Z" fill="url(#paint3_linear_107_763)"/>
<path d="M191.189 35.1254L229.217 57.1759C230.764 58.073 231.717 59.7313 231.717 61.5255V141.88C231.717 144.635 228.748 146.356 226.373 144.979L189.075 123.351C187.619 122.507 186.723 120.948 186.723 119.26V37.7143C186.723 35.4128 189.204 33.9745 191.189 35.1254Z" fill="#222457"/>
<path d="M191.189 35.1254L229.217 57.1759C230.764 58.073 231.717 59.7313 231.717 61.5255V141.88C231.717 144.635 228.748 146.356 226.373 144.979L189.075 123.351C187.619 122.507 186.723 120.948 186.723 119.26V37.7143C186.723 35.4128 189.204 33.9745 191.189 35.1254Z" fill="url(#paint4_linear_107_763)"/>
<path d="M189.817 41.2646V42.4861L194.927 45.4459V44.2244L189.817 41.2646Z" fill="#CDE9F9"/>
<path d="M189.817 43.4959V44.7174L194.927 47.6772V46.4557L189.817 43.4959Z" fill="#CDE9F9"/>
<path d="M189.817 45.7273V46.9492L194.927 49.909V48.6875L189.817 45.7273Z" fill="#CDE9F9"/>
<path d="M228.38 71.5177V70.2962L196.844 52.0289V53.2509L228.38 71.5177Z" fill="#CDE9F9"/>
<path d="M189.817 47.959V49.1802L194.927 52.1404V50.9185L189.817 47.959Z" fill="#CDE9F9"/>
<path d="M189.817 50.1904V51.412L194.927 54.3717V53.1502L189.817 50.1904Z" fill="#CDE9F9"/>
<path d="M228.38 73.7491V72.5276L196.844 54.2607V55.4822L228.38 73.7491Z" fill="#CDE9F9"/>
<path d="M189.817 56.885V58.1061L194.927 61.0659V59.8444L189.817 56.885Z" fill="#CDE9F9"/>
<path d="M189.817 59.1163V60.3379L194.927 63.2977V62.0761L189.817 59.1163Z" fill="#CDE9F9"/>
<path d="M189.817 68.0419V69.2635L194.927 72.2233V71.0017L189.817 68.0419Z" fill="#CDE9F9"/>
<path d="M189.817 70.2737V71.4952L194.927 74.4547V73.2331L189.817 70.2737Z" fill="#CDE9F9"/>
<path d="M216.739 85.8681L196.844 74.3439V75.5654L216.739 87.0896V85.8681Z" fill="#CDE9F9"/>
<path d="M217.787 86.4752V87.6971L228.38 93.8323V92.6112L217.787 86.4752Z" fill="#CDE9F9"/>
<path d="M206.839 77.902L196.844 72.1125V73.334L206.839 79.1239V77.902Z" fill="#CDE9F9"/>
<path d="M207.888 78.5098V79.7313L228.379 91.6009V90.3794L207.888 78.5098Z" fill="#CDE9F9"/>
<path d="M225.684 82.1236V83.3451L228.379 84.9064V83.6853L225.684 82.1236Z" fill="#CDE9F9"/>
<path d="M211.014 71.3943L196.844 63.1866V64.4081L211.014 72.6162V71.3943Z" fill="#CDE9F9"/>
<path d="M205.207 50.1795L196.844 45.3348V46.5567L205.207 51.401V50.1795Z" fill="#CDE9F9"/>
<path d="M218.917 58.1207L206.256 50.7869V52.0088L218.917 59.3426V58.1207Z" fill="#CDE9F9"/>
<path d="M211.538 56.0782L202.624 50.9146V52.1361L211.538 57.2997V56.0782Z" fill="#CDE9F9"/>
<path d="M220.891 61.4956L212.587 56.6852V57.9072L220.891 62.7171V61.4956Z" fill="#CDE9F9"/>
<path d="M221.94 62.103V63.3246L228.38 67.055V65.8334L221.94 62.103Z" fill="#CDE9F9"/>
<path d="M198.491 50.7522V51.9737L205.208 55.8638V54.6422L198.491 50.7522Z" fill="#CDE9F9"/>
<path d="M225.752 66.5429L206.256 55.25V56.4715L225.752 67.7644V66.5429Z" fill="#CDE9F9"/>
<path d="M214.591 66.7718L201.85 59.3915V60.613L214.591 67.9933V66.7718Z" fill="#CDE9F9"/>
<path d="M225.752 73.2374L215.639 67.3789V68.6008L225.752 74.459V73.2374Z" fill="#CDE9F9"/>
<path d="M224.635 79.2847L212.062 72.0017V73.2232L224.635 80.5062V79.2847Z" fill="#CDE9F9"/>
<path d="M217.787 77.5496V78.7711L224.635 82.7376V81.5161L217.787 77.5496Z" fill="#CDE9F9"/>
<path d="M199.31 66.8464L196.844 65.4179V66.6394L199.31 68.0679V66.8464Z" fill="#CDE9F9"/>
<path d="M203.929 69.522V70.7436L216.739 78.1637V76.9422L203.929 69.522Z" fill="#CDE9F9"/>
<path d="M202.88 68.9146L200.358 67.4538V68.6753L202.88 70.1361V68.9146Z" fill="#CDE9F9"/>
<path d="M214.369 77.8006L200.358 69.6851V70.9066L214.369 79.0222V77.8006Z" fill="#CDE9F9"/>
<path d="M189.817 76.6737V77.8952L194.927 80.855V79.6335L189.817 76.6737Z" fill="#BD8AAE"/>
<path d="M189.817 78.9055V80.127L194.927 83.0868V81.8653L189.817 78.9055Z" fill="#BD8AAE"/>
<path d="M189.817 81.1365V82.3584L194.927 85.3182V84.0966L189.817 81.1365Z" fill="#BD8AAE"/>
<path d="M228.38 106.927V105.705L196.844 87.4384V88.6599L228.38 106.927Z" fill="#BD8AAE"/>
<path d="M189.817 83.3682V84.5897L194.927 87.5495V86.328L189.817 83.3682Z" fill="#BD8AAE"/>
<path d="M189.817 85.5996V86.8211L194.927 89.7809V88.5594L189.817 85.5996Z" fill="#BD8AAE"/>
<path d="M228.38 109.159V107.937L196.844 89.6698V90.8913L228.38 109.159Z" fill="#BD8AAE"/>
<path d="M189.817 92.2941V93.5157L194.927 96.4754V95.2539L189.817 92.2941Z" fill="#BD8AAE"/>
<path d="M189.817 94.5255V95.747L194.927 98.7068V97.4853L189.817 94.5255Z" fill="#BD8AAE"/>
<path d="M189.817 103.451V104.673L194.927 107.633V106.411L189.817 103.451Z" fill="#BD8AAE"/>
<path d="M189.817 105.683V106.904L194.927 109.864V108.643L189.817 105.683Z" fill="#BD8AAE"/>
<path d="M216.739 121.277L196.844 109.753V110.975L216.739 122.499V121.277Z" fill="#BD8AAE"/>
<path d="M217.787 121.885V123.106L228.38 129.241V128.02L217.787 121.885Z" fill="#BD8AAE"/>
<path d="M206.839 113.312L196.844 107.522V108.743L206.839 114.533V113.312Z" fill="#BD8AAE"/>
<path d="M207.888 113.919V115.14L228.379 127.01V125.788L207.888 113.919Z" fill="#BD8AAE"/>
<path d="M225.684 117.533V118.754L228.379 120.315V119.094L225.684 117.533Z" fill="#BD8AAE"/>
<path d="M211.014 106.804L196.844 98.5957V99.8172L211.014 108.025V106.804Z" fill="#BD8AAE"/>
<path d="M205.207 85.589L196.844 80.7443V81.9658L205.207 86.8105V85.589Z" fill="#BD8AAE"/>
<path d="M218.917 93.5303L206.256 86.196V87.4179L218.917 94.7518V93.5303Z" fill="#BD8AAE"/>
<path d="M211.538 91.4872L202.624 86.3237V87.5452L211.538 92.7087V91.4872Z" fill="#BD8AAE"/>
<path d="M220.891 96.9047L212.587 92.0947V93.3162L220.891 98.1262V96.9047Z" fill="#BD8AAE"/>
<path d="M221.94 97.5121V98.734L228.38 102.464V101.242L221.94 97.5121Z" fill="#BD8AAE"/>
<path d="M198.491 86.1613V87.3828L205.208 91.2732V90.0517L198.491 86.1613Z" fill="#BD8AAE"/>
<path d="M225.752 101.952L206.256 90.6592V91.8807L225.752 103.174V101.952Z" fill="#BD8AAE"/>
<path d="M214.591 102.181L201.85 94.8006V96.0221L214.591 103.403V102.181Z" fill="#BD8AAE"/>
<path d="M225.752 108.647L215.639 102.788V104.01L225.752 109.868V108.647Z" fill="#BD8AAE"/>
<path d="M224.635 114.694L212.062 107.411V108.633L224.635 115.915V114.694Z" fill="#BD8AAE"/>
<path d="M217.787 112.959V114.18L224.635 118.147V116.925L217.787 112.959Z" fill="#BD8AAE"/>
<path d="M199.31 102.256L196.844 100.827V102.049L199.31 103.477V102.256Z" fill="#BD8AAE"/>
<path d="M203.929 104.931V106.153L216.739 113.573V112.351L203.929 104.931Z" fill="#BD8AAE"/>
<path d="M202.88 104.324L200.358 102.863V104.084L202.88 105.545V104.324Z" fill="#BD8AAE"/>
<path d="M214.369 113.21L200.358 105.094V106.316L214.369 114.432V113.21Z" fill="#BD8AAE"/>
<path d="M198.541 115.647C198.409 115.782 198.346 116.043 198.346 116.429L198.341 118.141V118.185C198.34 118.51 198.236 118.685 198.029 118.708C197.822 118.731 197.526 118.631 197.144 118.41L197.141 119.601C197.523 119.823 197.819 120.066 198.025 120.332C198.231 120.599 198.333 120.909 198.332 121.263L198.328 122.954C198.326 123.34 198.388 123.673 198.518 123.963C198.644 124.252 198.847 124.524 199.126 124.785C199.404 125.046 199.789 125.317 200.278 125.601L200.281 124.473C199.964 124.277 199.751 124.086 199.638 123.897C199.525 123.705 199.471 123.482 199.471 123.224L199.476 121.603V121.54C199.478 120.893 199.124 120.306 198.409 119.768V119.704C199.115 119.994 199.471 119.794 199.483 119.11L199.487 117.489C199.488 117.227 199.547 117.07 199.661 117.013C199.775 116.956 199.989 117.016 200.302 117.186L200.305 116.058C199.823 115.778 199.441 115.605 199.159 115.54C198.872 115.473 198.669 115.51 198.541 115.647Z" fill="#CDE9F9"/>
<path d="M205.201 122.866C205.001 122.607 204.899 122.313 204.9 121.987V121.943L204.904 120.231C204.906 119.68 204.762 119.206 204.467 118.809C204.176 118.412 203.67 118.008 202.947 117.589L202.944 118.717C203.257 118.91 203.474 119.099 203.587 119.288C203.7 119.474 203.754 119.7 203.754 119.962L203.749 121.582C203.761 122.281 204.121 122.896 204.826 123.424V123.487C204.475 123.347 204.206 123.319 204.023 123.408C203.837 123.498 203.743 123.703 203.742 124.028V124.076L203.737 125.696C203.737 125.958 203.681 126.121 203.567 126.178C203.453 126.231 203.236 126.174 202.923 126.004L202.92 127.131C203.639 127.548 204.145 127.727 204.442 127.672C204.735 127.615 204.884 127.312 204.886 126.756L204.891 125.064C204.891 124.711 204.995 124.52 205.196 124.489C205.399 124.46 205.692 124.558 206.081 124.783L206.084 123.592C205.696 123.367 205.403 123.127 205.201 122.866Z" fill="#CDE9F9"/>
<path d="M209.48 121.822C209.349 121.956 209.286 122.218 209.285 122.603L209.28 124.315V124.359C209.279 124.684 209.175 124.859 208.968 124.882C208.761 124.905 208.465 124.805 208.083 124.584L208.08 125.775C208.462 125.997 208.758 126.24 208.964 126.506C209.17 126.773 209.272 127.083 209.272 127.437L209.267 129.128C209.266 129.513 209.327 129.847 209.457 130.137C209.584 130.426 209.786 130.698 210.065 130.959C210.343 131.22 210.729 131.491 211.217 131.775L211.22 130.647C210.904 130.451 210.691 130.26 210.578 130.071C210.465 129.878 210.41 129.656 210.411 129.398L210.415 127.777V127.714C210.417 127.066 210.063 126.48 209.348 125.941L209.348 125.878C210.054 126.168 210.41 125.969 210.422 125.284L210.427 123.663C210.428 123.401 210.486 123.244 210.6 123.187C210.714 123.129 210.928 123.19 211.241 123.36L211.244 122.232C210.762 121.953 210.38 121.778 210.098 121.714C209.811 121.648 209.608 121.685 209.48 121.822Z" fill="#CDE9F9"/>
<path d="M216.14 129.04C215.94 128.781 215.838 128.487 215.839 128.161V128.118L215.844 126.406C215.845 125.854 215.702 125.381 215.406 124.983C215.114 124.587 214.609 124.182 213.886 123.763L213.883 124.891C214.196 125.085 214.413 125.274 214.526 125.463C214.639 125.648 214.693 125.875 214.693 126.137L214.688 127.757C214.7 128.456 215.06 129.07 215.765 129.599V129.662C215.414 129.522 215.145 129.493 214.962 129.582C214.776 129.673 214.682 129.877 214.681 130.203V130.251L214.677 131.871C214.676 132.134 214.62 132.296 214.507 132.353C214.393 132.407 214.176 132.349 213.863 132.179L213.859 133.307C214.579 133.724 215.085 133.902 215.382 133.847C215.675 133.79 215.824 133.487 215.825 132.931L215.83 131.239C215.831 130.886 215.935 130.696 216.135 130.664C216.338 130.635 216.631 130.733 217.02 130.958L217.023 129.767C216.635 129.542 216.342 129.301 216.14 129.04Z" fill="#CDE9F9"/>
<path d="M190.555 37.5282C190.555 38.0075 190.897 38.6003 191.315 38.8459C191.733 39.0915 192.075 38.896 192.075 38.4107C192.075 37.9255 191.733 37.3327 191.315 37.0931C190.897 36.8534 190.555 37.0489 190.555 37.5282Z" fill="#E7F6FD"/>
<path d="M192.992 38.9685C192.992 39.4478 193.334 40.0407 193.752 40.2862C194.17 40.5318 194.513 40.3363 194.513 39.8511C194.513 39.3659 194.17 38.773 193.752 38.5334C193.334 38.2937 192.992 38.4896 192.992 38.9685Z" fill="#E7F6FD"/>
<path d="M196.15 39.8514C195.732 39.6114 195.39 39.8073 195.39 40.2866C195.39 40.7659 195.732 41.3587 196.15 41.6043C196.568 41.8499 196.91 41.6544 196.91 41.1691C196.91 40.6839 196.568 40.0915 196.15 39.8514Z" fill="#E7F6FD"/>
<path d="M104.843 255.561C84.8349 243.96 84.8349 224.911 104.843 213.23C124.851 201.55 157.591 201.55 177.6 213.23C197.608 224.911 197.608 243.96 177.6 255.561C157.591 267.163 124.851 267.163 104.843 255.561Z" fill="#2A2F6D"/>
<path d="M115.364 178.178C120.436 178.178 124.548 171.741 124.548 163.8C124.548 155.859 120.436 149.422 115.364 149.422C110.292 149.422 106.181 155.859 106.181 163.8C106.181 171.741 110.292 178.178 115.364 178.178Z" fill="url(#paint5_linear_107_763)"/>
<path d="M166.297 145.068C164.893 146.984 163.253 148.835 161.337 150.578C144.486 165.902 126.603 165.847 118.03 164.653C115.292 164.272 113.458 161.553 114.179 158.956L115.223 155.201L114.057 159.397L114.168 158.99C114.731 156.928 116.735 155.643 118.905 155.95C125.707 156.911 140.761 157.085 155.178 143.975C164.543 135.457 165.567 123.19 165.412 117.027C165.356 114.817 166.933 112.968 169.133 112.704C171.797 112.384 174.228 114.481 174.298 117.156C174.467 123.623 173.549 135.173 166.297 145.068Z" fill="#CDE9F9"/>
<path d="M174.745 92.7487C174.745 92.7487 164.876 97.604 163.252 106.265C161.628 114.925 167.375 123.717 174.745 123.192C182.115 122.667 189.111 116.237 189.111 116.237L184.988 106.79C184.988 106.79 180.34 112.003 176.043 112.217C171.747 112.432 168.833 103.509 178.035 99.4412L174.745 92.7487Z" fill="url(#paint6_linear_107_763)"/>
<path d="M191.251 219.702V200.853L175.906 202.704C169.05 199.77 160.632 198.336 151.717 198.336V199.088C153.139 199.088 154.541 199.126 155.922 199.201C150.563 199.106 144.333 199.453 137.241 200.295C142.023 199.504 146.89 199.088 151.714 199.088L151.717 198.336C151.716 198.336 151.715 198.336 151.714 198.336C137.135 198.336 121.239 202.167 108.732 209.519C107.845 210.04 107 210.575 106.174 211.115L89.6914 213.104V235.55C89.6914 235.55 89.7075 235.556 89.7334 235.566C90.0164 241.662 93.6353 247.32 100.792 251.528C108.254 255.915 118.393 258.044 129.265 258.044C143.844 258.044 159.741 254.213 172.248 246.86C184.798 239.482 191.301 230.1 191.256 221.504C191.323 220.36 191.251 219.702 191.251 219.702ZM118.873 256.58C116.596 256.258 114.405 255.829 112.319 255.298C114.568 255.829 116.751 256.248 118.873 256.58ZM112.071 255.237C111.985 255.215 111.9 255.192 111.815 255.17C111.902 255.191 111.983 255.216 112.071 255.237Z" fill="#2A2F6D"/>
<path d="M185.131 177.503L187.2 191.792L173.71 217.092" stroke="#C4CACB" stroke-width="5" stroke-miterlimit="10"/>
<path d="M181.032 183.391C181.032 183.391 181.643 179.67 184.13 179.451C184.13 179.451 184.738 179.336 185.07 178.781C185.402 178.225 185.589 179.195 185.219 180.043C184.849 180.891 184.849 180.891 184.849 180.891C184.849 180.891 186.785 179.176 186.564 178.617C186.342 178.058 188.444 178.836 188.223 180.114C188.002 181.391 189.455 182.091 188.895 184.296C188.334 186.502 187.199 188.61 185.029 188.917C182.858 189.223 181.032 183.391 181.032 183.391Z" fill="#FDE0D9"/>
<path d="M140.837 142.288V134.551C140.837 130.036 138.596 126.235 130.788 128.495C122.98 130.756 121.324 136.452 123.927 142.288C125.048 144.801 126.253 147.058 127.783 148.723V155.988L137.263 155.309L136.828 151.255C142.521 149.647 140.837 142.288 140.837 142.288Z" fill="#FDE0D9"/>
<path d="M115.359 177.503L111.672 172.134C111.672 172.134 114.289 157.734 118.53 155.618C126.263 151.76 146.368 150.254 156.372 157.896C166.377 165.537 164.313 188.382 168.885 187.553C173.457 186.724 181.459 182.223 181.459 182.223C181.459 182.223 185.85 181.981 185.029 188.917C185.029 188.917 172.432 205.9 163.033 206.899C153.634 207.898 144.377 194.001 144.377 194.001L115.359 177.503Z" fill="#BD8AAE"/>
<path d="M178.12 216.742C178.12 216.742 166.698 170.789 159.429 169.203C153.219 167.847 113.041 166.416 101.468 166.027C99.1733 165.95 97.0067 167.133 95.8778 169.142C94.6697 171.291 93.63 174.428 94.4181 178.281C95.9634 185.835 106.668 207.219 100.652 223.412C100.651 223.411 126.328 238.3 178.12 216.742Z" fill="#222457"/>
<path d="M185.445 181.163C186.946 181.163 188.163 179.941 188.163 178.434C188.163 176.926 186.946 175.704 185.445 175.704C183.943 175.704 182.727 176.926 182.727 178.434C182.727 179.941 183.943 181.163 185.445 181.163Z" fill="#2A2F6D"/>
<path d="M137.668 139.009C137.668 139.009 137.281 137.898 136.341 137.732C135.4 137.565 135.511 142.231 136.341 143.231C137.171 144.231 137.668 143.731 137.668 143.731C137.668 143.731 137.613 146.452 135.953 147.674C134.294 148.896 135.807 150.729 131.926 150.729C128.044 150.729 123.066 149.174 121.351 147.397C119.636 145.619 118.627 138.731 122.782 135.065C122.782 135.065 121.295 126.955 131.031 125.844C140.765 124.734 141.983 125.289 143.089 123.956C144.195 122.623 144.084 121.845 144.084 121.845C144.084 121.845 144.862 125.844 143.699 126.733C143.699 126.733 144.422 127.4 144.862 125.844C144.862 125.844 145.394 129.622 143.688 132.288C141.983 134.954 138.332 137.288 137.668 139.009Z" fill="#2A2F6D"/>
<path d="M138.214 242.838C135.566 242.838 132.721 242.78 129.262 242.653C116.702 242.197 110.637 240.641 101.048 235.416C94.1763 231.672 90.355 225.965 90.2882 219.347H90.2549V82.2465L90.2871 82.2461C90.2647 77.8961 91.976 72.5728 94.9821 67.641C97.3889 63.6923 101.776 58.0927 109.004 53.8397C121.482 46.4987 137.579 45.8834 151.689 45.8826C164.348 45.8822 174.775 50.9047 179.864 53.8984C182.784 55.6162 185.146 57.6048 186.907 59.8089L186.319 60.265C186.845 60.9757 187.311 61.6462 187.744 62.3151L188.372 61.9221C189.48 63.79 190.196 65.7849 190.495 67.8779L190.522 68.0671L190.514 68.0892L190.53 68.2248C190.633 69.0786 190.669 69.939 190.636 70.7821L190.63 70.9414L190.669 71.0155V217.533L190.638 217.533C190.44 225.803 184.518 231.997 172.003 237.026C161.867 241.1 151.762 242.838 138.214 242.838Z" fill="url(#paint7_linear_107_763)"/>
<path d="M151.69 46.4743C164.21 46.4743 174.529 51.4455 179.566 54.4093C182.415 56.0857 184.718 58.0214 186.433 60.1629L185.846 60.6182C186.365 61.3198 186.824 61.9808 187.25 62.6383L187.877 62.2461C188.94 64.0423 189.625 65.9568 189.912 67.9631L189.918 68.01L189.913 68.0258L189.945 68.297C190.044 69.1192 190.079 69.9477 190.047 70.7597L190.035 71.0739L190.08 71.1598V216.571L190.047 216.571L190.049 217.534C189.85 225.531 184.046 231.551 171.784 236.478C161.721 240.521 151.681 242.246 138.214 242.246C135.572 242.246 132.735 242.188 129.282 242.062C116.831 241.609 110.822 240.069 101.328 234.896C94.6527 231.258 90.9408 225.734 90.8765 219.34H90.8431V82.2434L90.8753 82.243C90.8537 78.0002 92.5332 72.7905 95.4837 67.9497C97.8551 64.0589 102.178 58.5405 109.301 54.3498C121.652 47.0837 137.656 46.4747 151.688 46.4739H151.69V46.4743ZM151.69 45.2918C151.69 45.2918 151.689 45.2918 151.688 45.2918C137.109 45.2926 121.213 45.9717 108.707 53.3297C96.1572 60.7128 89.6542 73.6478 89.6982 82.2493L89.666 78.7053V222.006L89.6994 219.353C89.763 225.685 93.2342 231.831 100.767 235.936C110.533 241.257 116.842 242.793 129.24 243.244C132.33 243.357 135.312 243.429 138.214 243.429C150.089 243.429 160.67 242.218 172.223 237.576C185.4 232.281 191.03 225.782 191.227 217.547L191.226 216.569C191.235 216.898 191.235 217.224 191.227 217.547L191.258 235.122V70.8839C191.244 70.8579 191.238 70.8318 191.225 70.8058C191.26 69.913 191.221 69.0289 191.116 68.1547C191.192 67.9347 191.258 67.7948 191.258 67.7948H191.078C190.292 62.2962 186.703 57.2366 180.162 53.3888C172.701 48.9993 162.562 45.2918 151.69 45.2918ZM188.238 61.9934C187.824 61.3549 187.35 60.6679 186.792 59.913C187.331 60.5871 187.815 61.2808 188.238 61.9934Z" fill="#FDFEFE"/>
<g opacity="0.5">
<path opacity="0.5" d="M98.2129 228.876V85.4673C98.2129 85.4673 107.168 70.9552 122.56 72.5102C137.952 74.0652 140.436 82.876 140.436 82.876V242.506C140.436 242.506 141.031 235.927 138.53 237.275C130.954 241.355 114.431 247.422 104.253 230.076C102.804 227.605 99.361 232.37 98.2129 228.876Z" fill="url(#paint8_linear_107_763)"/>
</g>
<path d="M162.901 192.518C167.973 192.518 172.084 186.081 172.084 178.14C172.084 170.199 167.973 163.762 162.901 163.762C157.828 163.762 153.717 170.199 153.717 178.14C153.717 186.081 157.828 192.518 162.901 192.518Z" fill="url(#paint9_linear_107_763)"/>
<path d="M204.15 207.822C201.782 207.822 199.325 207.594 196.791 207.077C174.514 202.532 163.958 188.035 159.833 180.394C158.515 177.954 159.609 174.858 162.12 173.902L165.749 172.521L161.693 174.065L162.085 173.913C164.073 173.146 166.291 174.005 167.331 175.942C170.592 182.014 179.376 194.292 198.436 198.181C210.818 200.707 221.263 194.263 226.114 190.484C227.853 189.129 230.27 189.308 231.787 190.931C233.623 192.896 233.382 196.106 231.278 197.748C226.192 201.719 216.385 207.822 204.15 207.822Z" fill="#CDE9F9"/>
<path d="M234.424 174.156C234.424 174.156 224.555 179.011 222.931 187.672C221.307 196.332 227.053 205.124 234.424 204.599C241.794 204.074 248.789 197.645 248.789 197.645L244.667 188.197C244.667 188.197 240.018 193.41 235.722 193.625C231.426 193.839 228.511 184.916 237.714 180.848L234.424 174.156Z" fill="url(#paint10_linear_107_763)"/>
<path d="M191.258 222.05H190.514V239.108H191.258V222.05Z" fill="#2A2F6D"/>
<path d="M236.06 229.234H190.594V277.938H236.06V229.234Z" fill="url(#paint11_linear_107_763)"/>
<path d="M213.326 290.258C225.906 290.258 236.104 284.345 236.104 277.051C236.104 269.756 225.906 263.843 213.326 263.843C200.747 263.843 190.549 269.756 190.549 277.051C190.549 284.345 200.747 290.258 213.326 290.258Z" fill="#3C7FBE"/>
<path d="M213.326 242.872C225.906 242.872 236.104 236.959 236.104 229.665C236.104 222.371 225.906 216.458 213.326 216.458C200.747 216.458 190.549 222.371 190.549 229.665C190.549 236.959 200.747 242.872 213.326 242.872Z" fill="#17A1DB"/>
<path d="M210.141 216.637L210.134 215.427L210.131 216.547L210.138 217.757L210.141 216.637Z" fill="#2A2F6D"/>
<path d="M221.208 218.092L219.742 218.948L219.739 220.067L221.205 219.211L221.208 218.092Z" fill="#2A2F6D"/>
<path d="M204.154 218.948L202.679 218.092L202.676 219.212L204.151 220.067L204.154 218.948Z" fill="#2A2F6D"/>
<path d="M207.284 222.825C207.292 222.784 207.304 222.744 207.314 222.704C207.327 222.656 207.338 222.609 207.355 222.562C207.369 222.523 207.387 222.485 207.403 222.447C207.425 222.398 207.446 222.349 207.472 222.3C207.491 222.265 207.514 222.23 207.535 222.195C207.569 222.139 207.606 222.084 207.646 222.03C207.67 221.998 207.695 221.966 207.722 221.935C207.782 221.861 207.849 221.79 207.921 221.719C207.947 221.693 207.971 221.667 207.999 221.643C208.044 221.602 208.095 221.562 208.144 221.522C208.187 221.487 208.228 221.452 208.275 221.418C208.329 221.379 208.387 221.342 208.445 221.304C208.504 221.266 208.56 221.226 208.623 221.189C208.764 221.106 208.914 221.033 209.068 220.963C209.112 220.944 209.156 220.925 209.201 220.906C209.322 220.855 209.446 220.808 209.572 220.765C209.617 220.75 209.661 220.733 209.707 220.719C209.786 220.693 209.868 220.672 209.949 220.649C210.01 220.632 210.072 220.614 210.134 220.599C210.22 220.578 210.307 220.561 210.394 220.544C210.453 220.531 210.512 220.518 210.572 220.507C210.749 220.476 210.927 220.451 211.108 220.432C211.163 220.427 211.219 220.423 211.274 220.418C211.38 220.41 211.486 220.402 211.593 220.397C211.661 220.394 211.729 220.393 211.797 220.391C211.883 220.389 211.969 220.389 212.055 220.39C212.127 220.391 212.199 220.393 212.27 220.396C212.35 220.399 212.43 220.403 212.509 220.409C212.582 220.414 212.654 220.42 212.727 220.427C212.805 220.434 212.884 220.443 212.962 220.453C213.032 220.462 213.102 220.472 213.172 220.483C213.256 220.496 213.339 220.511 213.422 220.527C213.488 220.54 213.553 220.553 213.617 220.566C213.716 220.588 213.813 220.613 213.909 220.638C213.963 220.652 214.017 220.666 214.071 220.682C214.244 220.732 214.412 220.789 214.576 220.853C214.657 220.885 214.735 220.92 214.813 220.954C214.854 220.972 214.896 220.989 214.936 221.008C215.054 221.064 215.17 221.125 215.281 221.189C216.208 221.726 216.671 222.432 216.669 223.136L216.672 222.017C216.674 221.313 216.212 220.607 215.284 220.069C215.173 220.005 215.058 219.945 214.939 219.888C214.899 219.87 214.857 219.853 214.816 219.835C214.746 219.804 214.677 219.771 214.605 219.742C214.596 219.739 214.587 219.737 214.579 219.734C214.415 219.67 214.246 219.613 214.073 219.562C214.059 219.558 214.047 219.553 214.033 219.548C213.994 219.537 213.952 219.529 213.913 219.519C213.816 219.493 213.719 219.468 213.62 219.447C213.594 219.441 213.568 219.433 213.542 219.427C213.504 219.419 213.464 219.414 213.425 219.407C213.342 219.391 213.259 219.376 213.176 219.363C213.142 219.358 213.109 219.351 213.075 219.346C213.039 219.341 213.002 219.338 212.965 219.334C212.887 219.324 212.809 219.315 212.73 219.307C212.692 219.304 212.655 219.298 212.618 219.295C212.583 219.291 212.548 219.291 212.513 219.289C212.433 219.283 212.353 219.279 212.273 219.276C212.234 219.274 212.194 219.27 212.154 219.269C212.122 219.268 212.09 219.27 212.059 219.27C211.972 219.268 211.886 219.269 211.799 219.271C211.757 219.272 211.714 219.27 211.672 219.272C211.647 219.272 211.622 219.276 211.597 219.277C211.49 219.281 211.384 219.289 211.278 219.298C211.235 219.302 211.193 219.302 211.15 219.307C211.137 219.308 211.124 219.311 211.111 219.312C210.931 219.331 210.752 219.356 210.576 219.387C210.567 219.389 210.558 219.389 210.55 219.391C210.499 219.4 210.45 219.413 210.399 219.423C210.311 219.441 210.224 219.458 210.138 219.479C210.076 219.494 210.015 219.512 209.954 219.529C209.872 219.551 209.791 219.574 209.711 219.599C209.694 219.604 209.676 219.608 209.659 219.614C209.63 219.623 209.604 219.636 209.576 219.645C209.449 219.689 209.326 219.735 209.205 219.786C209.16 219.805 209.115 219.823 209.072 219.844C208.918 219.913 208.769 219.987 208.628 220.069C208.608 220.08 208.589 220.091 208.57 220.103C208.527 220.129 208.49 220.158 208.449 220.184C208.392 220.222 208.333 220.259 208.279 220.298C208.233 220.332 208.192 220.367 208.148 220.402C208.099 220.442 208.048 220.482 208.003 220.523C207.994 220.531 207.983 220.538 207.974 220.547C207.956 220.564 207.943 220.582 207.925 220.6C207.853 220.67 207.786 220.742 207.726 220.815C207.713 220.831 207.695 220.846 207.682 220.862C207.67 220.878 207.662 220.894 207.65 220.911C207.609 220.965 207.573 221.02 207.539 221.075C207.524 221.099 207.505 221.121 207.493 221.145C207.486 221.157 207.482 221.169 207.476 221.181C207.449 221.229 207.429 221.278 207.407 221.328C207.394 221.356 207.378 221.384 207.367 221.414C207.363 221.423 207.362 221.433 207.358 221.443C207.342 221.49 207.33 221.537 207.318 221.584C207.31 221.616 207.297 221.647 207.291 221.68C207.289 221.688 207.29 221.697 207.288 221.705C207.279 221.755 207.275 221.805 207.271 221.854C207.268 221.886 207.261 221.919 207.26 221.951C207.259 221.965 207.259 221.979 207.259 221.993L207.256 223.112C207.256 223.065 207.263 223.019 207.268 222.973C207.272 222.924 207.275 222.874 207.284 222.825Z" fill="#2A2F6D"/>
<path d="M221.198 223.049C221.176 223.116 221.15 223.183 221.124 223.25C221.106 223.296 221.086 223.342 221.066 223.387C221.048 223.429 221.028 223.472 221.007 223.515C220.985 223.56 220.962 223.605 220.938 223.65C220.916 223.692 220.893 223.733 220.869 223.774C220.839 223.826 220.807 223.878 220.774 223.93C220.749 223.967 220.725 224.006 220.699 224.044C220.663 224.097 220.624 224.149 220.585 224.202C220.559 224.236 220.534 224.271 220.506 224.306C220.429 224.403 220.348 224.499 220.261 224.593C220.25 224.606 220.237 224.619 220.224 224.631C220.147 224.714 220.066 224.795 219.981 224.875C219.915 224.938 219.848 225.001 219.777 225.062L219.773 226.182C219.832 226.131 219.889 226.08 219.945 226.028C219.957 226.017 219.967 226.005 219.979 225.994C220.063 225.914 220.144 225.834 220.221 225.752C220.233 225.739 220.246 225.726 220.259 225.713C220.346 225.618 220.427 225.522 220.503 225.425C220.51 225.417 220.518 225.409 220.524 225.401C220.545 225.374 220.562 225.347 220.582 225.32C220.621 225.268 220.661 225.215 220.697 225.163C220.723 225.125 220.747 225.087 220.771 225.048C220.804 224.997 220.837 224.945 220.867 224.893C220.877 224.876 220.889 224.859 220.898 224.842C220.912 224.818 220.923 224.793 220.936 224.769C220.96 224.724 220.983 224.679 221.005 224.634C221.026 224.591 221.046 224.548 221.064 224.506C221.084 224.46 221.104 224.415 221.122 224.37C221.13 224.349 221.139 224.329 221.147 224.309C221.165 224.262 221.181 224.215 221.197 224.168H223.276L223.279 223.049H221.198Z" fill="#2A2F6D"/>
<path d="M204.185 226.181L204.189 225.062C203.465 224.443 202.983 223.757 202.744 223.049H200.664L200.661 224.168H202.741C202.979 224.877 203.462 225.563 204.185 226.181Z" fill="#2A2F6D"/>
<path d="M217.246 226.539C216.996 226.637 216.739 226.726 216.478 226.809C216.334 226.855 216.186 226.893 216.039 226.934C215.901 226.972 215.766 227.014 215.625 227.048C215.475 227.084 215.322 227.114 215.169 227.145C215.028 227.175 214.888 227.207 214.745 227.233C214.43 227.289 214.111 227.336 213.789 227.372L213.786 228.492C214.108 228.456 214.426 228.408 214.741 228.352C214.756 228.349 214.772 228.348 214.788 228.345C214.917 228.322 215.042 228.29 215.17 228.263C215.321 228.232 215.473 228.203 215.622 228.167C215.763 228.133 215.9 228.091 216.038 228.052C216.184 228.012 216.332 227.973 216.475 227.928C216.492 227.922 216.51 227.919 216.527 227.913C216.771 227.835 217.009 227.749 217.243 227.657L218.718 228.513L221.248 227.036L221.252 225.917L218.721 227.393L217.246 226.539Z" fill="#2A2F6D"/>
<path d="M210.201 227.372C209.976 227.347 209.753 227.312 209.531 227.277C209.372 227.252 209.213 227.224 209.056 227.194C208.918 227.168 208.78 227.139 208.644 227.109C208.456 227.068 208.271 227.021 208.087 226.972C207.942 226.934 207.797 226.897 207.655 226.854C207.591 226.834 207.528 226.815 207.465 226.794C207.218 226.716 206.974 226.632 206.737 226.539C206.737 226.539 206.736 226.539 206.736 226.539L205.268 227.395L202.721 225.919L202.718 227.038L205.265 228.515L206.733 227.658C206.97 227.751 207.215 227.835 207.462 227.914C207.525 227.934 207.588 227.954 207.651 227.973C207.715 227.992 207.778 228.014 207.842 228.032C207.921 228.055 208.004 228.07 208.084 228.092C208.268 228.141 208.453 228.187 208.641 228.229C208.702 228.242 208.761 228.261 208.822 228.273C208.897 228.289 208.976 228.299 209.052 228.314C209.21 228.344 209.369 228.372 209.529 228.397C209.601 228.408 209.673 228.424 209.746 228.435C209.895 228.456 210.046 228.475 210.197 228.492L210.198 228.492L210.205 229.702H213.794L213.797 228.582H210.208L210.201 227.372Z" fill="#2A2F6D"/>
<path d="M218.722 227.394L217.246 226.539C216.185 226.957 215.008 227.236 213.79 227.372L213.797 228.582H210.207L210.201 227.372C208.982 227.235 207.801 226.957 206.735 226.539L205.267 227.395L202.72 225.919L204.188 225.062C203.465 224.443 202.983 223.757 202.744 223.049H200.664L200.652 220.961H202.732C202.963 220.252 203.44 219.568 204.154 218.948L202.679 218.092L205.209 216.616L206.685 217.471C207.748 217.054 208.924 216.774 210.141 216.637L210.134 215.427H213.723L213.73 216.637C214.949 216.774 216.127 217.053 217.196 217.471L218.661 216.616L221.208 218.093L219.743 218.948C220.464 219.568 220.949 220.253 221.188 220.962H223.267L223.279 223.049H221.199C220.968 223.758 220.494 224.444 219.777 225.062L221.253 225.918L218.722 227.394ZM208.648 223.942C210.492 225.012 213.47 225.01 215.303 223.941C217.135 222.872 217.127 221.14 215.283 220.07C213.439 219.001 210.459 219.001 208.627 220.07C206.794 221.139 206.804 222.873 208.648 223.942Z" fill="white"/>
<path d="M214.557 229.113L214.552 228.125L214.549 229.04L214.554 230.028L214.557 229.113Z" fill="#BD8AAE"/>
<path d="M223.599 230.302L222.401 231.001L222.398 231.916L223.596 231.217L223.599 230.302Z" fill="#BD8AAE"/>
<path d="M209.666 231.001L208.461 230.302L208.458 231.217L209.663 231.916L209.666 231.001Z" fill="#BD8AAE"/>
<path d="M212.223 234.169C212.229 234.136 212.239 234.103 212.247 234.07C212.258 234.031 212.267 233.992 212.28 233.954C212.292 233.923 212.306 233.892 212.32 233.86C212.337 233.82 212.355 233.78 212.376 233.74C212.392 233.711 212.41 233.683 212.428 233.654C212.456 233.609 212.485 233.564 212.518 233.519C212.538 233.493 212.559 233.467 212.58 233.441C212.63 233.381 212.684 233.323 212.743 233.265C212.765 233.244 212.784 233.223 212.807 233.203C212.844 233.169 212.885 233.137 212.925 233.104C212.96 233.076 212.994 233.047 213.032 233.019C213.076 232.987 213.124 232.957 213.171 232.927C213.219 232.895 213.265 232.863 213.317 232.832C213.432 232.765 213.554 232.705 213.679 232.648C213.715 232.632 213.752 232.616 213.788 232.601C213.887 232.56 213.987 232.521 214.091 232.486C214.128 232.473 214.164 232.46 214.202 232.448C214.266 232.427 214.333 232.409 214.399 232.391C214.449 232.377 214.5 232.362 214.551 232.35C214.62 232.333 214.691 232.319 214.762 232.304C214.811 232.294 214.859 232.283 214.908 232.275C215.052 232.249 215.198 232.229 215.345 232.214C215.391 232.209 215.436 232.206 215.482 232.202C215.568 232.195 215.655 232.188 215.742 232.185C215.797 232.182 215.853 232.181 215.909 232.18C215.979 232.179 216.049 232.178 216.119 232.179C216.178 232.18 216.237 232.182 216.296 232.184C216.361 232.187 216.426 232.19 216.491 232.194C216.55 232.198 216.609 232.203 216.668 232.209C216.733 232.216 216.797 232.223 216.86 232.231C216.918 232.238 216.975 232.246 217.032 232.255C217.101 232.266 217.169 232.278 217.236 232.291C217.289 232.301 217.342 232.312 217.395 232.324C217.476 232.341 217.555 232.361 217.634 232.382C217.678 232.394 217.722 232.405 217.766 232.418C217.907 232.459 218.045 232.506 218.178 232.558C218.244 232.583 218.308 232.612 218.372 232.64C218.405 232.655 218.44 232.668 218.472 232.684C218.569 232.73 218.664 232.78 218.754 232.832C219.512 233.271 219.89 233.848 219.888 234.423L219.891 233.509C219.893 232.933 219.514 232.357 218.757 231.918C218.666 231.865 218.571 231.816 218.474 231.77C218.442 231.754 218.408 231.741 218.374 231.726C218.317 231.7 218.261 231.674 218.202 231.65C218.195 231.648 218.188 231.646 218.18 231.643C218.047 231.591 217.909 231.545 217.768 231.503C217.756 231.5 217.746 231.495 217.735 231.492C217.702 231.483 217.669 231.476 217.636 231.468C217.558 231.447 217.478 231.427 217.397 231.409C217.376 231.404 217.355 231.398 217.334 231.393C217.302 231.387 217.27 231.383 217.238 231.376C217.171 231.363 217.103 231.352 217.034 231.341C217.007 231.337 216.98 231.331 216.953 231.327C216.923 231.322 216.893 231.32 216.863 231.316C216.799 231.308 216.735 231.301 216.671 231.295C216.64 231.292 216.61 231.287 216.579 231.285C216.55 231.282 216.522 231.282 216.493 231.28C216.428 231.275 216.363 231.272 216.298 231.269C216.265 231.268 216.233 231.265 216.2 231.264C216.174 231.263 216.149 231.265 216.123 231.264C216.052 231.264 215.981 231.264 215.911 231.265C215.876 231.266 215.841 231.264 215.807 231.266C215.786 231.266 215.766 231.269 215.745 231.27C215.658 231.273 215.571 231.28 215.484 231.287C215.45 231.29 215.415 231.29 215.38 231.294C215.369 231.295 215.359 231.298 215.348 231.299C215.201 231.314 215.055 231.334 214.911 231.36C214.904 231.361 214.897 231.361 214.89 231.363C214.848 231.37 214.808 231.381 214.767 231.389C214.695 231.404 214.624 231.418 214.553 231.435C214.502 231.448 214.453 231.462 214.403 231.476C214.336 231.494 214.269 231.512 214.204 231.533C214.19 231.537 214.175 231.541 214.162 231.545C214.138 231.553 214.117 231.563 214.094 231.571C213.991 231.607 213.89 231.645 213.791 231.686C213.754 231.702 213.718 231.717 213.682 231.733C213.556 231.79 213.434 231.85 213.319 231.917C213.303 231.926 213.288 231.936 213.272 231.945C213.237 231.966 213.207 231.989 213.173 232.011C213.126 232.042 213.078 232.072 213.034 232.104C212.996 232.132 212.963 232.161 212.927 232.19C212.887 232.222 212.846 232.254 212.809 232.288C212.802 232.294 212.793 232.301 212.785 232.307C212.77 232.321 212.76 232.337 212.746 232.35C212.686 232.408 212.632 232.467 212.583 232.527C212.572 232.54 212.558 232.552 212.547 232.565C212.537 232.578 212.53 232.592 212.521 232.605C212.488 232.649 212.458 232.694 212.43 232.739C212.419 232.758 212.403 232.777 212.392 232.796C212.387 232.805 212.384 232.815 212.379 232.825C212.357 232.865 212.34 232.905 212.322 232.945C212.312 232.969 212.299 232.992 212.29 233.015C212.287 233.023 212.286 233.031 212.283 233.039C212.269 233.078 212.26 233.116 212.25 233.154C212.243 233.181 212.233 233.206 212.227 233.233C212.226 233.24 212.226 233.247 212.225 233.254C212.218 233.294 212.215 233.335 212.211 233.375C212.209 233.402 212.203 233.428 212.202 233.454C212.202 233.465 212.202 233.477 212.202 233.488L212.199 234.402C212.199 234.365 212.205 234.327 212.209 234.289C212.213 234.249 212.216 234.209 212.223 234.169Z" fill="#BD8AAE"/>
<path d="M223.591 234.352C223.573 234.407 223.552 234.462 223.53 234.516C223.515 234.554 223.5 234.591 223.483 234.628C223.468 234.663 223.452 234.698 223.435 234.733C223.417 234.77 223.398 234.806 223.378 234.843C223.36 234.877 223.341 234.911 223.322 234.944C223.298 234.987 223.271 235.029 223.244 235.071C223.224 235.102 223.204 235.134 223.183 235.164C223.153 235.208 223.121 235.251 223.089 235.294C223.068 235.322 223.047 235.35 223.025 235.379C222.962 235.458 222.896 235.536 222.825 235.614C222.815 235.624 222.804 235.634 222.794 235.644C222.732 235.711 222.665 235.778 222.596 235.844C222.542 235.895 222.487 235.946 222.429 235.996L222.426 236.911C222.474 236.87 222.52 236.828 222.566 236.786C222.576 236.777 222.584 236.767 222.593 236.758C222.662 236.693 222.728 236.627 222.791 236.56C222.801 236.549 222.812 236.539 222.822 236.528C222.893 236.451 222.959 236.373 223.022 236.293C223.027 236.287 223.033 236.28 223.039 236.274C223.056 236.252 223.07 236.23 223.086 236.208C223.118 236.165 223.15 236.122 223.18 236.079C223.201 236.048 223.221 236.017 223.241 235.986C223.268 235.944 223.294 235.901 223.319 235.859C223.327 235.845 223.337 235.831 223.345 235.817C223.356 235.797 223.365 235.777 223.375 235.757C223.395 235.721 223.414 235.684 223.432 235.647C223.449 235.612 223.465 235.577 223.48 235.542C223.497 235.505 223.512 235.468 223.527 235.431C223.534 235.414 223.542 235.398 223.548 235.382C223.562 235.343 223.576 235.305 223.588 235.266H225.288L225.29 234.352H223.591Z" fill="#BD8AAE"/>
<path d="M209.691 236.911L209.694 235.996C209.103 235.491 208.708 234.931 208.513 234.352H206.814L206.812 235.266H208.511C208.706 235.845 209.1 236.406 209.691 236.911Z" fill="#BD8AAE"/>
<path d="M220.362 237.203C220.158 237.283 219.948 237.356 219.735 237.424C219.618 237.461 219.496 237.492 219.376 237.526C219.264 237.557 219.153 237.591 219.039 237.619C218.916 237.649 218.791 237.672 218.666 237.698C218.551 237.722 218.436 237.749 218.319 237.77C218.062 237.815 217.802 237.854 217.539 237.884L217.536 238.798C217.799 238.769 218.059 238.73 218.316 238.684C218.329 238.682 218.342 238.681 218.355 238.679C218.46 238.66 218.562 238.634 218.666 238.612C218.789 238.586 218.914 238.563 219.035 238.533C219.151 238.505 219.262 238.471 219.376 238.439C219.495 238.406 219.616 238.375 219.733 238.338C219.746 238.333 219.761 238.33 219.775 238.325C219.974 238.261 220.169 238.191 220.36 238.117L221.565 238.815L223.632 237.609L223.635 236.695L221.568 237.901L220.362 237.203Z" fill="#BD8AAE"/>
<path d="M214.606 237.884C214.422 237.863 214.24 237.835 214.058 237.806C213.928 237.785 213.798 237.763 213.67 237.738C213.557 237.716 213.445 237.694 213.333 237.669C213.18 237.635 213.028 237.597 212.878 237.557C212.76 237.525 212.641 237.494 212.525 237.459C212.473 237.444 212.422 237.428 212.371 237.411C212.169 237.347 211.969 237.278 211.776 237.203L211.775 237.202L210.576 237.902L208.495 236.695L208.492 237.61L210.573 238.816L211.772 238.116C211.966 238.193 212.166 238.261 212.368 238.326C212.42 238.342 212.471 238.358 212.522 238.374C212.575 238.39 212.625 238.407 212.678 238.422C212.743 238.441 212.811 238.453 212.876 238.471C213.026 238.511 213.177 238.549 213.331 238.583C213.381 238.594 213.429 238.609 213.479 238.619C213.541 238.632 213.605 238.64 213.667 238.652C213.796 238.677 213.926 238.699 214.056 238.72C214.116 238.729 214.174 238.742 214.233 238.75C214.356 238.768 214.479 238.783 214.602 238.797H214.603L214.609 239.785H217.541L217.544 238.871H214.611L214.606 237.884Z" fill="#BD8AAE"/>
<path d="M221.567 237.902L220.362 237.203C219.495 237.545 218.533 237.772 217.538 237.884L217.544 238.872H214.611L214.606 237.884C213.61 237.772 212.646 237.545 211.775 237.203L210.575 237.903L208.494 236.696L209.693 235.996C209.102 235.491 208.708 234.93 208.513 234.351H206.814L206.805 232.646H208.503C208.692 232.066 209.082 231.508 209.666 231.001L208.46 230.302L210.528 229.095L211.733 229.794C212.602 229.453 213.562 229.225 214.557 229.113L214.551 228.125H217.483L217.489 229.113C218.485 229.225 219.447 229.453 220.32 229.794L221.518 229.095L223.599 230.302L222.401 231.001C222.991 231.507 223.386 232.066 223.582 232.646H225.281L225.29 234.351H223.591C223.402 234.93 223.015 235.491 222.429 235.996L223.634 236.695L221.567 237.902ZM213.337 235.081C214.844 235.955 217.277 235.954 218.774 235.08C220.271 234.207 220.265 232.791 218.758 231.918C217.251 231.044 214.816 231.044 213.32 231.918C211.823 232.792 211.831 234.208 213.337 235.081Z" fill="white"/>
<path d="M317.168 229.45L281.39 208.716C280.296 208.083 279.04 208.111 277.809 208.859L277.808 208.858L269.952 213.414L273.605 218.387L274.966 219.954V255.55C274.966 257.669 276.091 259.627 277.918 260.688L304.696 276.236L304.97 277.731L310.434 285.42L318.838 280.459C318.853 280.45 318.867 280.443 318.88 280.434L318.937 280.402V280.397C319.687 279.927 320.218 279.1 320.218 278.085L320.219 234.752C320.219 232.564 319.056 230.542 317.168 229.45Z" fill="url(#paint12_linear_107_763)"/>
<path d="M308.805 234.387L272.605 213.41C270.838 212.387 268.632 213.668 268.632 215.716V259.231C268.632 261.35 269.757 263.309 271.585 264.37L307.779 285.385C309.59 286.436 311.855 285.124 311.855 283.023L311.856 239.69C311.856 237.501 310.692 235.479 308.805 234.387Z" fill="url(#paint13_linear_107_763)"/>
<path d="M310.487 285.389L310.434 285.421L310.43 285.414C310.448 285.404 310.469 285.4 310.487 285.389Z" fill="url(#paint14_linear_107_763)"/>
<path d="M311.857 283.022L311.857 239.689C311.857 238.959 311.686 238.266 311.443 237.601L319.84 232.744C320.063 233.385 320.22 234.052 320.22 234.752L320.22 278.085C320.22 279.1 319.689 279.927 318.938 280.396V280.401L318.882 280.434C318.868 280.442 318.854 280.45 318.839 280.459L310.507 285.378C311.295 284.917 311.857 284.068 311.857 283.022Z" fill="url(#paint15_linear_107_763)"/>
<path d="M313.053 300.217L312.753 298.583L285.741 282.9C284.1 281.947 283.082 280.174 283.082 278.273V242.455L281.592 240.74L278.345 236.318L285.311 232.279L285.319 232.283L285.642 232.088C286.194 231.752 286.749 231.582 287.291 231.582C287.751 231.582 288.2 231.706 288.624 231.952L324.401 252.685C326.102 253.669 327.158 255.504 327.158 257.476L327.157 300.808C327.157 301.558 326.791 302.218 326.153 302.618L326.067 302.672L318.128 307.359L313.053 300.217Z" fill="url(#paint16_linear_107_763)"/>
<path d="M287.29 232.173C287.647 232.173 287.997 232.271 288.329 232.464L324.108 253.198C325.626 254.076 326.569 255.715 326.569 257.476L326.568 300.808C326.568 301.35 326.303 301.827 325.842 302.117L325.786 302.152L325.769 302.162L318.294 306.575L313.609 299.981L313.382 298.745L313.283 298.208L312.813 297.935L286.036 282.388C284.577 281.541 283.671 279.964 283.671 278.273V242.677V242.233L283.381 241.899L282.052 240.369L279.21 236.499L285.07 233.1L285.085 233.118L285.947 232.593C286.405 232.315 286.858 232.173 287.29 232.173ZM287.29 230.991C286.65 230.991 285.99 231.185 285.336 231.583L285.335 231.582L277.479 236.137L281.132 241.111L282.493 242.677V278.273C282.493 280.393 283.619 282.351 285.446 283.412L312.223 298.959L312.497 300.454L317.961 308.143L326.365 303.182C326.38 303.174 326.394 303.166 326.408 303.158L326.464 303.125V303.121C327.214 302.651 327.745 301.824 327.745 300.809L327.746 257.476C327.746 255.288 326.583 253.266 324.695 252.174L288.917 231.441C288.404 231.143 287.855 230.991 287.29 230.991Z" fill="#FDFEFE"/>
<path d="M316.662 307.886C316.291 307.886 315.934 307.789 315.601 307.595L279.407 286.581C277.767 285.629 276.748 283.856 276.748 281.954V238.438C276.748 237.157 277.82 236.364 278.813 236.364C279.172 236.364 279.517 236.459 279.839 236.645L316.038 257.621C317.738 258.606 318.795 260.441 318.795 262.412L318.794 305.746C318.794 306.335 318.564 306.88 318.147 307.282C317.748 307.666 317.207 307.886 316.662 307.886Z" fill="url(#paint17_linear_107_763)"/>
<path d="M278.813 236.956C279.067 236.956 279.313 237.023 279.544 237.157L315.744 258.134C317.262 259.013 318.206 260.652 318.206 262.412L318.205 305.746C318.205 306.703 317.404 307.295 316.662 307.295C316.395 307.295 316.137 307.224 315.896 307.084L279.701 286.069C278.242 285.222 277.336 283.645 277.336 281.954V238.438C277.336 237.522 278.103 236.956 278.813 236.956ZM278.813 235.773C277.429 235.773 276.159 236.885 276.159 238.438V281.954C276.159 284.073 277.284 286.031 279.112 287.092L315.307 308.107C315.745 308.361 316.21 308.477 316.662 308.477C318.081 308.477 319.383 307.338 319.383 305.745L319.384 262.412C319.384 260.224 318.22 258.202 316.332 257.109L280.132 236.132C279.706 235.886 279.254 235.773 278.813 235.773Z" fill="#FDFEFE"/>
<path d="M318.013 308.112L317.96 308.143L317.956 308.136C317.974 308.126 317.995 308.123 318.013 308.112Z" fill="url(#paint18_linear_107_763)"/>
<path d="M318.013 308.112L318.013 308.112L318.013 308.112ZM318.013 308.112C317.995 308.123 317.974 308.127 317.956 308.137L317.96 308.143L318.013 308.112Z" fill="#FDFEFE"/>
<path d="M319.925 306.297C319.954 306.117 319.97 305.932 319.97 305.746L319.971 262.412C319.971 261.836 319.875 261.238 319.68 260.595L327.014 256.352C327.11 256.751 327.156 257.117 327.156 257.475L327.156 300.808C327.156 301.559 326.789 302.218 326.152 302.617L326.05 302.68L319.925 306.297Z" fill="url(#paint19_linear_107_763)"/>
<path d="M326.564 257.296C326.567 257.356 326.568 257.416 326.568 257.476L326.568 300.808C326.568 301.35 326.303 301.827 325.842 302.115L325.763 302.165L320.56 305.237L320.561 262.412C320.561 261.918 320.498 261.411 320.369 260.88L326.564 257.296ZM327.365 255.468L318.969 260.325C319.212 260.989 319.383 261.682 319.383 262.412L319.382 305.746C319.382 306.783 318.829 307.626 318.052 308.09L326.365 303.182C326.38 303.174 326.394 303.166 326.408 303.157L326.464 303.125V303.12C327.214 302.651 327.745 301.824 327.745 300.808L327.746 257.476C327.746 256.775 327.589 256.109 327.365 255.468ZM318.052 308.09L318.032 308.101C318.039 308.097 318.046 308.093 318.052 308.09Z" fill="#FDFEFE"/>
<path d="M297.185 259.916C297.183 260.432 297.097 260.764 296.937 260.932C296.771 261.092 296.516 261.074 296.168 260.872C295.918 260.728 295.659 260.529 295.387 260.272L295.382 262.006C295.645 262.284 295.998 262.549 296.446 262.808C296.922 263.084 297.35 263.196 297.724 263.14C298.101 263.087 298.389 262.862 298.593 262.464C298.802 262.067 298.907 261.519 298.909 260.817L298.939 250.453L297.215 249.454L297.185 259.916Z" fill="white"/>
<path d="M301.986 260.229L304.402 261.629L304.927 264.634L306.655 265.636L304.387 253.569L302.047 252.212L299.723 261.616L301.446 262.615L301.986 260.229ZM303.004 255.592C303.09 255.136 303.162 254.715 303.215 254.326C303.238 254.542 303.298 254.984 303.4 255.653C303.502 256.317 303.567 256.735 303.595 256.904L304.082 259.674L302.335 258.661C302.693 257.067 302.918 256.049 303.004 255.592Z" fill="white"/>
<path d="M310.843 268.063L313.054 258.637L311.32 257.632L310.101 263.463C309.962 264.101 309.852 264.832 309.76 265.661C309.654 264.56 309.553 263.706 309.442 263.081L308.25 255.852L306.517 254.847L308.653 266.794L310.843 268.063Z" fill="white"/>
<path d="M314.577 270.229L315.117 267.842L317.529 269.24L318.053 272.244L319.787 273.249L317.514 261.18L315.178 259.826L312.854 269.23L314.577 270.229ZM316.13 263.204C316.216 262.747 316.288 262.326 316.346 261.94C316.365 262.152 316.425 262.595 316.527 263.264C316.629 263.928 316.698 264.349 316.726 264.518L317.213 267.288L315.461 266.272C315.824 264.68 316.044 263.66 316.13 263.204Z" fill="white"/>
<path d="M312.801 273.945L299.723 266.339V267.007L312.801 274.613V273.945Z" fill="white"/>
<path d="M299.723 268.32L319.787 279.974V279.305L299.723 267.651V268.32Z" fill="white"/>
<path d="M313.676 275.108L319.787 278.662V277.994L313.676 274.44V275.108Z" fill="white"/>
<path d="M312.801 276.505L299.723 268.899V269.567L312.801 277.173V276.505Z" fill="white"/>
<path d="M299.723 270.879L319.787 282.533V281.865L299.723 270.211V270.879Z" fill="white"/>
<path d="M313.676 277.668L319.787 281.222V280.553L313.676 277V277.668Z" fill="white"/>
<path d="M312.801 280.203L299.723 272.597V273.266L312.801 280.871V280.203Z" fill="white"/>
<path d="M299.723 274.578L319.787 286.232V285.564L299.723 273.909V274.578Z" fill="white"/>
<path d="M313.676 281.366L319.787 284.92V284.252L313.676 280.698V281.366Z" fill="white"/>
<path d="M312.801 282.763L299.723 275.157V275.825L312.801 283.431V282.763Z" fill="white"/>
<path d="M299.723 277.137L319.787 288.791V288.123L299.723 276.469V277.137Z" fill="white"/>
<path d="M313.676 283.926L319.787 287.48V286.812L313.676 283.258V283.926Z" fill="white"/>
<path d="M312.801 286.462L299.723 278.855V279.524L312.801 287.129V286.462Z" fill="white"/>
<path d="M299.723 280.836L319.787 292.49V291.822L299.723 280.168V280.836Z" fill="white"/>
<path d="M313.676 287.624L319.787 291.178V290.51L313.676 286.956V287.624Z" fill="white"/>
<path d="M312.801 289.021L299.723 281.415V282.083L312.801 289.689V289.021Z" fill="white"/>
<path d="M299.723 283.395L319.787 295.049V294.382L299.723 282.727V283.395Z" fill="white"/>
<path d="M313.676 290.184L319.787 293.738V293.07L313.676 289.516V290.184Z" fill="white"/>
<path d="M312.801 292.719L299.723 285.114V285.782L312.801 293.388V292.719Z" fill="white"/>
<path d="M299.723 287.093L319.787 298.748V298.08L299.723 286.426V287.093Z" fill="white"/>
<path d="M313.676 293.883L319.787 297.436V296.768L313.676 293.214V293.883Z" fill="white"/>
<path d="M312.801 295.279L299.723 287.673V288.341L312.801 295.947V295.279Z" fill="white"/>
<path d="M299.723 289.654L319.787 301.308V300.639L299.723 288.985V289.654Z" fill="white"/>
<path d="M313.676 296.442L319.787 299.996V299.328L313.676 295.774V296.442Z" fill="white"/>
<g opacity="0.46">
<path opacity="0.46" d="M278.801 305.686L211.061 344.858C208.494 346.343 205.288 344.482 205.288 341.507V320.45C205.288 319.067 206.024 317.789 207.218 317.098L274.958 277.926C277.525 276.441 280.73 278.302 280.73 281.277V302.334C280.73 303.718 279.995 304.996 278.801 305.686Z" fill="#CDE9F9"/>
</g>
<g opacity="0.46">
<path opacity="0.46" d="M362.522 273.197L294.782 312.37C292.214 313.855 289.009 311.993 289.009 309.018V287.961C289.009 286.578 289.744 285.3 290.938 284.61L358.678 245.437C361.246 243.952 364.451 245.814 364.451 248.789V269.846C364.451 271.229 363.716 272.507 362.522 273.197Z" fill="#CDE9F9"/>
</g>
<g opacity="0.46">
<path opacity="0.46" d="M368.855 230.72L301.115 269.893C298.547 271.378 295.342 269.516 295.342 266.541V245.484C295.342 244.101 296.077 242.823 297.271 242.133L365.011 202.96C367.579 201.475 370.784 203.336 370.784 206.312V227.368C370.784 228.752 370.048 230.029 368.855 230.72Z" fill="#CDE9F9"/>
</g>
<defs>
<linearGradient id="paint0_linear_107_763" x1="180.295" y1="138.67" x2="353.845" y2="138.67" gradientUnits="userSpaceOnUse">
<stop stop-color="#21409A"/>
<stop offset="0.9984" stop-color="#29ABE2" stop-opacity="0"/>
</linearGradient>
<linearGradient id="paint1_linear_107_763" x1="244.033" y1="145.095" x2="346.877" y2="145.095" gradientUnits="userSpaceOnUse">
<stop offset="0.5191" stop-color="#21285A"/>
<stop offset="0.7064" stop-color="#21295A" stop-opacity="0.6104"/>
<stop offset="0.7739" stop-color="#222D5E" stop-opacity="0.4701"/>
<stop offset="0.822" stop-color="#233463" stop-opacity="0.37"/>
<stop offset="0.861" stop-color="#253E6B" stop-opacity="0.2891"/>
<stop offset="0.8943" stop-color="#274A77" stop-opacity="0.2198"/>
<stop offset="0.9238" stop-color="#2A5986" stop-opacity="0.1584"/>
<stop offset="0.9505" stop-color="#2E6D9A" stop-opacity="0.1029"/>
<stop offset="0.975" stop-color="#2F85B5" stop-opacity="0.0519"/>
<stop offset="0.9969" stop-color="#2CA5D9" stop-opacity="0.01"/>
<stop offset="1" stop-color="#29ABE2" stop-opacity="0"/>
</linearGradient>
<linearGradient id="paint2_linear_107_763" x1="244.317" y1="119.938" x2="276.711" y2="119.938" gradientUnits="userSpaceOnUse">
<stop offset="0.0607" stop-color="#28A8E0"/>
<stop offset="0.9984" stop-color="#29ABE2" stop-opacity="0"/>
</linearGradient>
<linearGradient id="paint3_linear_107_763" x1="193.003" y1="88.9095" x2="237.998" y2="88.9095" gradientUnits="userSpaceOnUse">
<stop offset="0.5191" stop-color="#21285A"/>
<stop offset="0.7064" stop-color="#21295A" stop-opacity="0.6104"/>
<stop offset="0.7739" stop-color="#222D5E" stop-opacity="0.4701"/>
<stop offset="0.822" stop-color="#233463" stop-opacity="0.37"/>
<stop offset="0.861" stop-color="#253E6B" stop-opacity="0.2891"/>
<stop offset="0.8943" stop-color="#274A77" stop-opacity="0.2198"/>
<stop offset="0.9238" stop-color="#2A5986" stop-opacity="0.1584"/>
<stop offset="0.9505" stop-color="#2E6D9A" stop-opacity="0.1029"/>
<stop offset="0.975" stop-color="#2F85B5" stop-opacity="0.0519"/>
<stop offset="0.9969" stop-color="#2CA5D9" stop-opacity="0.01"/>
<stop offset="1" stop-color="#29ABE2" stop-opacity="0"/>
</linearGradient>
<linearGradient id="paint4_linear_107_763" x1="186.723" y1="90.092" x2="231.717" y2="90.092" gradientUnits="userSpaceOnUse">
<stop stop-color="#21409A"/>
<stop offset="0.9984" stop-color="#29ABE2" stop-opacity="0"/>
</linearGradient>
<linearGradient id="paint5_linear_107_763" x1="106.181" y1="163.8" x2="124.548" y2="163.8" gradientUnits="userSpaceOnUse">
<stop stop-color="#6B385F"/>
<stop offset="0.4197" stop-color="#6F3B62" stop-opacity="0.7323"/>
<stop offset="0.5218" stop-color="#764268" stop-opacity="0.6035"/>
<stop offset="0.6937" stop-color="#8C567A" stop-opacity="0.3865"/>
<stop offset="0.9131" stop-color="#B5799B" stop-opacity="0.1096"/>
<stop offset="1" stop-color="#CC8DAE" stop-opacity="0"/>
</linearGradient>
<linearGradient id="paint6_linear_107_763" x1="162.976" y1="107.982" x2="189.111" y2="107.982" gradientUnits="userSpaceOnUse">
<stop stop-color="#6B385F"/>
<stop offset="0.4197" stop-color="#6F3B62" stop-opacity="0.7323"/>
<stop offset="0.5218" stop-color="#764268" stop-opacity="0.6035"/>
<stop offset="0.6937" stop-color="#8C567A" stop-opacity="0.3865"/>
<stop offset="0.9131" stop-color="#B5799B" stop-opacity="0.1096"/>
<stop offset="1" stop-color="#CC8DAE" stop-opacity="0"/>
</linearGradient>
<linearGradient id="paint7_linear_107_763" x1="90.2553" y1="144.361" x2="190.67" y2="144.361" gradientUnits="userSpaceOnUse">
<stop offset="0.0607" stop-color="#28A8E0"/>
<stop offset="0.9984" stop-color="#29ABE2" stop-opacity="0"/>
</linearGradient>
<linearGradient id="paint8_linear_107_763" x1="98.2128" y1="157.45" x2="140.498" y2="157.45" gradientUnits="userSpaceOnUse">
<stop offset="0.4247" stop-color="white"/>
<stop offset="1" stop-color="#2484C6" stop-opacity="0"/>
</linearGradient>
<linearGradient id="paint9_linear_107_763" x1="153.717" y1="178.14" x2="172.084" y2="178.14" gradientUnits="userSpaceOnUse">
<stop stop-color="#6B385F"/>
<stop offset="0.4197" stop-color="#6F3B62" stop-opacity="0.7323"/>
<stop offset="0.5218" stop-color="#764268" stop-opacity="0.6035"/>
<stop offset="0.6937" stop-color="#8C567A" stop-opacity="0.3865"/>
<stop offset="0.9131" stop-color="#B5799B" stop-opacity="0.1096"/>
<stop offset="1" stop-color="#CC8DAE" stop-opacity="0"/>
</linearGradient>
<linearGradient id="paint10_linear_107_763" x1="222.654" y1="189.389" x2="248.789" y2="189.389" gradientUnits="userSpaceOnUse">
<stop stop-color="#6B385F"/>
<stop offset="0.4197" stop-color="#6F3B62" stop-opacity="0.7323"/>
<stop offset="0.5218" stop-color="#764268" stop-opacity="0.6035"/>
<stop offset="0.6937" stop-color="#8C567A" stop-opacity="0.3865"/>
<stop offset="0.9131" stop-color="#B5799B" stop-opacity="0.1096"/>
<stop offset="1" stop-color="#CC8DAE" stop-opacity="0"/>
</linearGradient>
<linearGradient id="paint11_linear_107_763" x1="190.579" y1="253.586" x2="236.075" y2="253.586" gradientUnits="userSpaceOnUse">
<stop offset="0.0607" stop-color="#28A8E0"/>
<stop offset="0.9984" stop-color="#29ABE2" stop-opacity="0"/>
</linearGradient>
<linearGradient id="paint12_linear_107_763" x1="269.952" y1="246.844" x2="320.219" y2="246.844" gradientUnits="userSpaceOnUse">
<stop stop-color="#21409A"/>
<stop offset="0.9984" stop-color="#29ABE2" stop-opacity="0"/>
</linearGradient>
<linearGradient id="paint13_linear_107_763" x1="268.632" y1="249.402" x2="311.856" y2="249.402" gradientUnits="userSpaceOnUse">
<stop stop-color="#21409A"/>
<stop offset="0.9984" stop-color="#29ABE2" stop-opacity="0"/>
</linearGradient>
<linearGradient id="paint14_linear_107_763" x1="310.43" y1="285.405" x2="310.487" y2="285.405" gradientUnits="userSpaceOnUse">
<stop stop-color="#21409A"/>
<stop offset="0.9984" stop-color="#29ABE2" stop-opacity="0"/>
</linearGradient>
<linearGradient id="paint15_linear_107_763" x1="310.507" y1="259.061" x2="320.22" y2="259.061" gradientUnits="userSpaceOnUse">
<stop stop-color="#21409A"/>
<stop offset="0.9984" stop-color="#29ABE2" stop-opacity="0"/>
</linearGradient>
<linearGradient id="paint16_linear_107_763" x1="278.345" y1="269.471" x2="327.158" y2="269.471" gradientUnits="userSpaceOnUse">
<stop offset="0.0607" stop-color="#28A8E0"/>
<stop offset="0.9984" stop-color="#29ABE2" stop-opacity="0"/>
</linearGradient>
<linearGradient id="paint17_linear_107_763" x1="276.748" y1="272.125" x2="318.794" y2="272.125" gradientUnits="userSpaceOnUse">
<stop offset="0.0607" stop-color="#28A8E0"/>
<stop offset="0.9984" stop-color="#29ABE2" stop-opacity="0"/>
</linearGradient>
<linearGradient id="paint18_linear_107_763" x1="317.956" y1="308.128" x2="318.013" y2="308.128" gradientUnits="userSpaceOnUse">
<stop offset="0.0607" stop-color="#28A8E0"/>
<stop offset="0.9984" stop-color="#29ABE2" stop-opacity="0"/>
</linearGradient>
<linearGradient id="paint19_linear_107_763" x1="319.68" y1="281.325" x2="327.156" y2="281.325" gradientUnits="userSpaceOnUse">
<stop offset="0.0607" stop-color="#28A8E0"/>
<stop offset="0.9984" stop-color="#29ABE2" stop-opacity="0"/>
</linearGradient>
</defs>
</svg>
