<svg width="377" height="296" viewBox="0 0 377 296" fill="none" xmlns="http://www.w3.org/2000/svg">
<path d="M83.2534 286.631C61.4278 274.65 61.2192 254.925 82.79 242.798C104.36 230.67 139.11 230.569 160.012 242.573C180.913 254.576 181.121 274.301 160.475 286.406C139.829 298.511 105.078 298.612 83.2534 286.631Z" fill="#E7F6FD"/>
<path d="M186.581 209.628C169.468 200.234 169.304 184.768 186.218 175.258C203.131 165.749 230.379 165.669 246.767 175.081C263.156 184.493 263.32 199.96 247.131 209.451C230.942 218.943 203.695 219.022 186.581 209.628Z" fill="#E7F6FD"/>
<g opacity="0.46">
<path opacity="0.75" d="M89.6441 125.233L7.45 172.439C4.33485 174.228 0.445312 171.985 0.445312 168.4V143.025C0.445312 141.358 1.33781 139.818 2.78656 138.986L84.9806 91.7801C88.0958 89.9908 91.9853 92.2337 91.9853 95.819V121.194C91.9848 122.861 91.0923 124.401 89.6441 125.233Z" fill="#CDE9F9"/>
</g>
<g opacity="0.46">
<path opacity="0.75" d="M191.229 86.0815L109.035 133.287C105.92 135.077 102.03 132.834 102.03 129.249V103.874C102.03 102.207 102.923 100.666 104.371 99.8346L186.566 52.6286C189.681 50.8393 193.57 53.0823 193.57 56.6676V82.0425C193.57 83.7093 192.678 85.2497 191.229 86.0815Z" fill="#CDE9F9"/>
</g>
<g opacity="0.46">
<path opacity="0.75" d="M198.914 34.8931L116.72 82.0991C113.604 83.8884 109.715 81.6454 109.715 78.0601V52.6852C109.715 51.0184 110.607 49.478 112.056 48.6462L194.25 1.44026C197.365 -0.349061 201.255 1.89388 201.255 5.47918V30.8542C201.254 32.5214 200.362 34.0614 198.914 34.8931Z" fill="#CDE9F9"/>
</g>
<g opacity="0.49">
<path opacity="0.49" d="M258.025 11.1792V71.4843C258.025 74.4326 259.602 77.1567 262.162 78.6311L343.068 125.24C348.585 128.419 355.483 124.448 355.483 118.094V57.4504C355.483 54.493 353.896 51.7613 351.324 50.2903L270.417 4.01956C264.9 0.864141 258.025 4.83656 258.025 11.1792Z" fill="#E7F6FD"/>
</g>
<g opacity="0.49">
<path opacity="0.49" d="M249.815 17.9735V78.2786C249.815 81.2269 251.392 83.951 253.952 85.4254L334.858 132.035C340.375 135.213 347.273 131.242 347.273 124.888V64.2447C347.273 61.2873 345.686 58.5556 343.114 57.0845L262.207 10.8134C256.69 7.65841 249.815 11.6308 249.815 17.9735Z" fill="url(#paint0_linear_107_762)"/>
</g>
<path d="M311.06 53.022C307.277 50.7444 303.906 51.4332 302.673 53.3873C302.451 53.7393 301.888 53.4382 301.647 52.8207C300.379 49.5674 297.099 44.6174 293.371 42.3735C290.922 40.8986 288.695 40.6816 287.007 41.4952L286.998 41.4838L286.799 41.5978C286.714 41.6444 285.922 42.0952 285.841 42.1469L275.409 48.1267C275.409 48.1267 283.618 75.6363 283.846 76.848C284.075 78.0598 293.945 94.5427 293.945 94.5427L304.701 88.3739C304.826 88.3183 304.948 88.2528 305.061 88.1668L317.101 79.0753C319.313 77.3876 320.534 74.2279 320.534 70.1938C320.535 63.8596 316.293 56.1718 311.06 53.022Z" fill="url(#paint1_linear_107_762)"/>
<path d="M285.501 41.5031C285.56 41.4647 286.384 40.9954 286.472 40.9465L287.196 40.5327C289.075 39.8739 291.397 40.3375 293.724 41.7369C297.465 43.9898 300.871 48.8785 302.299 52.5431C302.311 52.5745 302.325 52.6025 302.337 52.6277C303.881 50.7053 307.433 49.9886 311.412 52.3854C316.83 55.6468 321.238 63.6348 321.238 70.1932C321.238 74.4724 319.915 77.8369 317.516 79.6675L305.474 88.7609C305.329 88.8707 305.165 88.9652 304.974 89.0493L293.699 95.5202L293.347 94.9307C291.016 91.0371 283.388 78.2359 283.154 76.9871C282.993 76.1278 278.031 59.3864 274.736 48.3436L274.565 47.7713L285.501 41.5031ZM284.537 76.7054C284.817 77.691 290.46 87.3231 294.19 93.5641L304.361 87.7297C304.518 87.6565 304.589 87.6157 304.647 87.572L316.688 78.48C318.712 76.9358 319.829 73.9922 319.829 70.1936C319.829 64.1032 315.737 56.6861 310.708 53.6584C307.243 51.5732 304.283 52.1702 303.262 53.7909C303.177 53.9254 303.062 54.0256 302.937 54.1049L307.183 60.297L300.051 67.9706L287.84 70.4881C287.84 70.4881 283.146 61.8579 283.146 60.1137C283.146 58.3695 285.105 51.0345 285.105 51.0345L295.314 44.7959C294.572 44.0995 293.802 43.4806 293.019 43.0094C290.876 41.7198 288.845 41.4177 287.303 42.1615L287.138 42.2413C287.046 42.2921 286.305 42.7135 286.205 42.7757L276.253 48.4809C277.635 53.116 284.32 75.5507 284.537 76.7054Z" fill="url(#paint2_linear_107_762)"/>
<path d="M311.005 53.1831C308.47 51.6564 306.136 51.4825 304.49 52.1091L304.471 52.0915L304.319 52.1799C303.994 52.3195 303.699 52.4886 303.438 52.6909L293.646 58.3686L288.574 74.9338L293.642 93.7789C293.77 94.2511 294.285 94.4771 294.698 94.2406L304.647 88.5344C304.772 88.4789 304.894 88.4133 305.008 88.3273L317.047 79.2358C319.259 77.5482 320.48 74.3885 320.48 70.3543C320.479 64.0211 316.238 56.3333 311.005 53.1831Z" fill="url(#paint3_linear_107_762)"/>
<path d="M293.06 57.868L303.096 52.0487C303.322 51.8663 303.67 51.664 304.051 51.5006L304.575 51.1918L304.666 51.2788C306.637 50.7012 309.046 51.1548 311.358 52.547C316.775 55.8084 321.184 63.7969 321.184 70.3548C321.184 74.634 319.861 77.9989 317.462 79.8291L305.42 88.9225C305.275 89.0322 305.112 89.1267 304.92 89.2108L295.038 94.8852C294.866 94.983 294.681 95.031 294.493 95.051L294.358 95.1374L294.336 95.0676C294.151 95.0661 293.968 95.03 293.792 94.9536C293.386 94.7759 293.083 94.4216 292.963 93.9784L287.84 74.9195L293.06 57.868ZM310.653 53.8195C308.537 52.5446 306.38 52.1741 304.731 52.7992L304.611 52.8448C304.289 52.9907 304.058 53.1265 303.859 53.2804L294.232 58.8693L289.31 74.9475L293.118 89.1106L298.643 84.3516L306.292 66.7239L316.863 60.5351C315.233 57.7126 313.053 55.264 310.653 53.8195Z" fill="url(#paint4_linear_107_762)"/>
<path d="M292.794 94.678C291.332 94.678 289.536 93.1589 288.426 90.9839L276.393 67.4011C274.184 63.0725 272.968 58.4849 272.968 54.4831C272.968 50.256 274.897 47.6302 278.001 47.6302C279.284 47.6302 280.674 48.0753 282.131 48.9526C285.654 51.0726 288.973 55.8572 290.308 59.2825C290.507 59.7936 290.911 60.1507 291.291 60.1507C291.486 60.1507 291.652 60.0581 291.757 59.89C292.432 58.8208 293.739 58.2075 295.343 58.2075C296.757 58.2075 298.305 58.6897 299.82 59.6017C304.98 62.7086 309.178 70.32 309.178 76.5696C309.178 80.532 307.993 83.6195 305.839 85.263L293.801 94.354C293.517 94.5687 293.178 94.678 292.794 94.678Z" fill="url(#paint5_linear_107_762)"/>
<path d="M278 47.3928L278.001 47.8678C279.223 47.8678 280.609 48.3134 282.009 49.156C285.486 51.2493 288.766 55.9803 290.086 59.3685C290.323 59.9784 290.808 60.3883 291.291 60.3883C291.567 60.3883 291.81 60.2529 291.959 60.0169C292.59 59.018 293.823 58.4451 295.343 58.4451C296.714 58.4451 298.219 58.9153 299.697 59.805C304.794 62.8735 308.941 70.3942 308.941 76.5696C308.941 80.4566 307.789 83.4771 305.697 85.0726L293.658 94.1641C293.415 94.3475 293.124 94.4405 292.794 94.4405C291.44 94.4405 289.693 92.9415 288.639 90.8762L276.606 67.2934C274.414 62.9975 273.206 58.4484 273.206 54.4831C273.206 50.4029 275.043 47.8678 278 47.8678V47.3928ZM278.001 47.3928C274.875 47.3923 272.729 49.9901 272.729 54.4831C272.729 58.5178 273.957 63.1514 276.181 67.5086L288.214 91.0913C289.402 93.4198 291.295 94.9151 292.794 94.9151C293.217 94.9151 293.609 94.7958 293.945 94.5422L305.985 85.4507C308.196 83.763 309.417 80.6038 309.417 76.5692C309.417 70.236 305.175 62.5481 299.943 59.3979C298.281 58.3976 296.699 57.9696 295.343 57.9696C293.611 57.9696 292.247 58.6674 291.556 59.7632C291.491 59.8658 291.397 59.9129 291.291 59.9129C291.032 59.9129 290.7 59.634 290.529 59.1961C289.262 55.9428 285.982 50.9928 282.254 48.7489C280.726 47.8289 279.281 47.3928 278.001 47.3928Z" fill="white"/>
<path d="M292.798 95.6504C292.549 95.6504 292.29 95.6186 292.025 95.554C290.385 95.1579 288.686 93.5804 287.592 91.4362L275.559 67.8539C273.281 63.3889 272.026 58.6398 272.026 54.4831C272.026 51.1462 273.142 48.6373 275.167 47.4175C277.194 46.1986 279.834 46.4447 282.607 48.1134C286.35 50.3663 289.754 55.255 291.183 58.9196C291.195 58.951 291.209 58.979 291.221 59.0042C292.765 57.0828 296.317 56.3655 300.296 58.7619C305.713 62.0242 310.121 70.0123 310.121 76.5697C310.121 80.8489 308.799 84.2139 306.4 86.044L306.397 86.0459L294.358 95.1379C293.908 95.478 293.377 95.6504 292.798 95.6504ZM278.004 48.1238C277.218 48.1238 276.5 48.3114 275.872 48.6895C274.3 49.6352 273.435 51.6934 273.435 54.4831C273.435 58.4038 274.63 62.9077 276.803 67.1637L288.836 90.7461C289.73 92.4988 291.107 93.825 292.343 94.1238C292.821 94.2387 293.223 94.1813 293.532 93.9471L305.571 84.8565C307.597 83.3095 308.713 80.3663 308.713 76.5692C308.713 70.4797 304.621 63.0626 299.592 60.034C296.127 57.9482 293.168 58.5448 292.146 60.167C291.931 60.5042 291.564 60.6747 291.184 60.642C290.646 60.5869 290.133 60.1275 289.879 59.4735C288.573 56.1247 285.334 51.4507 281.903 49.3859C280.512 48.548 279.183 48.1238 278.004 48.1238Z" fill="url(#paint6_linear_107_762)"/>
<path d="M257.526 197.977V205.534C257.526 207.396 258.522 209.116 260.139 210.047L282.674 223.025C284.717 224.201 287.235 224.201 289.278 223.025L373.585 174.474C375.202 173.542 376.199 171.821 376.199 169.958V162.045C376.199 162.045 346.779 162.815 340.572 165.6C334.364 168.386 257.526 197.977 257.526 197.977Z" fill="url(#paint7_linear_107_762)"/>
<path d="M258.875 200.285L280.619 212.848C283.933 214.762 288.021 214.765 291.338 212.855L374.515 164.955C376.76 163.662 376.76 160.429 374.514 159.137L355.694 148.311C351.151 145.698 345.556 145.7 341.015 148.315L258.878 195.616C257.077 196.653 257.075 199.245 258.875 200.285Z" fill="#E7F6FD"/>
<path d="M285.985 214.048C284.145 214.048 282.331 213.562 280.738 212.642L258.995 200.08C258.224 199.634 257.764 198.838 257.765 197.95C257.765 197.061 258.226 196.266 258.998 195.822L341.135 148.521C343.327 147.258 345.826 146.59 348.358 146.59C350.888 146.59 353.384 147.257 355.575 148.517L374.395 159.343C375.375 159.907 375.96 160.918 375.961 162.046C375.961 163.175 375.376 164.185 374.396 164.749L291.219 212.65C289.63 213.565 287.82 214.048 285.986 214.048C285.985 214.048 285.985 214.048 285.985 214.048Z" fill="url(#paint8_linear_107_762)"/>
<path d="M348.358 146.827C350.846 146.827 353.301 147.483 355.456 148.723L374.276 159.549C375.181 160.07 375.722 161.003 375.722 162.046C375.722 163.088 375.182 164.022 374.277 164.543L291.1 212.444C289.546 213.338 287.778 213.811 285.985 213.811C284.186 213.811 282.413 213.336 280.857 212.437L259.114 199.874C258.417 199.472 258.002 198.753 258.003 197.95C258.003 197.147 258.419 196.429 259.117 196.027L341.253 148.726C343.41 147.484 345.867 146.827 348.358 146.827ZM348.358 146.352C345.822 146.352 343.287 147.006 341.015 148.315L258.878 195.616C257.077 196.653 257.075 199.245 258.875 200.285L280.619 212.848C282.278 213.806 284.132 214.286 285.985 214.286C287.833 214.286 289.681 213.809 291.338 212.855L374.515 164.955C376.76 163.662 376.759 160.429 374.513 159.137L355.694 148.311C353.424 147.005 350.891 146.352 348.358 146.352Z" fill="white"/>
<path d="M130.527 84.6566C130.527 84.6566 127.967 84.2699 127.579 82.645C127.191 81.02 127.191 79.4724 126.881 78.7761C126.57 78.0797 127.8 77.8883 128.277 79.1627C128.754 80.4372 128.754 80.4372 128.754 80.4372C128.754 80.4372 128.486 75.1908 128.679 74.5201C128.872 73.8494 129.474 73.7183 129.639 74.7381C129.803 75.7579 129.803 76.5317 129.803 76.5317C129.803 76.5317 130.32 73.4708 130.527 73.3506C130.734 73.2305 131.199 72.9725 131.199 74.3652C131.199 75.7579 131.199 76.1189 131.199 76.1189C131.199 76.1189 131.572 73.6242 132.048 73.3506C132.523 73.077 132.647 73.7976 132.596 74.8811C132.544 75.9646 132.607 76.3256 132.607 76.3256C132.607 76.3256 133.165 73.695 133.682 73.7981C134.199 73.9012 134.147 75.5005 133.993 76.8414C133.837 78.1828 134.148 80.7616 134.354 81.4841C134.561 82.2061 135.13 83.3926 133.682 84.2695C132.233 85.1468 130.527 84.6566 130.527 84.6566Z" fill="#FDE0D9"/>
<path d="M78.1348 109.283C78.1348 109.283 75.5101 105.125 75.3744 103.595C75.2387 102.066 74.631 99.0225 75.3744 99.0225C76.1178 99.0225 76.5731 101.602 76.5731 101.602C76.5731 101.602 77.0284 99.0225 76.5731 97.9908C76.1178 96.9591 77.2037 95.6182 77.8761 97.1139C78.5486 98.6097 78.5486 100.57 78.5486 100.57C78.5486 100.57 79.583 98.5641 79.3244 96.4461C79.0658 94.328 80.5865 95.0044 80.8241 96.4461C81.0622 97.8877 81.3413 99.5383 81.3413 99.5383C81.3413 99.5383 81.7552 98.5066 81.9104 97.4749C82.0657 96.4432 83.1515 95.7725 82.9968 97.7846C82.8415 99.7962 82.51 101.138 83.012 101.757C83.514 102.375 85.1789 101.499 85.2518 100.673C85.3246 99.8476 86.3071 100.621 85.738 102.427C85.1689 104.232 84.9622 107.585 83.8245 107.946C82.6858 108.308 78.1348 109.283 78.1348 109.283Z" fill="#FDE0D9"/>
<path d="M124.248 103.149C123.753 106.493 121.581 109.562 119.857 111.528C118.643 112.929 117.647 113.775 117.647 113.775L114.98 126.7L114.699 128.063C114.699 128.063 115.494 130.029 116.39 133.312C117.638 137.853 119.081 144.911 118.885 152.753V152.787C118.747 158.335 117.795 164.272 115.371 169.982C111.37 179.41 102.645 182.93 94.3823 182.764C89.2864 182.664 84.3667 181.168 80.8377 178.798C78.1755 177.007 76.3086 174.722 75.7561 172.167C73.2749 160.71 82.0474 161.337 91.8915 143.695C95.9825 136.366 96.4016 131.245 95.5396 127.141C94.3347 121.365 90.5961 117.613 90.9914 112.587C91.6677 103.995 104.365 93.3405 113.251 93.16C120.119 93.0175 123.443 95.6395 124.21 99.4822C124.439 100.613 124.439 101.848 124.248 103.149Z" fill="#A17194"/>
<path d="M118.886 152.754V152.787C118.748 158.335 117.796 164.272 115.371 169.982C111.371 179.41 102.646 182.93 94.3831 182.764C87.9061 179.577 85.7153 170.571 93.0496 161.337C105.227 146.013 98.4598 125.175 101.203 119.242C103.941 113.31 111.261 113.186 111.261 113.186L112.995 118.934C112.995 118.934 113.886 121.964 114.981 126.7C115.433 128.647 115.919 130.88 116.391 133.312C117.515 139.097 118.562 145.99 118.886 152.754Z" fill="url(#paint9_linear_107_762)"/>
<path d="M124.248 103.149C123.753 106.493 121.581 109.562 119.857 111.528C119.434 110.341 119.434 108.564 119.434 108.564C119.434 108.564 122.12 102.242 121.758 98.6604C121.586 96.9362 123.096 97.5299 124.21 99.4822C124.439 100.613 124.439 101.848 124.248 103.149Z" fill="url(#paint10_linear_107_762)"/>
<path d="M80.6187 163.18C76.7706 168.39 78.6184 174.551 80.8377 178.798C78.1755 177.007 76.3086 174.722 75.7561 172.167C73.2749 160.71 82.0474 161.337 91.8915 143.695C95.9825 136.366 96.4016 131.245 95.5396 127.141C96.3397 128.794 96.9874 131.25 96.8588 134.808C96.5444 143.291 87.239 154.216 80.6187 163.18Z" fill="url(#paint11_linear_107_762)"/>
<path d="M119.303 261.002C119.303 261.002 123.722 268.49 125.988 270.895C128.254 273.3 120.007 276.199 116.448 270.895C112.89 265.591 108.753 264.594 112.373 261.002C115.993 257.41 119.303 261.002 119.303 261.002Z" fill="#222457"/>
<path d="M110.529 243.83C110.529 243.83 109.08 247.195 112.184 253.722C112.184 253.722 112.336 257.66 110.191 256.456C108.046 255.252 106.478 252.989 103.952 250.257C101.426 247.526 98.0729 244.446 104.818 240.078C111.563 235.709 110.529 243.83 110.529 243.83Z" fill="#222457"/>
<path d="M132.047 174.357C132.047 174.357 145.246 197.762 145.246 203.167C145.246 207.365 120.959 233.43 114.752 241.217L109.948 246.156C109.282 246.148 103.87 244.842 105.132 239.8C105.132 239.8 123.722 211.317 126.13 202.648C128.539 193.978 117.884 180.95 117.884 180.95C117.884 180.95 119.22 172.6 132.047 174.357Z" fill="#222457"/>
<path d="M139.849 211.54C139.845 221.429 123.567 259.895 121.69 264.326C121.69 264.326 116.094 265.951 112.37 261.001C112.37 261.001 119.395 241.047 122.252 228.103C122.538 226.811 122.785 225.585 122.976 224.46C125.081 212.062 100.249 190.165 107.098 181.862C107.155 181.79 107.217 181.719 107.274 181.653C114.146 173.639 125.924 178.674 125.924 178.674C125.924 178.674 139.855 202.766 139.849 211.54Z" fill="#2A2F6D"/>
<path d="M122.976 224.459C125.081 212.062 100.249 190.164 107.098 181.861C107.155 181.79 107.217 181.719 107.274 181.652C108.908 182.066 110.198 182.773 110.198 182.773C110.198 182.773 110.717 186.716 113.922 191.566C117.132 196.411 124.99 206.728 125.095 216.532C125.152 222.118 123.6 225.889 122.252 228.103C122.538 226.811 122.786 225.585 122.976 224.459Z" fill="url(#paint12_linear_107_762)"/>
<path d="M100.85 136.233L122.948 123.506C122.948 123.506 128.961 119.297 130.828 109.985L131.25 106.812L129.27 83.934C129.27 83.934 131.613 82.0849 134.824 83.934C134.824 83.934 140.012 100.565 139.846 109.672C139.68 118.78 130.526 136.111 131.147 139.206C131.768 142.302 133.682 142.984 134.432 146.589C135.181 150.194 133.695 150.295 132.047 156.281C129.927 163.982 132.047 174.335 132.047 174.335C132.047 174.335 133.604 186.155 108.624 185.064L106.346 184.368C105.866 184.221 105.54 183.776 105.548 183.275L106.731 168.377V161.491L106.012 151.669C106.012 151.669 89.8503 146.209 84.6001 142.921C79.3499 139.631 80.411 125.646 78.7041 118.267C76.9973 110.887 77.4526 109.283 77.4526 109.283C77.4526 109.283 79.0147 105.935 82.1179 105.935C85.2212 105.935 85.2212 105.935 85.2212 105.935C85.2212 105.935 87.479 124.976 89.7636 129.848C92.0482 134.719 95.843 137.901 100.85 136.233Z" fill="#3C7FBE"/>
<path d="M114.88 185.054C113.003 185.153 110.927 185.163 108.622 185.063L106.346 184.37C105.864 184.222 105.541 183.776 105.545 183.272L106.731 168.376V161.489L106.012 151.671C106.012 151.671 89.8482 146.208 84.5999 142.921C80.9328 140.622 80.3423 133.117 79.7422 126.286C80.9614 129.578 82.7378 133.416 85.2524 136.884C91.2293 145.139 106.684 146.17 110.189 146.374C113.694 146.583 114.132 159.171 112.889 167.217C111.937 173.397 113.909 181.586 114.88 185.054Z" fill="#164998"/>
<path d="M128.459 116.72C127.44 119.627 125.558 124.363 123.801 125.588C121.215 127.393 117.905 131.312 117.905 131.312C117.905 131.312 114.648 134.566 112.633 134.461C110.614 134.357 100.851 136.233 100.851 136.233C100.851 136.233 100.87 136.219 100.903 136.2L122.949 123.508C122.949 123.508 126.025 121.356 128.459 116.72Z" fill="#253E84"/>
<path d="M132.049 156.283C129.925 163.983 132.049 174.333 132.049 174.333C132.049 174.333 133.33 184.075 114.88 185.054C113.004 185.153 110.928 185.163 108.623 185.063L106.346 184.37C105.865 184.222 105.541 183.776 105.546 183.272L106.732 168.376V161.489L106.013 151.671C106.013 151.671 89.8488 146.208 84.6005 142.921C80.9334 140.622 80.3428 133.117 79.7428 126.287C79.4808 123.332 79.2189 120.496 78.7045 118.268C76.9948 110.887 77.452 109.281 77.452 109.281C77.452 109.281 79.0141 105.933 82.1192 105.933C85.2196 105.933 85.2196 105.933 85.2196 105.933C85.2196 105.933 87.4771 124.976 89.7631 129.849C92.0491 134.718 95.7495 136.233 100.85 136.233C100.85 136.233 100.869 136.219 100.903 136.2L122.948 123.508C122.948 123.508 125.615 121.641 127.949 117.642C128.12 117.347 128.292 117.038 128.458 116.72C129.43 114.877 130.297 112.64 130.83 109.985L131.249 106.811L129.268 83.9355C129.268 83.9355 129.487 83.7645 129.878 83.5792C130.773 83.1517 132.587 82.6482 134.826 83.9355C134.826 83.9355 136.04 87.821 137.274 92.8655C138.588 98.2567 139.931 104.968 139.845 109.671C139.679 118.782 130.525 136.11 131.149 139.207C131.202 139.468 131.263 139.715 131.33 139.948C131.335 139.948 131.335 139.952 131.335 139.952C132.087 142.441 133.745 143.292 134.431 146.588C135.183 150.193 133.698 150.293 132.049 156.283Z" fill="url(#paint13_linear_107_762)"/>
<path d="M119.076 134.718C114.933 135.359 111.214 132.457 110.19 130.856V124.662C110.166 124.653 110.137 124.648 110.113 124.638C110.004 123.802 109.194 122.458 107.408 121.926C104.627 121.095 105.132 117.594 105.96 117.594C106.756 117.594 108.48 119.399 108.618 119.542C108.527 119.371 107.461 117.281 108.651 114.91C109.89 112.436 114.647 113.671 118.476 108.826C119.276 107.809 119.834 106.84 120.215 105.947C121.305 112.222 122.596 123.912 117.338 125.208V130.386C117.339 130.386 123.225 134.077 119.076 134.718Z" fill="#FDE0D9"/>
<g opacity="0.23">
<path opacity="0.23" d="M113.252 150.813C113.252 150.813 112.993 155.558 118.268 156.487C123.543 157.416 126.083 153.621 130.681 152.979C130.681 152.979 122.575 154.79 121.198 155.71C119.821 156.63 114.235 155.249 113.252 150.813Z" fill="white"/>
</g>
<path d="M131.15 139.206C131.202 139.468 131.264 139.715 131.331 139.947C130.745 139.268 129.864 137.387 128.926 132.347C127.268 123.474 138.027 119.123 137.817 104.793C137.741 99.4537 137.517 95.5967 137.274 92.8655C138.589 98.2567 139.932 104.968 139.846 109.671C139.679 118.781 130.526 136.109 131.15 139.206Z" fill="url(#paint14_linear_107_762)"/>
<g opacity="0.23">
<path opacity="0.23" d="M127.949 117.642C128.121 117.347 128.292 117.038 128.459 116.72C129.43 114.877 130.297 112.64 130.831 109.985L131.25 106.811L129.268 83.9355C129.268 83.9355 129.487 83.7645 129.878 83.5792C130.335 88.0632 131.888 103.225 132.05 105.42C132.207 107.605 130.049 115.989 127.949 117.642Z" fill="white"/>
</g>
<path d="M117.339 125.213V128.006C117.015 128.258 116.715 128.4 116.448 128.372C115.043 128.22 112.995 124.709 112.995 124.709C114.833 125.241 116.253 125.336 117.339 125.213Z" fill="#ECBFB9"/>
<path d="M115.787 99.3323C115.787 99.3323 119.717 105.626 109.684 110.062C99.6504 114.498 97.3748 117.802 97.892 128.375C97.892 128.375 93.5477 118.727 99.3403 112.538C105.132 106.348 115.89 104.388 115.787 99.3323Z" fill="url(#paint15_linear_107_762)"/>
<path d="M188.672 143.619C188.158 145.077 187.484 146.54 186.616 147.988C178.987 160.722 167.787 164.095 162.195 164.986C160.41 165.271 158.744 163.931 158.702 162.179L158.641 159.647L158.709 162.476L158.701 162.202C158.661 160.813 159.671 159.633 161.087 159.41C165.526 158.711 174.978 155.951 181.506 145.058C185.746 137.98 184.053 130.162 182.783 126.361C182.328 124.998 182.963 123.549 184.29 122.965C185.895 122.258 187.816 123.099 188.368 124.747C189.705 128.735 191.328 136.088 188.672 143.619Z" fill="#AECFDC"/>
<path d="M146.545 161.962C146.545 161.962 151.268 156.556 156.993 156.986C162.718 157.416 167.281 162.514 165.705 167.072C164.129 171.63 158.9 174.961 158.9 174.961L153.651 170.776C153.651 170.776 157.717 168.721 158.578 166.048C159.439 163.376 154.316 160.041 150.201 165.159L146.545 161.962Z" fill="#A17194"/>
<path d="M187.066 172.498C173.975 164.96 173.975 152.583 187.066 144.993C200.156 137.404 221.576 137.404 234.666 144.993C247.756 152.583 247.756 164.96 234.666 172.498C221.576 180.037 200.156 180.037 187.066 172.498Z" fill="#2A2F6D"/>
<path d="M189.265 161.648C176.718 155.109 176.718 144.374 189.265 137.792C201.812 131.21 222.344 131.21 234.891 137.792C247.438 144.375 247.438 155.11 234.891 161.648C222.344 168.186 201.812 168.186 189.265 161.648Z" fill="#2A2F6D"/>
<path d="M244.337 150.724H243.85V161.808H244.337V150.724Z" fill="#2A2F6D"/>
<path d="M244.333 149.198L239.499 141.631L234.293 138.153C229.808 136.247 224.3 135.315 218.468 135.315V135.803C219.398 135.803 220.315 135.829 221.219 135.877C217.713 135.815 213.637 136.041 208.997 136.588C212.125 136.074 215.31 135.803 218.466 135.803L218.468 135.315C218.467 135.315 218.467 135.315 218.466 135.315C208.928 135.315 198.528 137.804 190.345 142.581C189.765 142.92 189.212 143.267 188.672 143.618L177.889 144.91V159.496C177.889 159.496 177.899 159.499 177.916 159.505C178.102 163.467 180.469 167.143 185.151 169.878C190.033 172.728 196.666 174.111 203.78 174.111C213.318 174.111 223.718 171.622 231.9 166.845C240.111 162.05 244.366 155.954 244.336 150.369C244.38 149.625 244.333 149.198 244.333 149.198ZM196.98 173.16C195.49 172.951 194.056 172.673 192.692 172.327C194.164 172.673 195.592 172.945 196.98 173.16ZM192.53 172.287C192.474 172.273 192.418 172.258 192.362 172.244C192.42 172.258 192.472 172.274 192.53 172.287Z" fill="#2A2F6D"/>
<path d="M209.634 164.378C207.899 164.378 206.037 164.34 203.771 164.258C195.526 163.961 191.544 162.946 185.247 159.538C180.703 157.078 178.175 153.325 178.131 148.969H178.109V59.8852H178.131C178.116 57.0323 179.243 53.5449 181.224 50.3182C182.807 47.738 185.693 44.0791 190.449 41.3008C198.644 36.5118 209.199 36.1109 218.449 36.1105C226.766 36.1105 233.615 39.3861 236.957 41.3388C241.031 43.719 243.46 46.8968 243.983 50.5282L244.006 50.6863L244 50.702L244.007 50.7566C244.076 51.3205 244.099 51.8871 244.077 52.4415L244.074 52.5046L244.099 52.5507V147.793H244.079C243.947 153.233 240.043 157.3 231.794 160.592C225.144 163.246 218.517 164.378 209.634 164.378ZM241.224 45.515C241.57 45.9796 241.876 46.4175 242.162 46.8545L242.566 46.6037C242.286 46.1358 241.962 45.6722 241.602 45.2248L241.224 45.515Z" fill="url(#paint16_linear_107_762)"/>
<path d="M218.451 36.348C226.711 36.348 233.516 39.6037 236.837 41.5441C238.737 42.6541 240.273 43.9381 241.418 45.3602L241.033 45.6566C241.377 46.1179 241.68 46.552 241.962 46.9842L242.373 46.7292C243.092 47.9319 243.555 49.2158 243.748 50.5624L243.763 50.6636L243.758 50.6769L243.772 50.7857C243.838 51.3357 243.861 51.8896 243.84 52.4325L243.835 52.5584L243.862 52.6087V147.163L243.84 147.164L243.842 147.787C243.713 153.12 239.857 157.119 231.707 160.371C225.087 163.013 218.486 164.14 209.635 164.14C207.903 164.14 206.043 164.102 203.781 164.02C195.58 163.725 191.621 162.716 185.362 159.329C180.896 156.912 178.414 153.232 178.37 148.967H178.348V59.8843H178.369C178.355 57.0742 179.469 53.6328 181.427 50.4422C182.997 47.8853 185.856 44.2592 190.569 41.5056C198.713 36.7475 209.23 36.3485 218.449 36.348H218.451ZM218.451 35.873C218.45 35.873 218.45 35.873 218.449 35.873C208.911 35.8735 198.511 36.3148 190.329 41.0957C182.118 45.8932 177.864 54.2978 177.893 59.8867L177.872 57.5839V150.696L177.894 148.972C177.936 153.086 180.207 157.08 185.135 159.747C191.524 163.204 195.651 164.203 203.763 164.496C205.785 164.569 207.735 164.616 209.634 164.616C217.403 164.616 224.325 163.829 231.884 160.813C240.505 157.372 244.188 153.15 244.317 147.799L244.317 147.164C244.322 147.377 244.323 147.589 244.317 147.799L244.337 159.218V52.5018C244.328 52.4852 244.325 52.4681 244.316 52.451C244.338 51.871 244.313 51.2963 244.244 50.7282C244.294 50.5852 244.337 50.4945 244.337 50.4945H244.22C243.705 46.9216 241.357 43.6341 237.078 41.1342C232.196 38.2818 225.564 35.873 218.451 35.873ZM242.361 46.7249C242.091 46.3102 241.781 45.8637 241.416 45.373C241.769 45.811 242.084 46.2618 242.361 46.7249Z" fill="white"/>
<g opacity="0.5">
<path opacity="0.5" d="M243.702 149.544V56.3626C243.702 56.3626 237.843 46.9334 227.773 47.9437C217.703 48.954 216.078 54.6787 216.078 54.6787V158.401C216.078 158.401 216.203 160.933 217.839 161.808C222.796 164.459 230.396 163.259 241.992 154.198C243.705 152.86 242.951 151.814 243.702 149.544Z" fill="url(#paint17_linear_107_762)"/>
</g>
<path d="M234.004 138.664C237.323 138.664 240.013 134.482 240.013 129.322C240.013 124.163 237.323 119.98 234.004 119.98C230.686 119.98 227.996 124.163 227.996 129.322C227.996 134.482 230.686 138.664 234.004 138.664Z" fill="url(#paint18_linear_107_762)"/>
<path d="M201.047 116.491C201.824 117.828 202.759 119.141 203.882 120.403C213.754 131.497 225.388 132.732 231.049 132.57C232.856 132.518 234.242 130.893 233.957 129.163L233.545 126.665L234.006 129.457L233.962 129.186C233.743 127.815 232.53 126.842 231.097 126.886C226.605 127.024 216.802 126.067 208.356 116.575C202.869 110.408 203.074 102.412 203.612 98.4419C203.805 97.0188 202.911 95.7125 201.499 95.3852C199.789 94.9891 198.059 96.1714 197.824 97.8937C197.254 102.059 197.032 109.584 201.047 116.491Z" fill="#CDE9F9"/>
<path d="M198.741 82.3342C198.741 82.3342 194.417 88.0632 196.024 93.5604C197.631 99.0576 203.577 102.453 207.722 99.9714C211.866 97.4896 214.05 91.6974 214.05 91.6974L208.859 87.4419C208.859 87.4419 207.685 91.8356 205.242 93.2293C202.799 94.6229 198.467 90.3152 202.634 85.2393L198.741 82.3342Z" fill="#A17194"/>
<path d="M214.426 139.102L210.11 138.209V138.21C210.109 138.21 210.252 137.254 209.767 136.677C209.356 136.191 208.431 135.923 207.161 135.923C206.241 135.923 205.012 136.067 204.391 136.751C203.791 137.413 203.885 138.429 203.887 138.439L199.513 138.99C199.473 138.692 199.177 136.02 201.056 133.877C202.424 132.317 204.478 131.527 207.161 131.527C209.873 131.527 211.904 132.331 213.198 133.917C214.984 136.108 214.489 138.803 214.426 139.102Z" fill="white"/>
<path d="M191.155 138.198L187.87 137.518V137.519C187.869 137.519 187.978 136.791 187.609 136.352C187.296 135.982 186.592 135.778 185.625 135.778C184.925 135.778 183.99 135.888 183.517 136.409C183.06 136.913 183.131 137.686 183.132 137.694L179.803 138.113C179.773 137.886 179.547 135.852 180.978 134.221C182.019 133.034 183.583 132.432 185.625 132.432C187.689 132.432 189.236 133.044 190.22 134.252C191.58 135.919 191.203 137.97 191.155 138.198Z" fill="white"/>
<path d="M90.6156 206.789C90.6156 198.102 83.4709 191.464 74.6579 191.464C65.8449 191.464 58.7002 198.506 58.7002 207.193C58.7002 215.88 65.8449 222.922 74.6579 222.922C83.4714 222.922 90.6156 215.476 90.6156 206.789Z" fill="url(#paint19_linear_107_762)"/>
<path d="M82.4544 212.921C82.4472 212.911 82.441 212.906 82.441 212.906L79.4497 206.45C79.4497 206.04 77.2723 205.707 74.5862 205.707C71.9002 205.707 69.7227 206.04 69.7227 206.45L66.2175 212.859C66.1232 212.94 66.0732 213.024 66.0732 213.109C66.0732 213.847 69.7589 214.445 74.3052 214.445C78.8515 214.445 82.5372 213.847 82.5372 213.109C82.5358 213.045 82.5077 212.982 82.4544 212.921Z" fill="white"/>
<path d="M82.4415 212.906C81.8314 211.601 78.4819 204.423 78.0952 203.41C77.7804 202.585 77.7232 202.022 77.7147 201.784V197.344H77.7118C77.7132 197.336 77.7147 197.328 77.7147 197.321C77.7147 196.992 76.3464 196.726 74.6586 196.726C72.9707 196.726 71.6025 196.993 71.6025 197.321C71.6025 197.328 71.6039 197.336 71.6053 197.344H71.6025V201.657H71.5996C71.3467 203.867 67.0629 211.392 66.2175 212.86C66.1232 212.941 66.0732 213.025 66.0732 213.11C66.0732 213.847 69.7589 214.445 74.3052 214.445C78.8515 214.445 82.5372 213.848 82.5372 213.11C82.5367 213.04 82.5043 212.973 82.4415 212.906Z" fill="white"/>
<path d="M74.6577 197.914C76.3455 197.914 77.7137 197.648 77.7137 197.32C77.7137 196.991 76.3455 196.725 74.6577 196.725C72.9698 196.725 71.6016 196.991 71.6016 197.32C71.6016 197.648 72.9698 197.914 74.6577 197.914Z" fill="white"/>
<path d="M74.5861 207.194C77.2721 207.194 79.4496 206.861 79.4496 206.45C79.4496 206.04 77.2721 205.707 74.5861 205.707C71.9001 205.707 69.7227 206.04 69.7227 206.45C69.7227 206.861 71.9001 207.194 74.5861 207.194Z" fill="white"/>
<path d="M74.3043 214.444C78.8507 214.444 82.5363 213.847 82.5363 213.109C82.5363 212.372 78.8507 211.774 74.3043 211.774C69.7578 211.774 66.0723 212.372 66.0723 213.109C66.0723 213.847 69.7578 214.444 74.3043 214.444Z" fill="white"/>
<path d="M90.6156 206.789C90.6156 198.102 83.4709 191.464 74.6579 191.464C65.8449 191.464 58.7002 198.506 58.7002 207.193C58.7002 215.88 65.8449 222.922 74.6579 222.922C83.4714 222.922 90.6156 215.476 90.6156 206.789Z" fill="url(#paint20_linear_107_762)"/>
<path d="M215.43 226.303C215.43 217.616 208.285 210.979 199.472 210.979C190.659 210.979 183.515 218.021 183.515 226.707C183.515 235.394 190.659 242.436 199.472 242.436C208.285 242.436 215.43 234.99 215.43 226.303Z" fill="url(#paint21_linear_107_762)"/>
<path d="M207.269 232.436C207.262 232.426 207.256 232.42 207.256 232.42L204.264 225.965C204.264 225.554 202.087 225.221 199.401 225.221C196.715 225.221 194.537 225.554 194.537 225.965L191.032 232.374C190.938 232.455 190.888 232.538 190.888 232.624C190.888 233.361 194.573 233.959 199.12 233.959C203.666 233.959 207.352 233.361 207.352 232.624C207.351 232.56 207.322 232.497 207.269 232.436Z" fill="white"/>
<path d="M207.256 232.42C206.646 231.115 203.296 223.938 202.91 222.924C202.595 222.1 202.538 221.536 202.529 221.299V216.858H202.526C202.528 216.85 202.529 216.843 202.529 216.835C202.529 216.506 201.161 216.24 199.473 216.24C197.785 216.24 196.417 216.507 196.417 216.835C196.417 216.843 196.418 216.85 196.42 216.858H196.417V221.171H196.414C196.161 223.382 191.877 230.907 191.032 232.375C190.938 232.456 190.888 232.539 190.888 232.625C190.888 233.362 194.573 233.96 199.12 233.96C203.666 233.96 207.352 233.362 207.352 232.625C207.351 232.555 207.318 232.487 207.256 232.42Z" fill="white"/>
<path d="M199.473 217.429C201.161 217.429 202.529 217.163 202.529 216.834C202.529 216.506 201.161 216.24 199.473 216.24C197.785 216.24 196.417 216.506 196.417 216.834C196.417 217.163 197.785 217.429 199.473 217.429Z" fill="white"/>
<path d="M199.401 226.708C202.087 226.708 204.264 226.375 204.264 225.965C204.264 225.554 202.087 225.221 199.401 225.221C196.715 225.221 194.537 225.554 194.537 225.965C194.537 226.375 196.715 226.708 199.401 226.708Z" fill="white"/>
<path d="M199.119 233.959C203.665 233.959 207.351 233.361 207.351 232.624C207.351 231.886 203.665 231.288 199.119 231.288C194.572 231.288 190.887 231.886 190.887 232.624C190.887 233.361 194.572 233.959 199.119 233.959Z" fill="white"/>
<path d="M215.43 226.303C215.43 217.616 208.285 210.979 199.472 210.979C190.659 210.979 183.515 218.021 183.515 226.707C183.515 235.394 190.659 242.436 199.472 242.436C208.285 242.436 215.43 234.99 215.43 226.303Z" fill="url(#paint22_linear_107_762)"/>
<path d="M279.341 151.841C279.341 145.73 274.315 141.06 268.114 141.06C261.914 141.06 256.888 146.014 256.888 152.125C256.888 158.237 261.914 163.191 268.114 163.191C274.314 163.192 279.341 157.952 279.341 151.841Z" fill="url(#paint23_linear_107_762)"/>
<path d="M273.599 156.155C273.593 156.148 273.589 156.145 273.589 156.145L271.485 151.603C271.485 151.314 269.952 151.08 268.063 151.08C266.173 151.08 264.641 151.314 264.641 151.603L262.175 156.112C262.108 156.169 262.073 156.228 262.073 156.287C262.073 156.806 264.666 157.227 267.865 157.227C271.063 157.227 273.656 156.806 273.656 156.287C273.656 156.242 273.636 156.199 273.599 156.155Z" fill="white"/>
<path d="M273.589 156.144C273.16 155.226 270.803 150.176 270.532 149.463C270.31 148.883 270.27 148.487 270.264 148.319V145.195H270.262C270.263 145.19 270.264 145.184 270.264 145.179C270.264 144.947 269.301 144.76 268.114 144.76C266.926 144.76 265.963 144.947 265.963 145.179C265.963 145.184 265.964 145.19 265.965 145.195H265.963V148.229H265.961C265.783 149.784 262.77 155.078 262.175 156.111C262.108 156.168 262.073 156.227 262.073 156.287C262.073 156.806 264.666 157.226 267.865 157.226C271.063 157.226 273.656 156.806 273.656 156.287C273.656 156.238 273.633 156.191 273.589 156.144Z" fill="white"/>
<path d="M268.114 145.598C269.302 145.598 270.264 145.41 270.264 145.179C270.264 144.948 269.302 144.761 268.114 144.761C266.927 144.761 265.964 144.948 265.964 145.179C265.964 145.41 266.927 145.598 268.114 145.598Z" fill="white"/>
<path d="M268.063 152.126C269.953 152.126 271.485 151.892 271.485 151.603C271.485 151.314 269.953 151.08 268.063 151.08C266.174 151.08 264.642 151.314 264.642 151.603C264.642 151.892 266.174 152.126 268.063 152.126Z" fill="white"/>
<path d="M267.865 157.227C271.064 157.227 273.657 156.806 273.657 156.287C273.657 155.769 271.064 155.348 267.865 155.348C264.667 155.348 262.074 155.769 262.074 156.287C262.074 156.806 264.667 157.227 267.865 157.227Z" fill="white"/>
<path d="M279.341 151.841C279.341 145.73 274.315 141.06 268.114 141.06C261.914 141.06 256.888 146.014 256.888 152.125C256.888 158.237 261.914 163.191 268.114 163.191C274.314 163.192 279.341 157.952 279.341 151.841Z" fill="url(#paint24_linear_107_762)"/>
<path d="M145.444 75.6688C145.444 75.6688 150.263 75.133 152.919 69.9351L145.444 75.6688Z" fill="white"/>
<path d="M145.629 77.3215L145.26 74.0169L145.445 75.6694L145.247 74.0188C145.409 73.9984 149.246 73.464 151.434 69.1809L154.404 70.6909C151.375 76.618 145.862 77.2953 145.629 77.3215Z" fill="url(#paint25_linear_107_762)"/>
<path d="M153.068 94.5854C153.068 94.5854 155.468 98.7878 161.305 99.165L153.068 94.5854Z" fill="white"/>
<path d="M151.619 95.4075L154.516 93.7622L153.067 94.5849L154.51 93.7512C154.593 93.8918 156.602 97.1945 161.411 97.5056L161.196 100.824C154.54 100.394 151.735 95.6109 151.619 95.4075Z" fill="url(#paint26_linear_107_762)"/>
<path d="M163.898 84.246C163.898 84.246 167.609 85.3551 170.858 82.9811L163.898 84.246Z" fill="url(#paint27_linear_107_762)"/>
<path d="M163.63 85.3067L164.167 83.1844L163.898 84.2456L164.157 83.1816C164.282 83.2172 167.263 84.0347 169.94 82.0786L171.776 83.8827C168.071 86.5902 163.809 85.3604 163.63 85.3067Z" fill="url(#paint28_linear_107_762)"/>
<path d="M134.498 57.6984C134.498 57.6984 139.317 57.1626 141.972 51.9646L134.498 57.6984Z" fill="white"/>
<path d="M134.683 59.3504L134.314 56.0458L134.498 57.6983L134.301 56.0477C134.463 56.0273 138.299 55.4929 140.488 51.2098L143.458 52.7199C140.429 58.6469 134.916 59.3247 134.683 59.3504Z" fill="url(#paint29_linear_107_762)"/>
<path d="M109.212 78.7637C109.212 78.7637 111.611 82.966 117.448 83.3432L109.212 78.7637Z" fill="white"/>
<path d="M107.763 79.5858L110.66 77.9404L109.211 78.7631L110.653 77.9294C110.736 78.07 112.745 81.3727 117.555 81.6838L117.339 85.0017C110.683 84.5718 107.879 79.7891 107.763 79.5858Z" fill="url(#paint30_linear_107_762)"/>
<path d="M120.042 68.4243C120.042 68.4243 123.753 69.5334 127.001 67.1594L120.042 68.4243Z" fill="url(#paint31_linear_107_762)"/>
<path d="M119.773 69.4854L120.31 67.3631L120.042 68.4243L120.3 67.3603C120.426 67.3959 123.406 68.2134 126.084 66.2573L127.919 68.0614C124.214 70.7684 119.953 69.5391 119.773 69.4854Z" fill="url(#paint32_linear_107_762)"/>
<path d="M161.027 43.8098C161.027 43.8098 163.185 46.8061 167.643 46.6261L161.027 43.8098Z" fill="white"/>
<path d="M159.994 44.5498L162.06 43.0702L161.027 43.8098L162.053 43.0621C162.128 43.1619 163.917 45.507 167.591 45.3588L167.694 47.8929C162.61 48.0986 160.099 44.6947 159.994 44.5498Z" fill="url(#paint33_linear_107_762)"/>
<path d="M151.26 55.9337C151.26 55.9337 149.354 59.0953 151.283 63.1077L151.26 55.9337Z" fill="white"/>
<path d="M150.171 55.2802L152.35 56.5874L151.26 55.9338L152.355 56.5788C152.292 56.6866 150.84 59.2531 152.43 62.5595L150.137 63.6559C147.937 59.0797 150.079 55.4331 150.171 55.2802Z" fill="url(#paint34_linear_107_762)"/>
<path d="M162.201 59.256C162.201 59.256 162.848 62.1321 165.644 63.3999L162.201 59.256Z" fill="url(#paint35_linear_107_762)"/>
<path d="M161.394 59.4744L163.009 59.0379L162.202 59.2564L163.008 59.0303C163.03 59.1272 163.599 61.4095 165.904 62.4545L165.386 64.346C162.197 62.8996 161.425 59.6136 161.394 59.4744Z" fill="url(#paint36_linear_107_762)"/>
<path d="M341.692 155.519L341.682 153.663L341.677 155.38L341.687 157.237L341.692 155.519Z" fill="url(#paint37_linear_107_762)"/>
<path d="M358.793 157.752L356.528 159.065L356.523 160.783L358.788 159.47L358.793 157.752Z" fill="url(#paint38_linear_107_762)"/>
<path d="M332.442 159.065L330.162 157.752L330.157 159.47L332.437 160.783L332.442 159.065Z" fill="url(#paint39_linear_107_762)"/>
<path d="M337.279 165.015C337.29 164.953 337.309 164.892 337.325 164.829C337.344 164.757 337.362 164.685 337.388 164.612C337.409 164.553 337.437 164.495 337.462 164.436C337.495 164.36 337.528 164.285 337.568 164.21C337.597 164.156 337.633 164.102 337.666 164.049C337.718 163.963 337.774 163.879 337.836 163.796C337.873 163.746 337.913 163.698 337.954 163.65C338.047 163.537 338.151 163.427 338.262 163.319C338.303 163.28 338.34 163.24 338.382 163.201C338.452 163.138 338.53 163.078 338.606 163.017C338.673 162.963 338.737 162.909 338.809 162.857C338.892 162.797 338.982 162.74 339.071 162.682C339.163 162.623 339.249 162.562 339.347 162.505C339.565 162.379 339.797 162.266 340.034 162.159C340.101 162.129 340.171 162.1 340.24 162.071C340.427 161.994 340.618 161.921 340.812 161.855C340.882 161.831 340.951 161.806 341.022 161.783C341.144 161.745 341.27 161.711 341.396 161.677C341.491 161.651 341.585 161.623 341.683 161.6C341.814 161.568 341.949 161.541 342.083 161.514C342.174 161.496 342.266 161.475 342.359 161.458C342.631 161.41 342.907 161.373 343.186 161.343C343.271 161.334 343.358 161.329 343.443 161.322C343.607 161.309 343.771 161.296 343.935 161.289C344.04 161.284 344.146 161.282 344.25 161.28C344.383 161.278 344.516 161.277 344.649 161.278C344.76 161.28 344.871 161.283 344.982 161.287C345.105 161.292 345.228 161.299 345.351 161.307C345.463 161.314 345.575 161.324 345.687 161.335C345.809 161.347 345.929 161.36 346.05 161.375C346.159 161.389 346.267 161.404 346.375 161.421C346.505 161.441 346.633 161.464 346.76 161.488C346.861 161.507 346.962 161.527 347.062 161.549C347.214 161.582 347.364 161.62 347.513 161.659C347.597 161.681 347.681 161.702 347.763 161.726C348.03 161.804 348.291 161.891 348.543 161.988C348.668 162.037 348.789 162.091 348.91 162.144C348.973 162.172 349.038 162.197 349.099 162.226C349.282 162.313 349.461 162.405 349.632 162.504C351.065 163.329 351.78 164.412 351.777 165.493L351.782 163.775C351.785 162.694 351.069 161.611 349.636 160.786C349.465 160.687 349.286 160.595 349.103 160.508C349.042 160.479 348.977 160.454 348.914 160.426C348.806 160.378 348.699 160.328 348.587 160.284C348.574 160.279 348.56 160.276 348.548 160.271C348.295 160.172 348.034 160.086 347.767 160.008C347.745 160.001 347.726 159.993 347.704 159.987C347.644 159.97 347.58 159.958 347.518 159.942C347.369 159.902 347.219 159.864 347.066 159.831C347.026 159.822 346.987 159.81 346.946 159.801C346.886 159.789 346.824 159.782 346.764 159.77C346.636 159.746 346.508 159.723 346.379 159.703C346.327 159.695 346.277 159.684 346.225 159.677C346.169 159.668 346.111 159.665 346.054 159.658C345.934 159.642 345.813 159.629 345.691 159.617C345.633 159.611 345.576 159.602 345.518 159.598C345.464 159.593 345.409 159.593 345.355 159.589C345.232 159.581 345.109 159.574 344.985 159.57C344.924 159.567 344.863 159.562 344.801 159.56C344.752 159.558 344.703 159.561 344.654 159.56C344.52 159.559 344.387 159.56 344.253 159.562C344.187 159.564 344.121 159.561 344.056 159.563C344.017 159.564 343.979 159.569 343.939 159.571C343.775 159.578 343.611 159.59 343.447 159.603C343.381 159.609 343.315 159.61 343.249 159.617C343.229 159.619 343.209 159.623 343.189 159.625C342.91 159.654 342.634 159.692 342.362 159.74C342.348 159.743 342.334 159.744 342.322 159.746C342.243 159.76 342.167 159.78 342.089 159.795C341.954 159.823 341.818 159.849 341.685 159.882C341.589 159.905 341.495 159.933 341.401 159.958C341.274 159.992 341.149 160.026 341.025 160.065C340.999 160.073 340.971 160.079 340.945 160.088C340.9 160.102 340.86 160.122 340.816 160.136C340.621 160.203 340.43 160.275 340.244 160.353C340.175 160.381 340.105 160.41 340.037 160.44C339.8 160.547 339.568 160.66 339.351 160.786C339.321 160.804 339.291 160.821 339.262 160.838C339.196 160.878 339.139 160.922 339.076 160.962C338.986 161.02 338.895 161.077 338.813 161.137C338.741 161.189 338.677 161.244 338.61 161.297C338.534 161.358 338.456 161.419 338.386 161.482C338.373 161.494 338.355 161.506 338.342 161.519C338.314 161.545 338.294 161.573 338.266 161.599C338.154 161.707 338.051 161.817 337.958 161.93C337.937 161.955 337.91 161.978 337.891 162.002C337.872 162.026 337.859 162.052 337.841 162.076C337.778 162.16 337.722 162.244 337.67 162.329C337.647 162.365 337.618 162.4 337.598 162.436C337.587 162.454 337.582 162.472 337.572 162.49C337.532 162.565 337.499 162.641 337.466 162.716C337.446 162.76 337.421 162.804 337.404 162.848C337.398 162.863 337.396 162.878 337.39 162.893C337.365 162.965 337.347 163.037 337.329 163.109C337.316 163.158 337.296 163.207 337.286 163.256C337.283 163.269 337.284 163.282 337.281 163.295C337.268 163.371 337.262 163.448 337.255 163.524C337.251 163.573 337.24 163.622 337.238 163.672C337.237 163.693 337.237 163.715 337.237 163.736L337.232 165.454C337.233 165.383 337.244 165.312 337.251 165.241C337.259 165.167 337.265 165.091 337.279 165.015Z" fill="url(#paint40_linear_107_762)"/>
<path d="M358.779 165.359C358.746 165.463 358.705 165.565 358.664 165.668C358.636 165.738 358.606 165.808 358.575 165.878C358.546 165.944 358.516 166.009 358.485 166.075C358.451 166.144 358.414 166.213 358.377 166.282C358.343 166.346 358.308 166.408 358.271 166.471C358.225 166.552 358.174 166.631 358.123 166.711C358.085 166.769 358.048 166.827 358.008 166.885C357.952 166.967 357.892 167.048 357.831 167.128C357.791 167.181 357.752 167.235 357.71 167.287C357.591 167.436 357.466 167.584 357.331 167.729C357.313 167.749 357.292 167.768 357.274 167.787C357.155 167.913 357.03 168.038 356.899 168.161C356.796 168.257 356.692 168.354 356.582 168.448L356.577 170.166C356.668 170.088 356.756 170.01 356.841 169.931C356.86 169.914 356.876 169.895 356.894 169.878C357.025 169.756 357.15 169.632 357.268 169.506C357.287 169.486 357.308 169.467 357.326 169.446C357.461 169.301 357.586 169.154 357.705 169.005C357.715 168.993 357.727 168.981 357.737 168.968C357.769 168.928 357.796 168.886 357.827 168.845C357.887 168.765 357.947 168.684 358.004 168.603C358.044 168.545 358.081 168.486 358.118 168.428C358.17 168.349 358.22 168.269 358.266 168.189C358.282 168.163 358.3 168.137 358.315 168.111C358.336 168.074 358.353 168.036 358.373 167.999C358.41 167.93 358.446 167.861 358.48 167.792C358.512 167.726 358.542 167.66 358.572 167.594C358.603 167.525 358.632 167.455 358.66 167.385C358.672 167.354 358.687 167.324 358.699 167.292C358.726 167.22 358.752 167.148 358.775 167.076H361.988L361.993 165.358H358.779V165.359Z" fill="url(#paint41_linear_107_762)"/>
<path d="M332.49 170.166L332.495 168.448C331.377 167.499 330.631 166.446 330.262 165.359H327.049L327.044 167.077H330.257C330.626 168.164 331.372 169.216 332.49 170.166Z" fill="url(#paint42_linear_107_762)"/>
<path d="M352.672 170.715C352.287 170.866 351.89 171.003 351.486 171.13C351.264 171.2 351.034 171.259 350.807 171.322C350.594 171.381 350.385 171.444 350.168 171.497C349.937 171.553 349.699 171.597 349.464 171.646C349.246 171.691 349.029 171.742 348.808 171.781C348.322 171.867 347.829 171.939 347.332 171.995L347.327 173.712C347.824 173.657 348.316 173.584 348.803 173.498C348.826 173.494 348.851 173.492 348.875 173.488C349.074 173.452 349.267 173.404 349.465 173.363C349.698 173.314 349.933 173.27 350.163 173.215C350.381 173.162 350.592 173.098 350.807 173.038C351.033 172.976 351.261 172.918 351.482 172.848C351.508 172.839 351.536 172.834 351.562 172.825C351.939 172.705 352.308 172.574 352.668 172.433L354.948 173.745L358.858 171.479L358.862 169.761L354.952 172.028L352.672 170.715Z" fill="url(#paint43_linear_107_762)"/>
<path d="M341.785 171.994C341.437 171.955 341.093 171.902 340.75 171.848C340.503 171.809 340.258 171.767 340.015 171.721C339.801 171.68 339.589 171.637 339.378 171.59C339.088 171.527 338.802 171.456 338.518 171.38C338.294 171.321 338.069 171.264 337.849 171.198C337.751 171.168 337.654 171.138 337.556 171.107C337.175 170.986 336.798 170.858 336.432 170.715C336.431 170.715 336.431 170.715 336.431 170.715L334.162 172.029L330.226 169.763L330.222 171.48L334.157 173.746L336.425 172.432C336.792 172.575 337.17 172.703 337.553 172.825C337.649 172.855 337.747 172.885 337.845 172.915C337.943 172.944 338.039 172.977 338.139 173.006C338.261 173.041 338.389 173.065 338.513 173.097C338.797 173.172 339.083 173.243 339.374 173.308C339.468 173.328 339.558 173.357 339.654 173.376C339.77 173.4 339.891 173.415 340.009 173.438C340.253 173.484 340.499 173.527 340.746 173.566C340.858 173.583 340.968 173.608 341.081 173.623C341.312 173.656 341.544 173.686 341.778 173.711L341.78 173.712L341.791 175.568H347.337L347.342 173.851H341.795L341.785 171.994Z" fill="url(#paint44_linear_107_762)"/>
<path d="M354.951 172.027L352.671 170.714C351.032 171.357 349.212 171.784 347.331 171.994L347.341 173.85H341.795L341.784 171.994C339.901 171.784 338.077 171.357 336.43 170.714L334.161 172.029L330.226 169.763L332.494 168.448C331.377 167.498 330.631 166.446 330.262 165.359H327.048L327.03 162.155H330.244C330.601 161.067 331.337 160.017 332.441 159.065L330.162 157.752L334.072 155.486L336.351 156.799C337.995 156.158 339.811 155.729 341.692 155.519L341.682 153.663H347.228L347.238 155.519C349.122 155.729 350.942 156.158 352.593 156.799L354.858 155.486L358.793 157.752L356.528 159.065C357.643 160.017 358.392 161.067 358.761 162.154H361.974L361.992 165.359H358.779C358.422 166.446 357.688 167.498 356.581 168.448L358.861 169.761L354.951 172.027ZM339.385 166.73C342.235 168.371 346.836 168.369 349.667 166.728C352.498 165.087 352.487 162.429 349.637 160.788C346.787 159.146 342.182 159.146 339.351 160.788C336.52 162.429 336.536 165.089 339.385 166.73Z" fill="url(#paint45_linear_107_762)" stroke="white" stroke-miterlimit="10"/>
<path d="M317.158 171.007L317.151 169.566L317.146 170.899L317.155 172.34L317.158 171.007Z" fill="url(#paint46_linear_107_762)"/>
<path d="M330.431 172.74L328.673 173.759L328.669 175.092L330.427 174.073L330.431 172.74Z" fill="url(#paint47_linear_107_762)"/>
<path d="M309.98 173.759L308.211 172.74L308.207 174.074L309.976 175.092L309.98 173.759Z" fill="url(#paint48_linear_107_762)"/>
<path d="M313.733 178.377C313.742 178.329 313.757 178.281 313.77 178.233C313.784 178.177 313.798 178.12 313.818 178.064C313.835 178.018 313.856 177.973 313.876 177.927C313.902 177.869 313.927 177.81 313.959 177.752C313.981 177.71 314.009 177.669 314.034 177.627C314.075 177.561 314.119 177.495 314.167 177.431C314.195 177.392 314.227 177.355 314.258 177.317C314.331 177.23 314.411 177.144 314.498 177.061C314.529 177.03 314.558 176.999 314.591 176.97C314.645 176.921 314.706 176.874 314.765 176.827C314.817 176.785 314.867 176.743 314.923 176.702C314.986 176.656 315.057 176.612 315.126 176.567C315.197 176.521 315.264 176.474 315.34 176.43C315.509 176.332 315.689 176.244 315.873 176.161C315.926 176.137 315.979 176.116 316.033 176.093C316.178 176.032 316.326 175.976 316.477 175.925C316.531 175.906 316.584 175.887 316.64 175.869C316.735 175.84 316.832 175.813 316.93 175.787C317.003 175.767 317.077 175.745 317.152 175.727C317.254 175.702 317.359 175.682 317.462 175.661C317.534 175.647 317.605 175.63 317.677 175.618C317.888 175.581 318.103 175.551 318.319 175.528C318.385 175.521 318.452 175.517 318.518 175.512C318.645 175.501 318.773 175.492 318.9 175.487C318.982 175.483 319.064 175.481 319.145 175.48C319.248 175.478 319.351 175.477 319.454 175.479C319.54 175.479 319.627 175.482 319.713 175.486C319.808 175.489 319.904 175.494 319.999 175.501C320.086 175.507 320.173 175.514 320.259 175.523C320.354 175.532 320.448 175.542 320.541 175.554C320.626 175.565 320.71 175.577 320.794 175.59C320.894 175.605 320.994 175.623 321.093 175.641C321.171 175.656 321.25 175.672 321.327 175.688C321.445 175.715 321.562 175.744 321.677 175.774C321.742 175.791 321.807 175.807 321.871 175.826C322.078 175.886 322.28 175.954 322.476 176.03C322.573 176.067 322.667 176.109 322.761 176.15C322.809 176.172 322.86 176.191 322.907 176.214C323.049 176.281 323.188 176.353 323.321 176.429C324.433 177.07 324.988 177.91 324.986 178.749L324.99 177.416C324.992 176.577 324.437 175.737 323.325 175.097C323.192 175.02 323.053 174.948 322.911 174.881C322.863 174.859 322.813 174.839 322.764 174.817C322.68 174.78 322.597 174.741 322.511 174.707C322.501 174.703 322.49 174.7 322.48 174.697C322.284 174.621 322.081 174.553 321.873 174.492C321.857 174.488 321.842 174.481 321.825 174.476C321.778 174.463 321.729 174.453 321.681 174.441C321.565 174.41 321.449 174.381 321.33 174.355C321.298 174.348 321.268 174.338 321.236 174.332C321.19 174.323 321.142 174.317 321.095 174.308C320.996 174.289 320.897 174.272 320.797 174.256C320.756 174.25 320.717 174.241 320.677 174.235C320.633 174.229 320.589 174.226 320.545 174.221C320.451 174.209 320.357 174.198 320.262 174.189C320.218 174.185 320.173 174.178 320.128 174.175C320.086 174.171 320.044 174.171 320.002 174.168C319.906 174.161 319.811 174.157 319.715 174.153C319.667 174.151 319.619 174.147 319.572 174.145C319.534 174.144 319.496 174.146 319.457 174.146C319.354 174.144 319.25 174.145 319.146 174.147C319.095 174.148 319.045 174.146 318.994 174.148C318.964 174.149 318.934 174.153 318.903 174.154C318.775 174.16 318.648 174.169 318.521 174.18C318.47 174.184 318.418 174.185 318.367 174.19C318.352 174.191 318.336 174.195 318.32 174.196C318.104 174.219 317.89 174.248 317.678 174.286C317.668 174.288 317.657 174.289 317.647 174.29C317.586 174.301 317.527 174.316 317.467 174.329C317.361 174.35 317.256 174.371 317.153 174.396C317.078 174.414 317.006 174.435 316.932 174.455C316.834 174.481 316.736 174.508 316.64 174.538C316.62 174.544 316.599 174.549 316.578 174.556C316.544 174.567 316.512 174.582 316.479 174.593C316.327 174.644 316.179 174.7 316.035 174.761C315.98 174.783 315.927 174.805 315.874 174.829C315.69 174.912 315.51 175 315.341 175.098C315.318 175.111 315.295 175.125 315.272 175.138C315.22 175.169 315.176 175.203 315.127 175.235C315.058 175.279 314.988 175.324 314.924 175.37C314.868 175.411 314.818 175.453 314.766 175.494C314.707 175.541 314.646 175.589 314.592 175.637C314.581 175.647 314.568 175.656 314.557 175.666C314.535 175.686 314.52 175.708 314.499 175.728C314.412 175.812 314.333 175.897 314.26 175.985C314.244 176.004 314.223 176.022 314.207 176.041C314.193 176.06 314.183 176.079 314.168 176.098C314.12 176.163 314.076 176.229 314.036 176.295C314.019 176.323 313.996 176.35 313.98 176.378C313.972 176.391 313.968 176.406 313.96 176.42C313.929 176.478 313.903 176.536 313.878 176.595C313.863 176.629 313.843 176.663 313.83 176.697C313.825 176.709 313.823 176.721 313.819 176.733C313.799 176.788 313.786 176.844 313.771 176.9C313.761 176.938 313.746 176.976 313.738 177.014C313.736 177.024 313.737 177.035 313.735 177.045C313.724 177.104 313.72 177.163 313.714 177.222C313.711 177.26 313.702 177.299 313.701 177.337C313.701 177.354 313.7 177.37 313.7 177.387L313.696 178.719C313.696 178.664 313.705 178.609 313.71 178.554C313.719 178.494 313.723 178.435 313.733 178.377Z" fill="url(#paint49_linear_107_762)"/>
<path d="M330.42 178.643C330.394 178.724 330.363 178.803 330.331 178.883C330.309 178.938 330.286 178.992 330.262 179.046C330.239 179.097 330.216 179.148 330.191 179.199C330.164 179.252 330.136 179.306 330.107 179.36C330.081 179.409 330.053 179.458 330.025 179.507C329.989 179.569 329.95 179.631 329.91 179.693C329.881 179.738 329.852 179.783 329.821 179.828C329.778 179.891 329.731 179.954 329.683 180.016C329.652 180.057 329.622 180.099 329.589 180.14C329.497 180.255 329.4 180.37 329.295 180.482C329.281 180.498 329.265 180.512 329.251 180.528C329.159 180.625 329.061 180.722 328.96 180.818C328.88 180.893 328.799 180.967 328.714 181.041L328.71 182.373C328.78 182.313 328.849 182.252 328.915 182.191C328.93 182.178 328.942 182.163 328.956 182.15C329.057 182.055 329.154 181.959 329.246 181.861C329.261 181.846 329.277 181.83 329.291 181.815C329.396 181.702 329.493 181.588 329.585 181.472C329.593 181.462 329.602 181.453 329.61 181.443C329.635 181.412 329.656 181.379 329.68 181.348C329.727 181.286 329.773 181.223 329.817 181.16C329.848 181.115 329.877 181.07 329.906 181.024C329.946 180.963 329.985 180.901 330.021 180.839C330.033 180.819 330.047 180.799 330.059 180.778C330.075 180.749 330.088 180.72 330.103 180.691C330.132 180.638 330.16 180.585 330.186 180.531C330.212 180.48 330.235 180.429 330.258 180.378C330.282 180.324 330.305 180.27 330.326 180.216C330.336 180.192 330.348 180.168 330.357 180.144C330.378 180.088 330.398 180.032 330.416 179.976H332.91L332.914 178.643H330.42V178.643Z" fill="url(#paint50_linear_107_762)"/>
<path d="M310.017 182.374L310.021 181.041C309.153 180.304 308.575 179.487 308.288 178.643H305.795L305.791 179.976H308.285C308.571 180.82 309.15 181.637 310.017 182.374Z" fill="url(#paint51_linear_107_762)"/>
<path d="M325.679 182.8C325.38 182.917 325.072 183.023 324.759 183.122C324.587 183.176 324.409 183.222 324.232 183.27C324.067 183.316 323.904 183.365 323.736 183.406C323.556 183.449 323.372 183.484 323.19 183.522C323.02 183.557 322.852 183.596 322.68 183.627C322.303 183.693 321.921 183.75 321.535 183.793L321.531 185.126C321.917 185.083 322.299 185.026 322.676 184.959C322.695 184.956 322.714 184.955 322.732 184.951C322.887 184.924 323.037 184.886 323.19 184.854C323.371 184.817 323.554 184.783 323.732 184.74C323.901 184.699 324.065 184.649 324.232 184.603C324.407 184.554 324.584 184.509 324.756 184.455C324.776 184.448 324.797 184.444 324.818 184.437C325.11 184.344 325.397 184.243 325.676 184.133L327.445 185.151L330.48 183.392L330.483 182.06L327.449 183.818L325.679 182.8Z" fill="url(#paint52_linear_107_762)"/>
<path d="M317.231 183.792C316.96 183.762 316.694 183.72 316.427 183.679C316.236 183.649 316.046 183.616 315.857 183.58C315.692 183.549 315.527 183.515 315.363 183.479C315.138 183.43 314.916 183.374 314.696 183.316C314.522 183.27 314.347 183.226 314.177 183.174C314.101 183.152 314.025 183.128 313.95 183.104C313.654 183.01 313.361 182.91 313.077 182.8C313.077 182.8 313.076 182.8 313.076 182.8L311.315 183.819L308.261 182.061L308.257 183.393L311.311 185.152L313.071 184.132C313.356 184.243 313.649 184.342 313.946 184.437C314.021 184.461 314.097 184.484 314.173 184.507C314.249 184.53 314.324 184.555 314.401 184.578C314.496 184.605 314.596 184.623 314.691 184.648C314.912 184.707 315.134 184.762 315.36 184.811C315.433 184.827 315.503 184.849 315.577 184.865C315.667 184.883 315.761 184.895 315.852 184.913C316.042 184.949 316.232 184.981 316.424 185.011C316.511 185.025 316.596 185.044 316.684 185.056C316.864 185.082 317.044 185.104 317.225 185.125L317.227 185.125L317.235 186.566H321.539L321.543 185.233H317.239L317.231 183.792Z" fill="url(#paint53_linear_107_762)"/>
<path d="M327.449 183.818L325.679 182.799C324.407 183.298 322.995 183.629 321.535 183.792L321.543 185.233H317.238L317.23 183.792C315.769 183.629 314.353 183.298 313.075 182.799L311.314 183.819L308.26 182.06L310.02 181.04C309.153 180.303 308.574 179.486 308.288 178.642H305.794L305.78 176.156H308.274C308.551 175.312 309.123 174.497 309.979 173.758L308.21 172.739L311.244 170.98L313.014 171.999C314.289 171.502 315.698 171.169 317.158 171.006L317.15 169.565H321.454L321.462 171.006C322.924 171.169 324.337 171.502 325.618 171.999L327.375 170.98L330.43 172.739L328.672 173.757C329.537 174.496 330.118 175.311 330.404 176.155H332.898L332.912 178.642H330.419C330.141 179.486 329.572 180.302 328.713 181.04L330.482 182.059L327.449 183.818ZM315.369 179.707C317.58 180.981 321.151 180.979 323.348 179.706C325.545 178.432 325.536 176.369 323.325 175.096C321.114 173.822 317.54 173.822 315.342 175.096C313.145 176.369 313.157 178.434 315.369 179.707Z" fill="url(#paint54_linear_107_762)" stroke="white" stroke-miterlimit="10"/>
<path d="M305.103 185.772C305.103 176.481 297.461 169.381 288.035 169.381C278.608 169.381 270.967 176.913 270.967 186.204C270.967 195.495 278.608 203.027 288.035 203.027C297.461 203.027 305.103 195.063 305.103 185.772Z" fill="url(#paint55_linear_107_762)"/>
<path d="M288.034 170.331C297.07 170.331 304.149 177.113 304.149 185.772C304.149 190.042 302.47 194.108 299.421 197.22C296.352 200.352 292.308 202.077 288.034 202.077C279.148 202.077 271.918 194.957 271.918 186.204C271.918 177.452 279.148 170.331 288.034 170.331ZM288.034 169.381C278.607 169.381 270.966 176.913 270.966 186.204C270.966 195.495 278.607 203.027 288.034 203.027C297.46 203.027 305.101 195.063 305.101 185.772C305.102 176.481 297.46 169.381 288.034 169.381Z" fill="url(#paint56_linear_107_762)"/>
<defs>
<linearGradient id="paint0_linear_107_762" x1="249.815" y1="71.4305" x2="347.273" y2="71.4305" gradientUnits="userSpaceOnUse">
<stop offset="0.0607" stop-color="#28A8E0"/>
<stop offset="0.9984" stop-color="#29ABE2" stop-opacity="0"/>
</linearGradient>
<linearGradient id="paint1_linear_107_762" x1="275.41" y1="67.7844" x2="320.535" y2="67.7844" gradientUnits="userSpaceOnUse">
<stop stop-color="#BD8AAE"/>
<stop offset="1" stop-color="#2484C6" stop-opacity="0"/>
</linearGradient>
<linearGradient id="paint2_linear_107_762" x1="274.566" y1="67.8795" x2="321.238" y2="67.8795" gradientUnits="userSpaceOnUse">
<stop stop-color="#BD8AAE"/>
<stop offset="1" stop-color="#2484C6" stop-opacity="0"/>
</linearGradient>
<linearGradient id="paint3_linear_107_762" x1="288.574" y1="73.0522" x2="320.479" y2="73.0522" gradientUnits="userSpaceOnUse">
<stop stop-color="#BD8AAE"/>
<stop offset="1" stop-color="#2484C6" stop-opacity="0"/>
</linearGradient>
<linearGradient id="paint4_linear_107_762" x1="287.84" y1="73.0861" x2="321.184" y2="73.0861" gradientUnits="userSpaceOnUse">
<stop stop-color="#BD8AAE"/>
<stop offset="1" stop-color="#2484C6" stop-opacity="0"/>
</linearGradient>
<linearGradient id="paint5_linear_107_762" x1="272.968" y1="71.154" x2="309.18" y2="71.154" gradientUnits="userSpaceOnUse">
<stop offset="0.0607" stop-color="#28A8E0"/>
<stop offset="0.9984" stop-color="#29ABE2" stop-opacity="0"/>
</linearGradient>
<linearGradient id="paint6_linear_107_762" x1="272.026" y1="71.152" x2="310.122" y2="71.152" gradientUnits="userSpaceOnUse">
<stop stop-color="#BD8AAE"/>
<stop offset="1" stop-color="#2484C6" stop-opacity="0"/>
</linearGradient>
<linearGradient id="paint7_linear_107_762" x1="257.527" y1="192.976" x2="376.199" y2="192.976" gradientUnits="userSpaceOnUse">
<stop stop-color="#21409A"/>
<stop offset="0.9984" stop-color="#29ABE2" stop-opacity="0"/>
</linearGradient>
<linearGradient id="paint8_linear_107_762" x1="257.765" y1="180.319" x2="375.961" y2="180.319" gradientUnits="userSpaceOnUse">
<stop offset="0.0607" stop-color="#28A8E0"/>
<stop offset="0.9984" stop-color="#29ABE2" stop-opacity="0"/>
</linearGradient>
<linearGradient id="paint9_linear_107_762" x1="88.4538" y1="147.978" x2="118.886" y2="147.978" gradientUnits="userSpaceOnUse">
<stop stop-color="#6B385F"/>
<stop offset="0.4197" stop-color="#6F3B62" stop-opacity="0.7323"/>
<stop offset="0.5218" stop-color="#764268" stop-opacity="0.6035"/>
<stop offset="0.6937" stop-color="#8C567A" stop-opacity="0.3865"/>
<stop offset="0.9131" stop-color="#B5799B" stop-opacity="0.1096"/>
<stop offset="1" stop-color="#CC8DAE" stop-opacity="0"/>
</linearGradient>
<linearGradient id="paint10_linear_107_762" x1="119.434" y1="104.585" x2="124.387" y2="104.585" gradientUnits="userSpaceOnUse">
<stop stop-color="#6B385F"/>
<stop offset="0.4197" stop-color="#6F3B62" stop-opacity="0.7323"/>
<stop offset="0.5218" stop-color="#764268" stop-opacity="0.6035"/>
<stop offset="0.6937" stop-color="#8C567A" stop-opacity="0.3865"/>
<stop offset="0.9131" stop-color="#B5799B" stop-opacity="0.1096"/>
<stop offset="1" stop-color="#CC8DAE" stop-opacity="0"/>
</linearGradient>
<linearGradient id="paint11_linear_107_762" x1="75.3313" y1="152.969" x2="96.8753" y2="152.969" gradientUnits="userSpaceOnUse">
<stop stop-color="#BD8AAE"/>
<stop offset="1" stop-color="#2484C6" stop-opacity="0"/>
</linearGradient>
<linearGradient id="paint12_linear_107_762" x1="105.9" y1="204.878" x2="125.097" y2="204.878" gradientUnits="userSpaceOnUse">
<stop stop-color="#BD8AAE"/>
<stop offset="1" stop-color="#2484C6" stop-opacity="0"/>
</linearGradient>
<linearGradient id="paint13_linear_107_762" x1="77.3968" y1="134.123" x2="139.85" y2="134.123" gradientUnits="userSpaceOnUse">
<stop offset="0.2372" stop-color="#21409A"/>
<stop offset="0.6554" stop-color="#215DAB" stop-opacity="0.5476"/>
<stop offset="0.9984" stop-color="#29ABE2" stop-opacity="0"/>
</linearGradient>
<linearGradient id="paint14_linear_107_762" x1="128.752" y1="116.406" x2="139.85" y2="116.406" gradientUnits="userSpaceOnUse">
<stop offset="0.2372" stop-color="#21409A"/>
<stop offset="0.6554" stop-color="#215DAB" stop-opacity="0.5476"/>
<stop offset="0.9984" stop-color="#29ABE2" stop-opacity="0"/>
</linearGradient>
<linearGradient id="paint15_linear_107_762" x1="96.3276" y1="113.854" x2="116.545" y2="113.854" gradientUnits="userSpaceOnUse">
<stop stop-color="#7E4D71"/>
<stop offset="0.648" stop-color="#A17194"/>
</linearGradient>
<linearGradient id="paint16_linear_107_762" x1="178.11" y1="100.244" x2="244.099" y2="100.244" gradientUnits="userSpaceOnUse">
<stop offset="0.0607" stop-color="#28A8E0"/>
<stop offset="0.9984" stop-color="#29ABE2" stop-opacity="0"/>
</linearGradient>
<linearGradient id="paint17_linear_107_762" x1="243.702" y1="105.457" x2="216.078" y2="105.457" gradientUnits="userSpaceOnUse">
<stop offset="0.4247" stop-color="white"/>
<stop offset="1" stop-color="#2484C6" stop-opacity="0"/>
</linearGradient>
<linearGradient id="paint18_linear_107_762" x1="227.996" y1="129.322" x2="240.013" y2="129.322" gradientUnits="userSpaceOnUse">
<stop offset="0.2372" stop-color="#21409A"/>
<stop offset="0.6554" stop-color="#215DAB" stop-opacity="0.5476"/>
<stop offset="0.9984" stop-color="#29ABE2" stop-opacity="0"/>
</linearGradient>
<linearGradient id="paint19_linear_107_762" x1="58.7003" y1="207.194" x2="90.6158" y2="207.194" gradientUnits="userSpaceOnUse">
<stop stop-color="#BD8AAE"/>
<stop offset="1" stop-color="#2484C6" stop-opacity="0"/>
</linearGradient>
<linearGradient id="paint20_linear_107_762" x1="58.7003" y1="207.194" x2="90.6158" y2="207.194" gradientUnits="userSpaceOnUse">
<stop offset="0.0607" stop-color="#28A8E0"/>
<stop offset="0.9984" stop-color="#29ABE2" stop-opacity="0"/>
</linearGradient>
<linearGradient id="paint21_linear_107_762" x1="183.515" y1="226.708" x2="215.43" y2="226.708" gradientUnits="userSpaceOnUse">
<stop stop-color="#BD8AAE"/>
<stop offset="1" stop-color="#2484C6" stop-opacity="0"/>
</linearGradient>
<linearGradient id="paint22_linear_107_762" x1="183.515" y1="226.708" x2="215.43" y2="226.708" gradientUnits="userSpaceOnUse">
<stop offset="0.0607" stop-color="#28A8E0"/>
<stop offset="0.9984" stop-color="#29ABE2" stop-opacity="0"/>
</linearGradient>
<linearGradient id="paint23_linear_107_762" x1="256.887" y1="152.126" x2="279.341" y2="152.126" gradientUnits="userSpaceOnUse">
<stop stop-color="#BD8AAE"/>
<stop offset="1" stop-color="#2484C6" stop-opacity="0"/>
</linearGradient>
<linearGradient id="paint24_linear_107_762" x1="256.887" y1="152.126" x2="279.341" y2="152.126" gradientUnits="userSpaceOnUse">
<stop offset="0.0607" stop-color="#28A8E0"/>
<stop offset="0.9984" stop-color="#29ABE2" stop-opacity="0"/>
</linearGradient>
<linearGradient id="paint25_linear_107_762" x1="145.247" y1="73.2509" x2="154.404" y2="73.2509" gradientUnits="userSpaceOnUse">
<stop offset="0.0607" stop-color="#28A8E0"/>
<stop offset="0.9984" stop-color="#29ABE2" stop-opacity="0"/>
</linearGradient>
<linearGradient id="paint26_linear_107_762" x1="155.222" y1="93.463" x2="158.828" y2="101.859" gradientUnits="userSpaceOnUse">
<stop offset="0.0607" stop-color="#28A8E0"/>
<stop offset="0.9984" stop-color="#29ABE2" stop-opacity="0"/>
</linearGradient>
<linearGradient id="paint27_linear_107_762" x1="163.898" y1="83.7427" x2="170.858" y2="83.7427" gradientUnits="userSpaceOnUse">
<stop stop-color="#BD8AAE"/>
<stop offset="1" stop-color="#2484C6" stop-opacity="0"/>
</linearGradient>
<linearGradient id="paint28_linear_107_762" x1="164.352" y1="82.6987" x2="171.149" y2="85.4385" gradientUnits="userSpaceOnUse">
<stop stop-color="#BD8AAE"/>
<stop offset="1" stop-color="#2484C6" stop-opacity="0"/>
</linearGradient>
<linearGradient id="paint29_linear_107_762" x1="134.3" y1="55.2801" x2="143.458" y2="55.2801" gradientUnits="userSpaceOnUse">
<stop offset="0.0607" stop-color="#28A8E0"/>
<stop offset="0.9984" stop-color="#29ABE2" stop-opacity="0"/>
</linearGradient>
<linearGradient id="paint30_linear_107_762" x1="111.364" y1="77.6415" x2="114.969" y2="86.0371" gradientUnits="userSpaceOnUse">
<stop offset="0.0607" stop-color="#28A8E0"/>
<stop offset="0.9984" stop-color="#29ABE2" stop-opacity="0"/>
</linearGradient>
<linearGradient id="paint31_linear_107_762" x1="120.042" y1="67.9211" x2="127.002" y2="67.9211" gradientUnits="userSpaceOnUse">
<stop stop-color="#BD8AAE"/>
<stop offset="1" stop-color="#2484C6" stop-opacity="0"/>
</linearGradient>
<linearGradient id="paint32_linear_107_762" x1="120.496" y1="66.8795" x2="127.293" y2="69.6193" gradientUnits="userSpaceOnUse">
<stop stop-color="#BD8AAE"/>
<stop offset="1" stop-color="#2484C6" stop-opacity="0"/>
</linearGradient>
<linearGradient id="paint33_linear_107_762" x1="162.551" y1="42.7801" x2="165.958" y2="48.8621" gradientUnits="userSpaceOnUse">
<stop offset="0.0607" stop-color="#28A8E0"/>
<stop offset="0.9984" stop-color="#29ABE2" stop-opacity="0"/>
</linearGradient>
<linearGradient id="paint34_linear_107_762" x1="152.832" y1="56.9368" x2="148.605" y2="62.4833" gradientUnits="userSpaceOnUse">
<stop offset="0.0607" stop-color="#28A8E0"/>
<stop offset="0.9984" stop-color="#29ABE2" stop-opacity="0"/>
</linearGradient>
<linearGradient id="paint35_linear_107_762" x1="162.521" y1="59.0728" x2="165.11" y2="63.6952" gradientUnits="userSpaceOnUse">
<stop stop-color="#BD8AAE"/>
<stop offset="1" stop-color="#2484C6" stop-opacity="0"/>
</linearGradient>
<linearGradient id="paint36_linear_107_762" x1="163.391" y1="58.9804" x2="164.109" y2="64.5119" gradientUnits="userSpaceOnUse">
<stop stop-color="#BD8AAE"/>
<stop offset="1" stop-color="#2484C6" stop-opacity="0"/>
</linearGradient>
<linearGradient id="paint37_linear_107_762" x1="341.677" y1="155.45" x2="341.692" y2="155.45" gradientUnits="userSpaceOnUse">
<stop offset="0.0607" stop-color="#28A8E0"/>
<stop offset="0.9984" stop-color="#29ABE2" stop-opacity="0"/>
</linearGradient>
<linearGradient id="paint38_linear_107_762" x1="356.524" y1="159.267" x2="358.793" y2="159.267" gradientUnits="userSpaceOnUse">
<stop offset="0.0607" stop-color="#28A8E0"/>
<stop offset="0.9984" stop-color="#29ABE2" stop-opacity="0"/>
</linearGradient>
<linearGradient id="paint39_linear_107_762" x1="330.157" y1="159.267" x2="332.442" y2="159.267" gradientUnits="userSpaceOnUse">
<stop offset="0.0607" stop-color="#28A8E0"/>
<stop offset="0.9984" stop-color="#29ABE2" stop-opacity="0"/>
</linearGradient>
<linearGradient id="paint40_linear_107_762" x1="337.234" y1="162.527" x2="351.784" y2="162.527" gradientUnits="userSpaceOnUse">
<stop offset="0.0607" stop-color="#28A8E0"/>
<stop offset="0.9984" stop-color="#29ABE2" stop-opacity="0"/>
</linearGradient>
<linearGradient id="paint41_linear_107_762" x1="356.577" y1="167.762" x2="361.993" y2="167.762" gradientUnits="userSpaceOnUse">
<stop offset="0.0607" stop-color="#28A8E0"/>
<stop offset="0.9984" stop-color="#29ABE2" stop-opacity="0"/>
</linearGradient>
<linearGradient id="paint42_linear_107_762" x1="327.044" y1="167.762" x2="332.495" y2="167.762" gradientUnits="userSpaceOnUse">
<stop offset="0.0607" stop-color="#28A8E0"/>
<stop offset="0.9984" stop-color="#29ABE2" stop-opacity="0"/>
</linearGradient>
<linearGradient id="paint43_linear_107_762" x1="347.327" y1="171.753" x2="358.862" y2="171.753" gradientUnits="userSpaceOnUse">
<stop offset="0.0607" stop-color="#28A8E0"/>
<stop offset="0.9984" stop-color="#29ABE2" stop-opacity="0"/>
</linearGradient>
<linearGradient id="paint44_linear_107_762" x1="330.221" y1="172.666" x2="347.341" y2="172.666" gradientUnits="userSpaceOnUse">
<stop offset="0.0607" stop-color="#28A8E0"/>
<stop offset="0.9984" stop-color="#29ABE2" stop-opacity="0"/>
</linearGradient>
<linearGradient id="paint45_linear_107_762" x1="327.03" y1="163.757" x2="361.992" y2="163.757" gradientUnits="userSpaceOnUse">
<stop offset="0.0607" stop-color="#28A8E0"/>
<stop offset="0.9984" stop-color="#29ABE2" stop-opacity="0"/>
</linearGradient>
<linearGradient id="paint46_linear_107_762" x1="317.147" y1="170.953" x2="317.159" y2="170.953" gradientUnits="userSpaceOnUse">
<stop offset="0.0607" stop-color="#28A8E0"/>
<stop offset="0.9984" stop-color="#29ABE2" stop-opacity="0"/>
</linearGradient>
<linearGradient id="paint47_linear_107_762" x1="328.669" y1="173.916" x2="330.431" y2="173.916" gradientUnits="userSpaceOnUse">
<stop offset="0.0607" stop-color="#28A8E0"/>
<stop offset="0.9984" stop-color="#29ABE2" stop-opacity="0"/>
</linearGradient>
<linearGradient id="paint48_linear_107_762" x1="308.207" y1="173.916" x2="309.98" y2="173.916" gradientUnits="userSpaceOnUse">
<stop offset="0.0607" stop-color="#28A8E0"/>
<stop offset="0.9984" stop-color="#29ABE2" stop-opacity="0"/>
</linearGradient>
<linearGradient id="paint49_linear_107_762" x1="313.699" y1="176.446" x2="324.99" y2="176.446" gradientUnits="userSpaceOnUse">
<stop offset="0.0607" stop-color="#28A8E0"/>
<stop offset="0.9984" stop-color="#29ABE2" stop-opacity="0"/>
</linearGradient>
<linearGradient id="paint50_linear_107_762" x1="328.711" y1="180.508" x2="332.914" y2="180.508" gradientUnits="userSpaceOnUse">
<stop offset="0.0607" stop-color="#28A8E0"/>
<stop offset="0.9984" stop-color="#29ABE2" stop-opacity="0"/>
</linearGradient>
<linearGradient id="paint51_linear_107_762" x1="305.791" y1="180.508" x2="310.021" y2="180.508" gradientUnits="userSpaceOnUse">
<stop offset="0.0607" stop-color="#28A8E0"/>
<stop offset="0.9984" stop-color="#29ABE2" stop-opacity="0"/>
</linearGradient>
<linearGradient id="paint52_linear_107_762" x1="321.531" y1="183.605" x2="330.483" y2="183.605" gradientUnits="userSpaceOnUse">
<stop offset="0.0607" stop-color="#28A8E0"/>
<stop offset="0.9984" stop-color="#29ABE2" stop-opacity="0"/>
</linearGradient>
<linearGradient id="paint53_linear_107_762" x1="308.257" y1="184.314" x2="321.543" y2="184.314" gradientUnits="userSpaceOnUse">
<stop offset="0.0607" stop-color="#28A8E0"/>
<stop offset="0.9984" stop-color="#29ABE2" stop-opacity="0"/>
</linearGradient>
<linearGradient id="paint54_linear_107_762" x1="305.781" y1="177.4" x2="332.913" y2="177.4" gradientUnits="userSpaceOnUse">
<stop offset="0.0607" stop-color="#28A8E0"/>
<stop offset="0.9984" stop-color="#29ABE2" stop-opacity="0"/>
</linearGradient>
<linearGradient id="paint55_linear_107_762" x1="270.966" y1="186.204" x2="305.102" y2="186.204" gradientUnits="userSpaceOnUse">
<stop stop-color="#BD8AAE"/>
<stop offset="1" stop-color="#2484C6" stop-opacity="0"/>
</linearGradient>
<linearGradient id="paint56_linear_107_762" x1="270.966" y1="186.204" x2="305.102" y2="186.204" gradientUnits="userSpaceOnUse">
<stop stop-color="#BD8AAE"/>
<stop offset="1" stop-color="#2484C6" stop-opacity="0"/>
</linearGradient>
</defs>
</svg>
