<svg width="24" height="25" viewBox="0 0 24 25" fill="none" xmlns="http://www.w3.org/2000/svg">
<path d="M18.335 19.1051H15.67V14.9281C15.67 13.9321 15.65 12.6501 14.28 12.6501C12.891 12.6501 12.679 13.7341 12.679 14.8551V19.1051H10.013V10.5161H12.573V11.6861H12.608C12.966 11.0121 13.836 10.2991 15.136 10.2991C17.836 10.2991 18.336 12.0771 18.336 14.3901V19.1051H18.335ZM7.003 9.34111C6.79956 9.34138 6.59806 9.30148 6.41006 9.22372C6.22207 9.14596 6.05127 9.03185 5.90746 8.88795C5.76365 8.74405 5.64965 8.57317 5.57201 8.38513C5.49437 8.19708 5.4546 7.99556 5.455 7.79211C5.4552 7.48595 5.54618 7.18672 5.71644 6.93226C5.8867 6.6778 6.12859 6.47955 6.41153 6.36257C6.69447 6.24558 7.00574 6.21513 7.30598 6.27505C7.60622 6.33498 7.88196 6.48259 8.09831 6.69922C8.31466 6.91585 8.46191 7.19177 8.52145 7.49209C8.58099 7.79242 8.55013 8.10365 8.43278 8.38643C8.31543 8.66922 8.11687 8.91085 7.86219 9.08078C7.60751 9.25072 7.30817 9.34131 7.002 9.34111H7.003ZM8.339 19.1051H5.666V10.5161H8.34V19.1051H8.339ZM19.67 3.76611H4.329C3.593 3.76611 3 4.34611 3 5.06311V20.4691C3 21.1861 3.594 21.7661 4.328 21.7661H19.666C20.4 21.7661 21 21.1861 21 20.4691V5.06311C21 4.34611 20.4 3.76611 19.666 3.76611H19.669H19.67Z" fill="white"/>
</svg>
