<svg width="24" height="25" viewBox="0 0 24 25" fill="none" xmlns="http://www.w3.org/2000/svg">
<path d="M12 9.76611C11.2044 9.76611 10.4413 10.0822 9.87868 10.6448C9.31607 11.2074 9 11.9705 9 12.7661C9 13.5618 9.31607 14.3248 9.87868 14.8874C10.4413 15.45 11.2044 15.7661 12 15.7661C12.7956 15.7661 13.5587 15.45 14.1213 14.8874C14.6839 14.3248 15 13.5618 15 12.7661C15 11.9705 14.6839 11.2074 14.1213 10.6448C13.5587 10.0822 12.7956 9.76611 12 9.76611ZM12 7.76611C13.3261 7.76611 14.5979 8.2929 15.5355 9.23058C16.4732 10.1683 17 11.44 17 12.7661C17 14.0922 16.4732 15.364 15.5355 16.3016C14.5979 17.2393 13.3261 17.7661 12 17.7661C10.6739 17.7661 9.40215 17.2393 8.46447 16.3016C7.52678 15.364 7 14.0922 7 12.7661C7 11.44 7.52678 10.1683 8.46447 9.23058C9.40215 8.2929 10.6739 7.76611 12 7.76611ZM18.5 7.51611C18.5 7.84763 18.3683 8.16558 18.1339 8.4C17.8995 8.63442 17.5815 8.76611 17.25 8.76611C16.9185 8.76611 16.6005 8.63442 16.3661 8.4C16.1317 8.16558 16 7.84763 16 7.51611C16 7.18459 16.1317 6.86665 16.3661 6.63223C16.6005 6.39781 16.9185 6.26611 17.25 6.26611C17.5815 6.26611 17.8995 6.39781 18.1339 6.63223C18.3683 6.86665 18.5 7.18459 18.5 7.51611ZM12 4.76611C9.526 4.76611 9.122 4.77311 7.971 4.82411C7.187 4.86111 6.661 4.96611 6.173 5.15611C5.739 5.32411 5.426 5.52511 5.093 5.85911C4.78001 6.16151 4.53935 6.5307 4.389 6.93911C4.199 7.42911 4.094 7.95411 4.058 8.73711C4.006 9.84111 4 10.2271 4 12.7661C4 15.2401 4.007 15.6441 4.058 16.7951C4.095 17.5781 4.2 18.1051 4.389 18.5921C4.559 19.0271 4.759 19.3401 5.091 19.6721C5.428 20.0081 5.741 20.2091 6.171 20.3751C6.665 20.5661 7.191 20.6721 7.971 20.7081C9.075 20.7601 9.461 20.7661 12 20.7661C14.474 20.7661 14.878 20.7591 16.029 20.7081C16.811 20.6711 17.338 20.5661 17.826 20.3771C18.259 20.2081 18.574 20.0071 18.906 19.6751C19.243 19.3381 19.444 19.0251 19.61 18.5951C19.8 18.1021 19.906 17.5751 19.942 16.7951C19.994 15.6911 20 15.3051 20 12.7661C20 10.2921 19.993 9.88811 19.942 8.73711C19.905 7.95511 19.8 7.42711 19.61 6.93911C19.4593 6.53112 19.2191 6.16207 18.907 5.85911C18.6047 5.54596 18.2355 5.30528 17.827 5.15511C17.337 4.96511 16.811 4.86011 16.029 4.82411C14.925 4.77211 14.539 4.76611 12 4.76611ZM12 2.76611C14.717 2.76611 15.056 2.77611 16.122 2.82611C17.187 2.87611 17.912 3.04311 18.55 3.29111C19.21 3.54511 19.766 3.88911 20.322 4.44411C20.8305 4.94401 21.224 5.5487 21.475 6.21611C21.722 6.85311 21.89 7.57911 21.94 8.64411C21.987 9.71011 22 10.0491 22 12.7661C22 15.4831 21.99 15.8221 21.94 16.8881C21.89 17.9531 21.722 18.6781 21.475 19.3161C21.2247 19.9839 20.8311 20.5887 20.322 21.0881C19.822 21.5964 19.2173 21.9899 18.55 22.2411C17.913 22.4881 17.187 22.6561 16.122 22.7061C15.056 22.7531 14.717 22.7661 12 22.7661C9.283 22.7661 8.944 22.7561 7.878 22.7061C6.813 22.6561 6.088 22.4881 5.45 22.2411C4.78233 21.9906 4.17753 21.5971 3.678 21.0881C3.16941 20.5883 2.77593 19.9836 2.525 19.3161C2.277 18.6791 2.11 17.9531 2.06 16.8881C2.013 15.8221 2 15.4831 2 12.7661C2 10.0491 2.01 9.71011 2.06 8.64411C2.11 7.57811 2.277 6.85411 2.525 6.21611C2.77524 5.54829 3.1688 4.94343 3.678 4.44411C4.17767 3.93534 4.78243 3.54184 5.45 3.29111C6.088 3.04311 6.812 2.87611 7.878 2.82611C8.944 2.77911 9.283 2.76611 12 2.76611Z" fill="white"/>
</svg>
