<svg width="1920" height="772" viewBox="0 0 1920 772" fill="none" xmlns="http://www.w3.org/2000/svg">
<g clip-path="url(#clip0_13_2135)">
<path d="M1698.21 196.395C1698.21 194.781 1699.54 193.474 1701.18 193.474C1702.82 193.474 1704.15 194.781 1704.15 196.395C1704.15 198.008 1702.82 199.32 1701.18 199.32C1699.54 199.32 1698.21 198.008 1698.21 196.395Z" fill="#E54884"/>
<path d="M1572.08 345.039C1572.08 342.677 1574.02 340.762 1576.42 340.762C1578.82 340.762 1580.77 342.677 1580.77 345.039C1580.77 347.4 1578.82 349.316 1576.42 349.316C1574.02 349.316 1572.08 347.4 1572.08 345.039Z" stroke="#4BDFEA" stroke-width="4"/>
<path d="M1552.47 282.272C1552.47 279.911 1554.41 277.995 1556.81 277.995C1559.21 277.995 1561.15 279.911 1561.15 282.272C1561.15 284.634 1559.21 286.549 1556.81 286.549C1554.41 286.549 1552.47 284.634 1552.47 282.272Z" stroke="#4BDFEA" stroke-width="4"/>
<path d="M1516.5 313.49L1511.27 311.901L1516.5 310.312L1518.11 305.166L1519.72 310.312L1524.95 311.901L1519.72 313.49L1518.11 318.636L1516.5 313.49Z" fill="#F44D99"/>
<path d="M856.968 0.133363C858.868 -1.30303 861.597 -0.952908 863.06 0.918027C864.523 2.78896 864.163 5.47663 862.263 6.91303C860.363 8.35345 857.638 8.00342 856.175 6.13249C854.713 4.26155 855.068 1.57378 856.968 0.133363Z" stroke="#4BDFEA" stroke-width="4"/>
<path d="M721.19 170.955C722.49 169.973 724.353 170.21 725.354 171.49C726.351 172.769 726.11 174.604 724.811 175.59C723.511 176.572 721.648 176.334 720.647 175.055C719.65 173.775 719.891 171.94 721.19 170.955Z" fill="#E54884"/>
<path d="M636.318 226.253C638.218 224.817 640.947 225.167 642.41 227.038C643.873 228.909 643.513 231.597 641.613 233.033C639.713 234.473 636.988 234.123 635.525 232.252C634.062 230.381 634.418 227.694 636.318 226.253Z" stroke="#4BDFEA" stroke-width="4"/>
<path d="M674.891 172.68C676.791 171.24 679.516 171.59 680.979 173.465C682.442 175.336 682.086 178.02 680.182 179.46C678.282 180.901 675.557 180.551 674.094 178.68C672.631 176.805 672.987 174.121 674.891 172.68Z" stroke="#4BDFEA" stroke-width="4"/>
<path d="M627.83 163.64L625.922 158.59L630.388 161.7L635.517 159.821L632.354 164.219L634.262 169.269L629.796 166.154L624.668 168.037L627.83 163.64Z" fill="#F44D99"/>
<path d="M162.424 277.102L160.516 272.052L164.981 275.163L170.109 273.284L166.947 277.681L168.855 282.731L164.389 279.617L159.261 281.5L162.424 277.102Z" fill="#F44D99"/>
<path d="M1088.6 581.427C1088.6 580.32 1089.52 579.419 1090.64 579.419C1091.77 579.419 1092.68 580.32 1092.68 581.427C1092.68 582.537 1091.77 583.438 1090.64 583.438C1089.52 583.438 1088.6 582.537 1088.6 581.427Z" fill="#F44D99"/>
<path d="M1097.38 537.418C1097.38 536.295 1098.31 535.382 1099.45 535.382C1100.59 535.382 1101.51 536.295 1101.51 537.418C1101.51 538.54 1100.59 539.449 1099.45 539.449C1098.31 539.449 1097.38 538.54 1097.38 537.418Z" fill="#FFE843"/>
<path d="M773.652 703.314C772.733 702.799 772.414 701.648 772.933 700.743C773.456 699.842 774.625 699.524 775.544 700.039C776.459 700.554 776.782 701.704 776.259 702.61C775.736 703.511 774.568 703.829 773.652 703.314Z" fill="#FFE843"/>
<path d="M794.082 726.526L787.609 724.558L794.082 722.595L796.08 716.218L798.074 722.595L804.547 724.558L798.074 726.526L796.08 732.899L794.082 726.526Z" fill="#F44D99"/>
<path d="M322.415 407.628C322.415 406.014 323.743 404.707 325.385 404.707C327.024 404.707 328.352 406.014 328.352 407.628C328.352 409.241 327.024 410.553 325.385 410.553C323.743 410.553 322.415 409.241 322.415 407.628Z" fill="#E54884"/>
<path d="M315.19 507.588C315.19 505.226 317.135 503.311 319.533 503.311C321.932 503.311 323.877 505.226 323.877 507.588C323.877 509.95 321.932 511.865 319.533 511.865C317.135 511.865 315.19 509.95 315.19 507.588Z" stroke="#4BDFEA" stroke-width="4"/>
<path d="M281.684 458.501C281.684 456.139 283.629 454.224 286.028 454.224C288.426 454.224 290.371 456.139 290.371 458.501C290.371 460.863 288.426 462.778 286.028 462.778C283.629 462.778 281.684 460.863 281.684 458.501Z" stroke="#4BDFEA" stroke-width="4"/>
<path d="M187.695 492.133L182.465 490.544L187.695 488.955L189.305 483.809L190.919 488.955L196.149 490.544L190.919 492.133L189.305 497.28L187.695 492.133Z" fill="#F44D99"/>
<path d="M365.932 430.087L357.008 427.375L365.932 424.663L368.686 415.876L371.44 424.663L380.364 427.375L371.44 430.087L368.686 438.874L365.932 430.087Z" fill="#F44D99"/>
<path d="M1582.16 731.519C1582.16 729.905 1583.49 728.598 1585.13 728.598C1586.77 728.598 1588.1 729.905 1588.1 731.519C1588.1 733.132 1586.77 734.444 1585.13 734.444C1583.49 734.444 1582.16 733.132 1582.16 731.519Z" fill="#E54884"/>
<path d="M1625.68 753.977L1616.76 751.266L1625.68 748.554L1628.43 739.766L1631.19 748.554L1640.11 751.266L1631.19 753.977L1628.43 762.765L1625.68 753.977Z" fill="#F44D99"/>
<path d="M946.078 322.632C946.078 321.461 947.042 320.512 948.231 320.512C949.421 320.512 950.385 321.461 950.385 322.632C950.385 323.803 949.421 324.752 948.231 324.752C947.042 324.752 946.078 323.803 946.078 322.632Z" fill="#E54884"/>
<path d="M844.407 689.646C844.407 687.932 845.817 686.544 847.558 686.544C849.298 686.544 850.708 687.932 850.708 689.646C850.708 691.36 849.298 692.749 847.558 692.749C845.817 692.749 844.407 691.36 844.407 689.646Z" stroke="#4BDFEA" stroke-width="2.901"/>
<path d="M820.107 654.047C820.107 652.333 821.517 650.945 823.258 650.945C824.999 650.945 826.408 652.333 826.408 654.047C826.408 655.757 824.999 657.149 823.258 657.149C821.517 657.149 820.107 655.757 820.107 654.047Z" stroke="#4BDFEA" stroke-width="2.901"/>
<path d="M1825.52 409.748C1824.25 409.04 1823.81 407.455 1824.53 406.208C1825.25 404.961 1826.86 404.526 1828.13 405.238C1829.39 405.946 1829.83 407.532 1829.11 408.779C1828.39 410.026 1826.78 410.46 1825.52 409.748Z" fill="#FFE843"/>
<path d="M977.643 338.919L971.166 336.952L977.643 334.988L979.637 328.611L981.635 334.988L988.107 336.952L981.635 338.919L979.637 345.292L977.643 338.919Z" fill="#F44D99"/>
<path d="M124.875 754.561C123.609 753.853 123.167 752.267 123.886 751.02C124.61 749.773 126.22 749.338 127.487 750.051C128.749 750.759 129.195 752.344 128.471 753.591C127.752 754.838 126.142 755.273 124.875 754.561Z" fill="#FFE843"/>
<path d="M37.8167 706.098L28.8927 703.387L37.8167 700.675L40.5709 691.887L43.3248 700.675L52.249 703.387L43.3248 706.098L40.5709 714.886L37.8167 706.098Z" fill="#F44D99"/>
<path d="M496.466 730.163C496.466 726.289 499.657 723.146 503.592 723.146C507.527 723.146 510.719 726.289 510.719 730.163C510.719 734.042 507.527 737.184 503.592 737.184C499.657 737.184 496.466 734.042 496.466 730.163Z" stroke="#4BDFEA" stroke-width="4.759"/>
<path d="M1794.42 21.6914C1792.33 20.5246 1791.6 17.9132 1792.79 15.8612C1793.98 13.8051 1796.63 13.0889 1798.71 14.2598C1800.8 15.4266 1801.53 18.038 1800.34 20.09C1799.16 22.1421 1796.5 22.8583 1794.42 21.6914Z" fill="#4BDFEA"/>
<path d="M1921.52 114.646L1912.59 111.934L1921.52 109.222L1924.27 100.435L1927.02 109.222L1935.95 111.934L1927.02 114.646L1924.27 123.433L1921.52 114.646Z" fill="#F44D99"/>
<path d="M1901.26 -0.848617C1902.56 -1.83033 1904.42 -1.59292 1905.42 -0.313471C1906.42 0.965973 1906.18 2.80062 1904.88 3.78636C1903.58 4.76807 1901.72 4.53066 1900.72 3.25121C1899.72 1.97177 1899.96 0.137119 1901.26 -0.848617Z" fill="#E54884"/>
<path d="M1237.48 89.6883C1235.4 88.5215 1234.67 85.9102 1235.86 83.8582C1237.04 81.8022 1239.69 81.086 1241.78 82.2568C1243.86 83.4237 1244.59 86.0349 1243.4 88.0869C1242.22 90.1389 1239.57 90.8551 1237.48 89.6883Z" fill="#4BDFEA"/>
<path d="M1344.32 67.1485C1345.62 66.1669 1347.49 66.4043 1348.49 67.6837C1349.48 68.9631 1349.24 70.7977 1347.94 71.7834C1346.64 72.7651 1344.78 72.5277 1343.78 71.2483C1342.78 69.9689 1343.02 68.1343 1344.32 67.1485Z" fill="#E54884"/>
<path d="M1317.64 2.48722C1319.54 1.04682 1322.26 1.39684 1323.72 3.27178C1325.19 5.1427 1324.83 7.82642 1322.93 9.26683C1321.03 10.7072 1318.3 10.3571 1316.84 8.4862C1315.38 6.61126 1315.73 3.92763 1317.64 2.48722Z" stroke="#E1E84D" stroke-width="4"/>
<path d="M457.644 29.3436C457.644 27.1225 459.471 25.324 461.726 25.324C463.978 25.324 465.809 27.1225 465.809 29.3436C465.809 31.5647 463.978 33.3633 461.726 33.3633C459.471 33.3633 457.644 31.5647 457.644 29.3436Z" fill="#F44D99"/>
<path d="M423.962 7.78963C423.962 6.36134 425.139 5.20265 426.589 5.20265C428.04 5.20265 429.217 6.36134 429.217 7.78963C429.217 9.21792 428.04 10.3767 426.589 10.3767C425.139 10.3767 423.962 9.21791 423.962 7.78963Z" fill="#FFE843"/>
<path d="M377.557 13.25C377.557 11.8216 378.734 10.6628 380.184 10.6628C381.635 10.6628 382.812 11.8216 382.812 13.25C382.812 14.6784 381.635 15.8372 380.184 15.8372C378.734 15.8372 377.557 14.6784 377.557 13.25Z" fill="#FFE843"/>
<path d="M417.686 145.28L412.276 143.639L417.686 141.997L419.353 136.666L421.024 141.997L426.435 143.639L421.024 145.28L419.353 150.612L417.686 145.28Z" fill="#FFE843"/>
<path d="M1823.75 621.863C1824.57 621.239 1825.75 621.392 1826.38 622.201C1827.01 623.01 1826.86 624.169 1826.03 624.792C1825.21 625.412 1824.04 625.263 1823.4 624.454C1822.77 623.646 1822.93 622.487 1823.75 621.863Z" fill="#E54884"/>
<path d="M1770.11 656.81C1771.31 655.901 1773.03 656.122 1773.96 657.305C1774.88 658.488 1774.66 660.186 1773.46 661.095C1772.26 662.005 1770.53 661.783 1769.61 660.6C1768.69 659.417 1768.91 657.72 1770.11 656.81Z" stroke="#4BDFEA" stroke-width="2.528"/>
<path d="M1794.49 622.953C1795.69 622.044 1797.41 622.265 1798.33 623.448C1799.26 624.631 1799.03 626.329 1797.83 627.238C1796.63 628.148 1794.91 627.926 1793.98 626.743C1793.06 625.561 1793.28 623.863 1794.49 622.953Z" stroke="#4BDFEA" stroke-width="2.528"/>
<path d="M1764.75 617.24L1763.54 614.049L1766.36 616.016L1769.61 614.826L1767.6 617.606L1768.81 620.796L1765.99 618.829L1762.75 620.02L1764.75 617.24Z" fill="#F44D99"/>
<path d="M1386.9 238.698C1386.9 237.028 1388.27 235.677 1389.96 235.677C1391.66 235.677 1393.03 237.028 1393.03 238.698C1393.03 240.364 1391.66 241.716 1389.96 241.716C1388.27 241.716 1386.9 240.364 1386.9 238.698Z" stroke="#4BDFEA" stroke-width="2.824"/>
<path d="M1533.07 550.945C1531.65 550.764 1530.64 549.48 1530.83 548.08C1531.02 546.68 1532.32 545.694 1533.74 545.875C1535.16 546.06 1536.17 547.344 1535.98 548.74C1535.79 550.14 1534.49 551.126 1533.07 550.945Z" fill="#E54884"/>
<path d="M1620.28 568.427C1618.2 568.161 1616.74 566.282 1617 564.234C1617.27 562.186 1619.18 560.742 1621.26 561.011C1623.34 561.277 1624.81 563.156 1624.54 565.204C1624.27 567.252 1622.36 568.692 1620.28 568.427Z" stroke="#4BDFEA" stroke-width="3.498"/>
<path d="M1562.79 578.071C1560.71 577.801 1559.24 575.927 1559.51 573.879C1559.78 571.831 1561.69 570.386 1563.77 570.652C1565.85 570.921 1567.31 572.796 1567.04 574.844C1566.77 576.892 1564.87 578.337 1562.79 578.071Z" stroke="#4BDFEA" stroke-width="3.498"/>
<path d="M1586.2 612.315L1584.21 616.6L1583.41 611.957L1579.06 609.994L1583.77 609.201L1585.76 604.916L1586.57 609.559L1590.92 611.518L1586.2 612.315Z" fill="#F44D99"/>
<path d="M1407.14 360.774C1407.53 362.159 1406.7 363.587 1405.3 363.965C1403.89 364.347 1402.44 363.535 1402.05 362.151C1401.67 360.766 1402.49 359.338 1403.9 358.96C1405.3 358.578 1406.75 359.39 1407.14 360.774Z" fill="#FFE843"/>
<path d="M1258.49 448.157C1257.46 448.028 1256.74 447.098 1256.87 446.089C1257.01 445.075 1257.95 444.362 1258.97 444.495C1260 444.628 1260.73 445.553 1260.59 446.567C1260.46 447.577 1259.52 448.289 1258.49 448.157Z" fill="#E54884"/>
<path d="M1321.51 460.79C1320.01 460.597 1318.95 459.241 1319.15 457.761C1319.34 456.28 1320.72 455.238 1322.23 455.431C1323.72 455.624 1324.79 456.98 1324.59 458.461C1324.39 459.942 1323.01 460.984 1321.51 460.79Z" stroke="#4BDFEA" stroke-width="2.528"/>
<path d="M1279.96 467.759C1278.46 467.566 1277.4 466.21 1277.6 464.729C1277.79 463.249 1279.17 462.207 1280.67 462.4C1282.18 462.593 1283.24 463.949 1283.04 465.43C1282.84 466.91 1281.47 467.952 1279.96 467.759Z" stroke="#4BDFEA" stroke-width="2.528"/>
<path d="M1296.89 492.508L1295.45 495.606L1294.87 492.25L1291.72 490.834L1295.13 490.259L1296.57 487.161L1297.15 490.52L1300.29 491.936L1296.89 492.508Z" fill="#F44D99"/>
<path d="M943.198 431.524C944.072 432.642 943.859 434.248 942.723 435.109C941.588 435.97 939.957 435.76 939.083 434.642C938.208 433.523 938.425 431.918 939.561 431.057C940.697 430.196 942.323 430.405 943.198 431.524Z" fill="#E54884"/>
<path d="M894.086 358.441C895.365 360.079 895.054 362.424 893.391 363.684C891.728 364.943 889.342 364.637 888.063 363C886.788 361.362 887.099 359.016 888.762 357.757C890.421 356.498 892.807 356.803 894.086 358.441Z" stroke="#4BDFEA" stroke-width="3.498"/>
<path d="M941.665 391.655C942.944 393.292 942.634 395.638 940.971 396.897C939.307 398.157 936.925 397.851 935.646 396.213C934.367 394.576 934.678 392.23 936.341 390.971C938.004 389.712 940.386 390.017 941.665 391.655Z" stroke="#4BDFEA" stroke-width="3.498"/>
<path d="M949.698 351.13L954.181 349.488L951.414 353.335L953.086 357.749L949.179 355.025L944.697 356.671L947.459 352.824L945.792 348.41L949.698 351.13Z" fill="#F44D99"/>
<path d="M866.602 422.624C866.602 420.057 868.719 417.972 871.326 417.972C873.937 417.972 876.054 420.057 876.054 422.624C876.054 425.195 873.937 427.279 871.326 427.279C868.719 427.279 866.602 425.195 866.602 422.624Z" fill="#F44D99"/>
<path d="M827.609 397.67C827.609 396.016 828.97 394.676 830.649 394.676C832.329 394.676 833.693 396.016 833.693 397.67C833.693 399.327 832.329 400.667 830.649 400.667C828.97 400.667 827.609 399.327 827.609 397.67Z" fill="#FFE843"/>
<path d="M773.884 403.991C773.884 402.337 775.245 400.997 776.924 400.997C778.604 400.997 779.969 402.337 779.969 403.991C779.969 405.648 778.604 406.988 776.924 406.988C775.245 406.988 773.884 405.648 773.884 403.991Z" fill="#FFE843"/>
<path d="M0.0609133 -0.128204C0.0609134 -1.28294 1.0131 -2.2204 2.18587 -2.2204C3.35864 -2.2204 4.30664 -1.28294 4.30664 -0.128203C4.30664 1.02251 3.35864 1.95996 2.18587 1.95996C1.0131 1.95996 0.0609132 1.02251 0.0609133 -0.128204Z" fill="#F44D99"/>
<path d="M1082.9 309.805C1082.9 307.133 1085.1 304.969 1087.81 304.969C1090.53 304.969 1092.73 307.133 1092.73 309.805C1092.73 312.481 1090.53 314.645 1087.81 314.645C1085.1 314.645 1082.9 312.481 1082.9 309.805Z" fill="#F44D99"/>
<path d="M1437.47 251.662C1437.47 249.944 1438.88 248.548 1440.63 248.548C1442.38 248.548 1443.79 249.944 1443.79 251.662C1443.79 253.384 1442.38 254.78 1440.63 254.78C1438.88 254.78 1437.47 253.384 1437.47 251.662Z" fill="#FFE843"/>
<path d="M27.0414 751.692C27.0414 750.023 28.4144 748.671 30.1061 748.671C31.802 748.671 33.1709 750.023 33.1709 751.692C33.1709 753.358 31.802 754.71 30.1061 754.71C28.4144 754.71 27.0414 753.358 27.0414 751.692Z" stroke="#4BDFEA" stroke-width="2.824"/>
<path d="M77.6071 764.656C77.6071 762.938 79.025 761.542 80.7739 761.542C82.5187 761.542 83.9365 762.938 83.9365 764.656C83.9365 766.378 82.5187 767.774 80.7739 767.774C79.025 767.774 77.6071 766.378 77.6071 764.656Z" fill="#FFE843"/>
<path d="M988.198 289.571C988.198 288.324 989.227 287.31 990.494 287.31C991.761 287.31 992.786 288.324 992.786 289.571C992.786 290.818 991.761 291.832 990.494 291.832C989.227 291.832 988.198 290.818 988.198 289.571Z" fill="#FFE843"/>
<path d="M1034.78 449.416L1028.27 447.436L1034.78 445.461L1036.79 439.043L1038.8 445.461L1045.32 447.436L1038.8 449.416L1036.79 455.833L1034.78 449.416Z" fill="#FFE843"/>
<path d="M717.644 425.432C716.802 425.432 716.12 424.76 716.12 423.931C716.12 423.103 716.802 422.427 717.644 422.427C718.486 422.427 719.168 423.103 719.168 423.931C719.168 424.76 718.486 425.432 717.644 425.432Z" fill="#FFE843"/>
<path d="M556.491 535.499C555.613 535.499 554.902 534.798 554.902 533.933C554.902 533.068 555.613 532.368 556.491 532.368C557.37 532.368 558.081 533.068 558.081 533.933C558.081 534.798 557.37 535.499 556.491 535.499Z" fill="#E54884"/>
<path d="M568.714 512.536L567.239 517.248L565.764 512.536L560.979 511.084L565.764 509.631L567.239 504.924L568.714 509.631L573.494 511.084L568.714 512.536Z" fill="#F44D99"/>
<path d="M546.869 435.966C544.866 435.966 543.24 434.364 543.24 432.393C543.24 430.417 544.866 428.816 546.869 428.816C548.875 428.816 550.501 430.417 550.501 432.393C550.501 434.364 548.875 435.966 546.869 435.966Z" fill="#F44D99"/>
<path d="M531.689 504.86C530.754 504.86 529.994 504.111 529.994 503.19C529.994 502.269 530.754 501.52 531.689 501.52C532.625 501.52 533.385 502.269 533.385 503.19C533.385 504.111 532.625 504.86 531.689 504.86Z" fill="#FFE843"/>
<path d="M651.62 470.97L650.133 475.709L648.649 470.97L643.836 469.509L648.649 468.045L650.133 463.305L651.62 468.045L656.434 469.509L651.62 470.97Z" fill="#FFE843"/>
<path d="M1812.93 239.7C1812.93 237.145 1815.03 235.068 1817.64 235.068C1820.24 235.068 1822.34 237.145 1822.34 239.7C1822.34 242.262 1820.24 244.339 1817.64 244.339C1815.03 244.339 1812.93 242.262 1812.93 239.7Z" fill="#FFE843"/>
<path d="M1096.63 123.421C1096.63 120.866 1098.74 118.79 1101.34 118.79C1103.94 118.79 1106.04 120.866 1106.04 123.421C1106.04 125.984 1103.94 128.06 1101.34 128.06C1098.74 128.06 1096.63 125.984 1096.63 123.421Z" fill="#FFE843"/>
<path d="M1884.81 476.2L1875.12 473.259L1884.81 470.314L1887.8 460.77L1890.79 470.314L1900.48 473.259L1890.79 476.2L1887.8 485.748L1884.81 476.2Z" fill="#FFE843"/>
<path d="M1712.15 554.051C1712.15 551.399 1714.33 549.251 1717.03 549.251C1719.72 549.251 1721.9 551.399 1721.9 554.051C1721.9 556.698 1719.72 558.847 1717.03 558.847C1714.33 558.847 1712.15 556.698 1712.15 554.051Z" stroke="#4BDFEA" stroke-width="4.489"/>
<path d="M1674.55 498.969C1674.55 496.318 1676.74 494.169 1679.43 494.169C1682.12 494.169 1684.3 496.318 1684.3 498.969C1684.3 501.617 1682.12 503.765 1679.43 503.765C1676.74 503.765 1674.55 501.617 1674.55 498.969Z" stroke="#4BDFEA" stroke-width="4.489"/>
<path d="M985.864 657.66L984.377 662.4L982.894 657.66L978.08 656.2L982.894 654.735L984.377 649.996L985.864 654.735L990.678 656.2L985.864 657.66Z" fill="#FFE843"/>
<path d="M601.643 668.962C601.643 666.745 603.469 664.942 605.721 664.942C607.976 664.942 609.803 666.745 609.803 668.962C609.803 671.182 607.976 672.981 605.721 672.981C603.469 672.981 601.643 671.182 601.643 668.962Z" stroke="#F44D99" stroke-width="2"/>
<path d="M1429.06 748.377C1428.15 747.862 1427.83 746.712 1428.35 745.806C1428.87 744.905 1430.04 744.587 1430.96 745.102C1431.87 745.617 1432.19 746.768 1431.67 747.673C1431.15 748.574 1429.98 748.892 1429.06 748.377Z" fill="#FFE843"/>
<path d="M1449.5 771.589L1443.02 769.621L1449.5 767.658L1451.49 761.281L1453.49 767.658L1459.96 769.621L1453.49 771.589L1451.49 777.962L1449.5 771.589Z" fill="#F44D99"/>
<path d="M1499.82 734.709C1499.82 732.995 1501.23 731.607 1502.97 731.607C1504.71 731.607 1506.12 732.995 1506.12 734.709C1506.12 736.423 1504.71 737.812 1502.97 737.812C1501.23 737.812 1499.82 736.423 1499.82 734.709Z" stroke="#4BDFEA" stroke-width="2.901"/>
<path d="M1475.52 699.11C1475.52 697.396 1476.93 696.008 1478.67 696.008C1480.41 696.008 1481.82 697.396 1481.82 699.11C1481.82 700.82 1480.41 702.212 1478.67 702.212C1476.93 702.212 1475.52 700.82 1475.52 699.11Z" stroke="#4BDFEA" stroke-width="2.901"/>
<path d="M1257.06 714.024C1257.06 711.808 1258.88 710.005 1261.13 710.005C1263.39 710.005 1265.22 711.808 1265.22 714.024C1265.22 716.245 1263.39 718.044 1261.13 718.044C1258.88 718.044 1257.06 716.245 1257.06 714.024Z" stroke="#F44D99" stroke-width="2"/>
<path d="M83.6912 185.185C83.6912 182.965 85.5177 181.166 87.7693 181.166C90.0249 181.166 91.8516 182.965 91.8516 185.185C91.8516 187.402 90.0249 189.201 87.7693 189.201C85.5177 189.201 83.6912 187.402 83.6912 185.185Z" fill="#F44D99"/>
<path d="M261.102 196.379C261.102 194.343 262.777 192.693 264.841 192.693C266.909 192.693 268.584 194.343 268.584 196.379C268.584 198.411 266.909 200.06 264.841 200.06C262.777 200.06 261.102 198.411 261.102 196.379Z" fill="#FFE843"/>
<path d="M201.188 65.7361C201.188 63.3743 203.133 61.4632 205.532 61.4632C207.93 61.4632 209.875 63.3743 209.875 65.7361C209.875 68.0979 207.93 70.0132 205.532 70.0132C203.133 70.0132 201.188 68.0979 201.188 65.7361Z" stroke="#4BDFEA" stroke-width="6"/>
<path d="M122.494 95.1237C121.227 94.4116 120.786 92.8263 121.509 91.5791C122.228 90.3358 123.838 89.8973 125.105 90.6094C126.371 91.3176 126.813 92.9028 126.094 94.1501C125.37 95.3973 123.76 95.8318 122.494 95.1237Z" fill="#FFE843"/>
<path d="M134.22 392.065L132.913 388.122L128.908 386.835L132.913 385.551L134.22 381.604L135.524 385.551L139.532 386.835L135.524 388.122L134.22 392.065Z" fill="#FFE843"/>
<path d="M549.848 661.1C547.596 661.1 545.77 659.301 545.77 657.08C545.77 654.863 547.596 653.061 549.848 653.061C552.103 653.061 553.93 654.863 553.93 657.08C553.93 659.301 552.103 661.1 549.848 661.1Z" fill="#F44D99"/>
<path d="M209.651 887.111C208.307 885.441 295.243 814.853 297.376 813.183L423.783 713.687C425.916 712.017 429.97 711.703 429.32 713.884C428.674 716.064 430.799 718.076 428.666 719.746L304.841 817.018" fill="url(#paint0_linear_13_2135)"/>
<path d="M1580.21 123.888C1579.33 122.797 1635.94 76.8331 1637.33 75.7468L1719.64 10.9607C1721.03 9.87038 1723.67 9.66923 1723.25 11.0855C1722.83 12.5058 1724.21 13.8174 1722.82 14.9038L1642.19 78.2413" fill="url(#paint1_linear_13_2135)"/>
<path d="M1224.31 743.505C1223.43 742.415 1280.04 696.45 1281.43 695.364L1363.74 630.578C1365.13 629.487 1367.77 629.286 1367.35 630.702C1366.93 632.123 1368.31 633.434 1366.92 634.521L1286.29 697.858" fill="url(#paint2_linear_13_2135)"/>
<path d="M308.611 686.773C307.732 685.683 364.345 639.719 365.731 638.632L448.042 573.842C449.435 572.756 452.07 572.555 451.65 573.971C451.229 575.391 452.61 576.703 451.225 577.789L370.593 641.127" fill="url(#paint3_linear_13_2135)"/>
<path d="M171.87 57.593C171.147 56.6958 217.831 18.7945 218.975 17.8972L286.849 -35.5268C287.993 -36.424 290.171 -36.589 289.824 -35.4221L289.82 -35.4181C289.473 -34.2473 290.613 -33.169 289.469 -32.2717L222.983 19.9572" fill="url(#paint4_linear_13_2135)"/>
<path d="M1687.48 703.419C1687.48 694.245 1695.02 686.81 1704.32 686.81C1713.62 686.81 1721.16 694.245 1721.16 703.419C1721.16 712.589 1713.62 720.024 1704.32 720.024C1695.02 720.024 1687.48 712.589 1687.48 703.419Z" fill="#FFBC4A"/>
<path d="M1701 687.184C1701.82 687.184 1702.48 687.985 1702.48 688.995C1702.48 690.005 1701.82 690.805 1701 690.805L1696.57 690.805C1695.8 690.805 1695.17 691.473 1695.17 692.483C1695.17 693.248 1695.53 694.024 1696.04 694.024L1711.53 694.024C1712.41 694.024 1713.13 695.026 1713.13 696.036C1713.13 697.046 1712.41 698.048 1711.53 698.048L1699.76 698.048C1699.14 698.048 1698.67 699.009 1698.67 699.882C1698.67 700.691 1699.07 700.864 1699.63 701.669L1706.08 701.669C1706.83 701.669 1707.43 702.469 1707.43 703.479C1707.43 704.489 1706.83 705.29 1706.08 705.29L1697.68 705.29C1697.04 705.29 1696.53 705.934 1696.53 706.944C1696.53 707.756 1696.86 708.509 1697.32 708.509L1706.13 708.509C1706.85 708.509 1707.43 709.511 1707.43 710.52C1707.43 711.53 1706.85 712.532 1706.13 712.532L1697.44 712.532C1696.79 712.532 1696.25 713.176 1696.25 714.186C1696.25 714.999 1696.6 715.751 1697.07 715.751L1701.9 715.751C1702.56 715.751 1703.09 716.552 1703.09 717.562C1703.09 718.571 1702.56 719.372 1701.9 719.372L1700.68 719.372C1701.85 719.774 1703.07 719.891 1704.32 719.891C1713.62 719.891 1721.16 712.524 1721.16 703.351C1721.16 694.181 1713.62 686.746 1704.32 686.746C1702.99 686.746 1701.69 687.184 1700.45 687.184L1701 687.184Z" fill="#FF9151"/>
<path d="M247.547 751.902C247.547 741.296 256.267 732.698 267.026 732.698C277.78 732.698 286.5 741.296 286.5 751.902C286.5 762.508 277.78 771.106 267.026 771.106C256.267 771.106 247.547 762.508 247.547 751.902Z" fill="#FFBC4A"/>
<path d="M263.19 733.128C264.134 733.128 264.902 734.054 264.902 735.224C264.902 736.391 264.134 737.317 263.19 737.317L258.062 737.317C257.171 737.317 256.444 738.089 256.444 739.256C256.444 740.141 256.86 741.038 257.449 741.038L275.358 741.038C276.384 741.038 277.209 742.197 277.209 743.364C277.209 744.535 276.384 745.694 275.358 745.694L261.751 745.694C261.032 745.694 260.493 746.804 260.493 747.814C260.493 748.751 260.959 748.949 261.604 749.878L269.066 749.878C269.928 749.878 270.622 750.803 270.622 751.974C270.622 753.145 269.928 754.066 269.066 754.066L259.345 754.066C258.609 754.066 258.017 754.811 258.017 755.982C258.017 756.919 258.397 757.788 258.928 757.788L269.123 757.788C269.948 757.788 270.622 758.947 270.622 760.118C270.622 761.285 269.948 762.443 269.123 762.443L259.075 762.443C258.315 762.443 257.694 763.188 257.694 764.354C257.694 765.296 258.094 766.165 258.642 766.165L264.224 766.165C264.988 766.165 265.601 767.09 265.601 768.257C265.601 769.428 264.988 770.354 264.224 770.354L262.814 770.354C264.17 770.82 265.58 770.957 267.027 770.957C277.781 770.957 286.501 762.431 286.501 751.825C286.501 741.219 277.781 732.621 267.027 732.621C265.486 732.621 263.987 733.128 262.548 733.128L263.19 733.128Z" fill="#FF9151"/>
<path d="M56.1192 42.8267C62.1339 36.9081 71.8754 36.9001 77.882 42.8146C83.8886 48.7251 83.8804 58.3212 77.8656 64.2398C71.8549 70.1624 62.1095 70.1704 56.107 64.2559C50.1004 58.3413 50.1085 48.7493 56.1192 42.8267Z" fill="#FFBC4A"/>
<path d="M75.4945 40.9439C76.0217 41.4629 75.9277 42.4004 75.2617 43.0562C74.5998 43.708 73.6478 43.8005 73.1207 43.2815L70.2562 40.465C69.7577 39.9742 68.916 40.0065 68.254 40.6583C67.7555 41.1531 67.4776 41.8813 67.8045 42.2032L77.8034 52.0527C78.3754 52.612 78.1833 53.7144 77.5173 54.3662C76.8553 55.022 75.7357 55.2111 75.1677 54.6478L67.5675 47.1682C67.1671 46.7739 66.2356 47.0958 65.6635 47.6591C65.1323 48.1821 65.2794 48.5523 65.1118 49.4253L69.2796 53.5254C69.7576 54.0001 156.834 85.3043 156.172 85.9601C155.51 86.6119 67.3838 56.3377 66.9057 55.8629L61.4752 50.5197C61.0666 50.1174 60.3147 50.2059 59.6487 50.8577C59.1175 51.3808 58.8356 52.0769 59.1339 52.3706L64.8257 57.9753C65.2875 58.4299 65.0057 59.4438 64.3437 60.0997C63.6817 60.7515 62.6479 61.0251 62.1861 60.5705L56.5759 55.0502C56.1509 54.6317 55.3868 54.7042 54.7208 55.36C54.1896 55.883 53.9199 56.5872 54.2264 56.8889L57.344 59.9589C57.769 60.3773 57.5893 61.2303 56.9232 61.8821C56.2613 62.538 55.395 62.7149 54.966 62.2965L54.1815 61.52C54.6759 62.5258 55.3828 63.3748 56.1918 64.1715C62.1943 70.086 71.8947 70.1181 77.9095 64.1996C83.9243 58.277 83.9284 48.6851 77.9259 42.7706C77.0637 41.9216 75.94 41.3824 75.135 40.5938L75.4945 40.9439Z" fill="#FF9151"/>
<path d="M715.209 70.9907C721.224 65.0721 730.965 65.064 736.972 70.9786C742.978 76.8891 742.97 86.4852 736.955 92.4038C730.945 98.3264 721.199 98.3345 715.197 92.4199C709.19 86.5054 709.198 76.9133 715.209 70.9907Z" fill="#FFBC4A"/>
<path d="M734.584 69.1091C735.111 69.6281 735.017 70.5656 734.351 71.2214C733.689 71.8732 732.737 71.9657 732.21 71.4467L729.346 68.6302C728.847 68.1394 728.006 68.1717 727.344 68.8235C726.845 69.3184 726.567 70.0465 726.894 70.3684L736.893 80.2179C737.465 80.7771 737.273 81.8796 736.607 82.5314C735.945 83.1872 734.825 83.3763 734.257 82.813L726.657 75.3334C726.257 74.9391 725.325 75.261 724.753 75.8243C724.222 76.3473 724.369 76.7174 724.201 77.5905L728.369 81.6905C728.847 82.1653 728.712 83.0624 728.051 83.7183C727.389 84.3701 726.473 84.5029 725.995 84.0281L720.565 78.6849C720.156 78.2826 719.404 78.3711 718.738 79.0229C718.207 79.546 717.925 80.242 718.223 80.5357L723.915 86.1404C724.377 86.5951 724.095 87.609 723.433 88.2648C722.771 88.9166 721.737 89.1903 721.276 88.7356L715.666 83.2153C715.241 82.7969 714.477 82.8693 713.81 83.5252C713.279 84.0482 713.01 84.7523 713.316 85.0541L716.434 88.1241C716.859 88.5425 716.679 89.3955 716.013 90.0473C715.351 90.7031 714.485 90.8801 714.056 90.4616L713.271 89.6851C713.766 90.691 714.472 91.54 715.282 92.3366C721.284 98.2511 730.984 98.2832 736.999 92.3647C743.014 86.4422 743.018 76.8503 737.015 70.9358C736.153 70.0868 735.03 69.5476 734.225 68.759L734.584 69.1091Z" fill="#FF9151"/>
<path d="M833.713 459.627C841.325 452.132 853.653 452.124 861.253 459.607C868.853 467.091 868.845 479.234 861.237 486.726C853.625 494.221 841.297 494.229 833.693 486.746C826.093 479.262 826.105 467.119 833.713 459.627Z" fill="#FFBC4A"/>
<path d="M858.079 457.032C858.749 457.692 858.627 458.879 857.789 459.703C856.947 460.528 855.742 460.649 855.076 459.993L851.452 456.424C850.822 455.805 849.756 455.845 848.918 456.67C848.285 457.293 847.933 458.219 848.346 458.629L861.005 471.09C861.728 471.802 861.479 473.194 860.641 474.019C859.804 474.848 858.386 475.089 857.667 474.377L848.048 464.91C847.541 464.407 846.36 464.817 845.637 465.53C844.963 466.193 845.155 466.66 844.943 467.767L850.214 472.957C850.822 473.556 850.651 474.695 849.809 475.52C848.971 476.345 847.815 476.514 847.206 475.914L840.337 469.151C839.819 468.64 838.866 468.752 838.029 469.581C837.355 470.241 836.999 471.122 837.375 471.492L844.575 478.586C845.163 479.161 844.808 480.449 843.966 481.273C843.128 482.098 841.821 482.448 841.236 481.873L834.139 474.884C833.599 474.353 832.631 474.45 831.789 475.274C831.115 475.938 830.776 476.831 831.164 477.214L835.107 481.096C835.643 481.628 835.418 482.706 834.576 483.535C833.738 484.359 832.639 484.585 832.1 484.054L831.107 483.076C831.728 484.347 832.627 485.422 833.649 486.428C841.249 493.911 853.527 493.956 861.136 486.464C868.748 478.968 868.756 466.829 861.156 459.341C860.065 458.271 858.643 457.587 857.626 456.585L858.079 457.032Z" fill="#FF9151"/>
<path d="M1221.47 293.804C1221.47 302.184 1214.58 308.976 1206.08 308.976C1197.58 308.976 1190.69 302.184 1190.69 293.804C1190.69 285.427 1197.58 278.631 1206.08 278.631C1214.58 278.631 1221.47 285.427 1221.47 293.804Z" fill="#6679BF"/>
<path d="M1202.62 300.482C1202.62 298.595 1204.17 297.067 1206.08 297.067C1207.99 297.067 1209.55 298.595 1209.55 300.482C1209.55 302.37 1207.99 303.898 1206.08 303.898C1204.17 303.898 1202.62 302.37 1202.62 300.482Z" fill="#303B72"/>
<path d="M1206.71 303.898C1206.71 302.526 1207.84 301.412 1209.23 301.412C1210.63 301.412 1211.75 302.526 1211.75 303.898C1211.75 305.27 1210.63 306.385 1209.23 306.385C1207.84 306.385 1206.71 305.27 1206.71 303.898Z" fill="#303B72"/>
<path d="M1209.71 286.022C1209.71 284.908 1210.62 284.002 1211.75 284.002C1212.88 284.002 1213.8 284.908 1213.8 286.022C1213.8 287.137 1212.88 288.038 1211.75 288.038C1210.62 288.038 1209.71 287.137 1209.71 286.022Z" fill="#303B72"/>
<path d="M1194.23 295.538C1194.23 294.681 1194.93 293.989 1195.8 293.989C1196.67 293.989 1197.37 294.681 1197.37 295.538C1197.37 296.395 1196.67 297.091 1195.8 297.091C1194.93 297.091 1194.23 296.395 1194.23 295.538Z" fill="#303B72"/>
<path d="M1197.42 286.038C1197.42 284.235 1198.9 282.775 1200.72 282.775C1202.55 282.775 1204.03 284.235 1204.03 286.038C1204.03 287.841 1202.55 289.301 1200.72 289.301C1198.9 289.301 1197.42 287.841 1197.42 286.038Z" fill="#303B72"/>
<path d="M111.776 469.173C111.776 477.554 104.887 484.345 96.3882 484.345C87.889 484.345 80.9998 477.554 80.9998 469.173C80.9998 460.796 87.889 454 96.3882 454C104.887 454 111.776 460.796 111.776 469.173Z" fill="#6679BF"/>
<path d="M92.9231 475.852C92.9231 473.965 94.4759 472.436 96.3883 472.436C98.3007 472.436 99.8535 473.965 99.8535 475.852C99.8535 477.739 98.3007 479.268 96.3883 479.268C94.4759 479.268 92.9231 477.739 92.9231 475.852Z" fill="#303B72"/>
<path d="M98.0176 479.268C98.0176 477.896 99.1494 476.781 100.539 476.781C101.932 476.781 103.06 477.896 103.06 479.268C103.06 480.64 101.932 481.754 100.539 481.754C99.1494 481.754 98.0176 480.64 98.0176 479.268Z" fill="#303B72"/>
<path d="M100.012 461.391C100.012 460.277 100.927 459.372 102.059 459.372C103.191 459.372 104.106 460.277 104.106 461.391C104.106 462.506 103.191 463.407 102.059 463.407C100.927 463.407 100.012 462.506 100.012 461.391Z" fill="#303B72"/>
<path d="M84.5336 470.907C84.5336 470.05 85.2365 469.358 86.1028 469.358C86.9731 469.358 87.6758 470.05 87.6758 470.907C87.6758 471.764 86.9731 472.46 86.1028 472.46C85.2365 472.46 84.5336 471.764 84.5336 470.907Z" fill="#303B72"/>
<path d="M87.7256 461.407C87.7256 459.605 89.2047 458.144 91.0311 458.144C92.8576 458.144 94.3408 459.605 94.3408 461.407C94.3408 463.21 92.8576 464.67 91.0311 464.67C89.2047 464.67 87.7256 463.21 87.7256 461.407Z" fill="#303B72"/>
<path d="M1136.96 27.1267C1140.47 17.5629 1151.19 12.6221 1160.89 16.0903C1170.59 19.5586 1175.6 30.1242 1172.08 39.688C1168.57 49.2519 1157.85 54.1927 1148.15 50.7285C1138.45 47.2562 1133.44 36.6906 1136.96 27.1267Z" fill="#FFA283"/>
<path d="M1144.56 28.5585L1159.16 33.781C1159.56 34.1794 1159.75 34.6944 1159.56 35.2175C1159.3 35.9095 1158.51 36.2434 1157.78 35.9859L1153.6 34.4932C1152.83 34.2156 1152 34.5495 1151.75 35.2415C1151.49 35.9336 1151.92 36.7142 1152.68 36.9878L1156.79 38.4563C1156.25 38.3919 1155.69 38.7822 1155.47 39.3777C1155.21 40.0698 1155.51 40.8222 1156.12 41.0435L1160.67 42.6729C1161.04 43.0592 1161.2 43.6105 1161 44.1657C1160.75 44.8578 1160.03 45.2641 1159.41 45.0428L1151.22 42.1177C1150.54 41.8763 1149.79 42.2385 1149.53 42.9265C1149.28 43.6185 1149.62 44.3749 1150.3 44.6163L1158.6 47.5857C1159 47.8553 1159.13 48.4588 1158.92 49.01C1158.67 49.702 1157.99 50.0642 1157.39 49.8469L1149.46 47.0143C1148.77 46.7649 1147.99 47.1189 1147.74 47.811C1147.48 48.499 1147.85 49.2635 1148.54 49.5129L1154.63 51.6857C1154.69 51.7098 1154.73 51.7782 1154.78 51.8225C1162.32 51.7219 1169.36 47.0908 1172.08 39.6835C1175.6 30.1156 1170.59 19.5539 1160.89 16.0856C1160.07 15.7919 1159.25 15.5223 1158.42 15.3453C1158.18 16.0293 1158.5 16.7092 1159.11 16.9305L1163.66 18.556C1164.02 18.9423 1164.19 19.4975 1163.98 20.0487C1163.73 20.7408 1163.01 21.1512 1162.38 20.93L1154.2 18.0008C1153.52 17.7594 1152.77 18.1215 1152.51 18.8136C1152.26 19.5016 1152.6 20.258 1153.28 20.4994L1161.59 23.4687C1161.93 23.851 1162.09 24.3982 1161.89 24.9535C1161.63 25.6455 1160.93 26.0599 1160.33 25.8467L1152.41 23.0141C1151.7 22.7606 1150.93 23.1187 1150.68 23.8108C1150.42 24.4988 1150.78 25.2592 1151.49 25.5127L1157.57 27.6854C1158.05 27.9871 1158.25 28.631 1158.04 29.1862C1157.82 29.7817 1157.2 30.1236 1156.57 30.0271L1145.48 26.0599C1144.65 25.7622 1143.77 26.0801 1143.51 26.7721C1143.26 27.4641 1143.73 28.2608 1144.56 28.5585Z" fill="#FE5E78"/>
<path d="M1848.76 375.158C1852.27 365.595 1862.99 360.654 1872.69 364.122C1882.39 367.59 1887.4 378.156 1883.89 387.72C1880.37 397.284 1869.65 402.224 1859.95 398.76C1850.25 395.288 1845.24 384.722 1848.76 375.158Z" fill="#FFA283"/>
<path d="M1856.36 376.59L1870.96 381.812C1871.36 382.211 1871.55 382.726 1871.36 383.249C1871.1 383.941 1870.31 384.275 1869.58 384.017L1865.4 382.521C1864.63 382.247 1863.8 382.581 1863.55 383.273C1863.3 383.965 1863.72 384.746 1864.48 385.019L1868.6 386.488C1868.05 386.423 1867.49 386.814 1867.27 387.409C1867.01 388.101 1867.31 388.854 1867.93 389.075L1872.47 390.704C1872.84 391.091 1873 391.642 1872.8 392.197C1872.55 392.889 1871.83 393.295 1871.21 393.074L1863.02 390.149C1862.34 389.908 1861.59 390.27 1861.33 390.958C1861.08 391.65 1861.42 392.406 1862.1 392.648L1870.41 395.617C1870.8 395.883 1870.93 396.49 1870.72 397.041C1870.47 397.733 1869.79 398.095 1869.19 397.878L1861.26 395.046C1860.57 394.796 1859.79 395.15 1859.54 395.842C1859.28 396.53 1859.65 397.295 1860.35 397.544L1866.43 399.717C1866.49 399.741 1866.53 399.809 1866.58 399.854C1874.12 399.753 1881.16 395.122 1883.89 387.715C1887.4 378.147 1882.39 367.585 1872.69 364.117C1871.87 363.823 1871.05 363.554 1870.22 363.377C1869.98 364.061 1870.3 364.741 1870.91 364.962L1875.46 366.587C1875.82 366.974 1875.99 367.529 1875.78 368.08C1875.53 368.772 1874.81 369.183 1874.18 368.961L1866 366.032C1865.32 365.791 1864.57 366.153 1864.31 366.845C1864.06 367.533 1864.4 368.289 1865.08 368.531L1873.39 371.5C1873.74 371.882 1873.89 372.43 1873.69 372.985C1873.43 373.677 1872.73 374.091 1872.13 373.878L1864.21 371.046C1863.5 370.792 1862.73 371.15 1862.48 371.842C1862.22 372.53 1862.58 373.291 1863.29 373.544L1869.37 375.717C1869.85 376.019 1870.05 376.662 1869.84 377.218C1869.62 377.813 1869 378.155 1868.37 378.058L1857.28 374.091C1856.45 373.794 1855.57 374.111 1855.31 374.803C1855.06 375.496 1855.53 376.292 1856.36 376.59Z" fill="#FE5E78"/>
<path d="M-1.71896e-06 190.107L80.0365 222.845C160.073 256.197 320.146 320.75 480.219 304.919C640.292 288.473 800.365 190.107 960.438 173.661C1120.51 157.83 1280.58 222.383 1440.66 214.699C1600.73 207.014 1760.8 124.017 1840.84 83.5944L1920.88 42.5571L1920.88 436.023L1840.84 436.023C1760.8 436.023 1600.73 436.023 1440.66 436.023C1280.58 436.023 1120.51 436.023 960.438 436.023C800.365 436.023 640.292 436.023 480.219 436.023C320.146 436.023 160.073 436.023 80.0365 436.023L-4.5839e-06 436.023L-1.71896e-06 190.107Z" fill="url(#paint5_radial_13_2135)"/>
</g>
<defs>
<linearGradient id="paint0_linear_13_2135" x1="411.547" y1="866.37" x2="210.951" y2="888.417" gradientUnits="userSpaceOnUse">
<stop stop-color="white"/>
<stop offset="1" stop-color="#2AB0FF"/>
</linearGradient>
<linearGradient id="paint1_linear_13_2135" x1="1711.65" y1="110.631" x2="1581.03" y2="124.986" gradientUnits="userSpaceOnUse">
<stop stop-color="white"/>
<stop offset="1" stop-color="#2AB0FF"/>
</linearGradient>
<linearGradient id="paint2_linear_13_2135" x1="1355.74" y1="730.248" x2="1225.12" y2="744.603" gradientUnits="userSpaceOnUse">
<stop stop-color="white"/>
<stop offset="1" stop-color="#2AB0FF"/>
</linearGradient>
<linearGradient id="paint3_linear_13_2135" x1="440.047" y1="673.516" x2="309.426" y2="687.872" gradientUnits="userSpaceOnUse">
<stop stop-color="white"/>
<stop offset="1" stop-color="#2AB0FF"/>
</linearGradient>
<linearGradient id="paint4_linear_13_2135" x1="280.24" y1="46.7903" x2="172.53" y2="58.6284" gradientUnits="userSpaceOnUse">
<stop stop-color="white"/>
<stop offset="1" stop-color="#2AB0FF"/>
</linearGradient>
<radialGradient id="paint5_radial_13_2135" cx="0" cy="0" r="1" gradientUnits="userSpaceOnUse" gradientTransform="translate(721.461 -295.009) rotate(90) scale(703.791 3435.86)">
<stop stop-color="#B880FF" stop-opacity="0"/>
<stop offset="1" stop-color="#FAF6FF"/>
</radialGradient>
<clipPath id="clip0_13_2135">
<rect width="1936" height="772" fill="white" transform="translate(1936 772) rotate(-180)"/>
</clipPath>
</defs>
</svg>
