<svg width="147" height="91" viewBox="0 0 147 91" fill="none" xmlns="http://www.w3.org/2000/svg">
<path d="M45.5427 51.1146L45.5428 51.1146L47.0929 51.7654L47.093 51.7654C48.4562 52.3382 50.0222 51.6828 50.5883 50.2966L50.5883 50.2966C51.1555 48.9087 50.5043 47.3204 49.1396 46.7475L49.1396 46.7475L47.5893 46.0965C47.5893 46.0965 47.5893 46.0965 47.5893 46.0965C45.5209 45.2285 43.2388 45.2306 41.1607 46.1029L41.1607 46.1029C39.0822 46.9753 37.4658 48.6106 36.6087 50.7082L36.4236 50.6326L36.6087 50.7082C34.834 55.0515 36.877 60.0468 41.1578 61.8445C41.1578 61.8445 41.1578 61.8445 41.1578 61.8445L44.2579 63.1457L44.258 63.1457C45.8139 63.7991 46.552 65.6109 45.9091 67.184C45.5999 67.9409 45.0119 68.5329 44.2554 68.8507L44.2554 68.8507C43.4984 69.1686 42.6683 69.1709 41.9201 68.8575L41.92 68.8575L40.3699 68.2067L40.3699 68.2067C39.0077 67.6347 37.4409 68.2894 36.8745 69.6755L36.8745 69.6755C36.3073 71.0634 36.9585 72.6517 38.3232 73.2246L38.3232 73.2246L39.8735 73.8756C39.8735 73.8756 39.8735 73.8756 39.8735 73.8756C40.9056 74.3088 41.9899 74.525 43.0757 74.525L45.5427 51.1146ZM45.5427 51.1146C44.7945 50.8009 43.9644 50.8029 43.2073 51.1211C42.4508 51.4386 41.8629 52.0313 41.5534 52.7878L41.5534 52.7878C40.9105 54.3609 41.6486 56.1724 43.2045 56.8258L43.2046 56.8258M45.5427 51.1146L43.2046 56.8258M43.2046 56.8258L46.3044 58.127C50.5854 59.9247 52.6285 64.9203 50.8538 69.2636C49.9964 71.3611 48.3803 72.9962 46.3018 73.8689C45.2598 74.3062 44.1666 74.5247 43.0757 74.525L43.2046 56.8258Z" fill="#7C14FD" stroke="#F9F4FF" stroke-width="0.4"/>
<path d="M67.6202 73.7278L67.5175 73.6214L67.3857 73.6883C61.9793 76.4353 55.2216 72.1492 55.3292 65.9782L55.3293 65.9782L55.3292 65.9712C55.2219 59.7991 61.9784 55.5153 67.386 58.2611L67.5178 58.328L67.6205 58.2216C69.2507 56.5323 72.2053 57.7344 72.1871 60.1425V60.144L72.1871 71.8057L72.1871 71.8072C72.2053 74.2143 69.2509 75.4179 67.6202 73.7278ZM63.7657 62.8594L63.7657 62.8592H63.758C62.059 62.8592 60.6819 64.2592 60.6819 65.9747C60.6819 67.6902 62.059 69.0902 63.758 69.0902V69.0903L63.7657 69.0901C67.8313 68.9342 67.8329 63.0159 63.7657 62.8594Z" fill="#7C14FD" stroke="#F9F4FF" stroke-width="0.4"/>
<path d="M87.5208 58.2612L87.6511 58.3273L87.7537 58.2233C88.2386 57.7318 88.9071 57.4286 89.6455 57.4286C91.1208 57.4286 92.3218 58.6421 92.3215 60.1441V60.1441L92.3215 65.9299L92.3216 65.9318C92.3218 65.9606 92.3218 65.9896 92.3215 66.0184V66.0203L92.3215 71.8061L92.3216 71.8076C92.3401 74.2144 89.3859 75.4183 87.755 73.7282L87.6523 73.6218L87.5205 73.6887C82.1141 76.4354 75.3564 72.1493 75.464 65.9786L75.4641 65.9786L75.464 65.9716C75.3566 59.7995 82.1132 55.5153 87.5208 58.2612ZM83.8854 69.0901L83.8854 69.0903H83.8931C85.5841 69.0903 86.9565 67.7031 86.9691 65.9987V65.9972L86.9691 65.9526L86.9691 65.9512C86.9565 64.2465 85.5841 62.8593 83.8931 62.8593V62.8592L83.8854 62.8595C79.8203 63.0153 79.8173 68.9333 83.8854 69.0901Z" fill="#7C14FD" stroke="#F9F4FF" stroke-width="0.4"/>
<path d="M106.679 51.7657L106.679 51.7657L105.129 51.115C104.38 50.8005 103.55 50.8029 102.793 51.1211C102.037 51.4386 101.449 52.0312 101.14 52.7878C100.497 54.3607 101.235 56.1724 102.791 56.8258L102.791 56.8258L105.891 58.127C110.172 59.9247 112.215 64.92 110.44 69.2633C109.1 72.5419 105.962 74.5236 102.664 74.5236H102.664C101.594 74.5239 100.508 74.3156 99.4597 73.8756L99.3823 74.06L99.4597 73.8756L97.9091 73.2249C97.909 73.2249 97.909 73.2249 97.909 73.2248C96.5443 72.6517 95.8931 71.0634 96.46 69.6756C97.027 68.2893 98.5922 67.6341 99.9558 68.2064L101.506 68.8571C103.062 69.5109 104.852 68.7581 105.495 67.1837C106.138 65.6109 105.4 63.7991 103.844 63.1457L103.844 63.1457L100.744 61.8445C100.744 61.8445 100.744 61.8445 100.744 61.8445C96.4635 60.0468 94.4199 55.0518 96.1946 50.7085L96.1946 50.7085C97.0516 48.6106 98.6681 46.9753 100.747 46.1029L100.747 46.1029C102.825 45.2306 105.107 45.2285 107.175 46.0965L107.252 45.9124L107.175 46.0965L108.726 46.7472C110.09 47.3204 110.742 48.9087 110.175 50.2966C109.608 51.6828 108.043 52.3382 106.679 51.7657Z" fill="#7C14FD" stroke="#F9F4FF" stroke-width="0.4"/>
<path d="M125.535 41.5185L125.546 41.6797L125.706 41.703C155.379 46.0192 153.101 89.3222 122.94 90.2352H17.7252C-3.99173 89.6264 -6.23825 58.6222 14.9948 54.6964L15.145 54.6686L15.1577 54.5164C15.3547 52.1643 15.8106 49.848 16.5197 47.6009C16.971 46.171 18.4772 45.3868 19.8837 45.8432L19.9454 45.6529L19.8837 45.8432C21.2903 46.2993 22.0694 47.8273 21.6175 49.2583C20.8087 51.8186 20.3989 54.49 20.3989 57.1986C20.3989 58.7006 19.1982 59.9141 17.7229 59.9141V59.9139L17.7152 59.9142C1.46053 60.5372 1.45063 84.1758 17.7149 84.8041L17.7149 84.8042H17.7226H122.943V84.8044L122.951 84.8041C147.67 83.856 147.656 47.9159 122.951 46.9741V46.9739H122.943C121.468 46.9739 120.267 45.7607 120.267 44.259L120.267 44.257C119.834 2.70119 63.8649 -8.69699 47.7007 29.5136L47.7001 29.5152C47.2939 30.4991 46.3585 31.1494 45.3101 31.1808C42.6426 31.2607 40.0208 31.7559 37.5172 32.6534L37.5171 32.6534C36.126 33.1528 34.5964 32.4143 34.1027 30.9991L34.1027 30.9991C33.6084 29.5828 34.3417 28.0315 35.7342 27.5325L35.6667 27.3442L35.7342 27.5325C38.1884 26.6528 40.7354 26.0926 43.329 25.8609L43.4437 25.8507L43.4924 25.7463C62.4913 -14.9267 122.522 -3.28091 125.535 41.5185Z" fill="black" stroke="#F9F4FF" stroke-width="0.4"/>
<path d="M25.7333 39.8955C22.1875 39.7564 22.188 34.6049 25.7322 34.4648C29.2767 34.6031 29.2788 39.7549 25.7333 39.8955Z" fill="black" stroke="#F9F4FF" stroke-width="0.4"/>
</svg>
