<svg width="160" height="164" viewBox="0 0 160 164" fill="none" xmlns="http://www.w3.org/2000/svg">
<path d="M21.184 86.3509L32.2985 105.603C34.6969 109.762 40.0921 111.302 44.3587 108.835C48.5805 106.395 50.0315 101.001 47.5891 96.7757L40.968 85.306L46.702 81.9954C47.7572 81.3851 48.1193 80.0358 47.5098 78.9806L44.6398 74.0096C44.982 73.9432 47.2322 73.5018 86.913 65.7177C91.8185 65.4513 94.7575 60.0863 92.2797 55.7973L84.9448 43.0931L89.6322 35.9935C90.0925 35.2952 90.1201 34.3977 89.702 33.6735L85.2879 26.0282C84.8698 25.304 84.0758 24.8799 83.2438 24.929L74.7528 25.4385L66.6101 11.3342C65.4307 9.291 63.3176 8.05386 60.9589 8.02454C60.9304 8.02368 60.9028 8.02368 60.8744 8.02368C58.5949 8.02368 56.5258 9.15823 55.2999 11.0765L26.4688 47.8046L7.72544 58.6259C0.353434 62.8805 -2.20017 72.338 2.07078 79.7298C5.97274 86.4888 14.1991 89.1476 21.184 86.3509ZM43.7673 98.9835C44.9863 101.092 44.2647 103.791 42.1499 105.012C40.0283 106.239 37.3264 105.486 36.1211 103.397L25.086 84.2809L32.7313 79.8669C45.5027 101.991 43.5621 98.6292 43.7673 98.9835ZM38.7609 81.4825L36.5539 77.6598L40.3766 75.4528L42.5836 79.2754L38.7609 81.4825ZM82.1472 29.4164L85.1974 34.6994L82.4774 38.8187L77.2202 29.7121L82.1472 29.4164ZM58.9915 13.4964C59.5838 12.5274 60.5235 12.4274 60.9045 12.4377C61.2813 12.4421 62.2201 12.5593 62.7866 13.5404L88.4571 58.0043C89.2933 59.4518 88.2769 61.2718 86.6001 61.3131C86.2992 61.32 86.1604 61.3744 85.3897 61.5183L58.2354 14.4853C58.8053 13.7525 58.8786 13.6818 58.9915 13.4964ZM55.2982 18.2269L80.8109 62.4167L42.3069 69.9688L30.5992 49.6909L55.2982 18.2269ZM5.89343 77.5228C4.9244 75.8459 4.4123 73.9424 4.4123 72.0164C4.4123 68.0799 6.52795 64.4142 9.93247 62.4486L27.1344 52.5169L38.1695 71.6301L20.9676 81.5627C15.6975 84.6042 8.93585 82.792 5.89343 77.5228Z" fill="black"/>
<path d="M30.2278 71.1181C31.2831 70.5094 31.6443 69.1585 31.0356 68.1033C30.4261 67.0489 29.076 66.6868 28.0208 67.2954C26.9656 67.905 26.6035 69.2559 27.213 70.3103C27.8217 71.3655 29.1726 71.7276 30.2278 71.1181Z" fill="#7C14FD"/>
<path d="M23.3909 72.5173C22.7814 71.462 21.4313 71.0999 20.3761 71.7095L16.5534 73.9165C15.4999 74.5252 14.1472 74.1622 13.5386 73.1087C12.9291 72.0534 11.579 71.6914 10.5237 72.3009C9.4685 72.9104 9.10641 74.2605 9.71593 75.3157C11.5324 78.4625 15.5844 79.572 18.7604 77.7391L22.5831 75.5321C23.6383 74.9226 24.0004 73.5734 23.3909 72.5173Z" fill="#7C14FD"/>
<path d="M109.72 12.7447L97.4214 19.5882C96.3567 20.1813 95.973 21.5254 96.5661 22.5901C97.1576 23.654 98.5007 24.0393 99.5681 23.4453L111.865 16.6018C112.931 16.0087 113.314 14.6646 112.721 13.5999C112.128 12.5343 110.784 12.1515 109.72 12.7447Z" fill="#7C14FD"/>
<path d="M108.429 35.603L99.9014 33.3184C98.7238 33.0028 97.5133 33.7011 97.1978 34.8788C96.8823 36.0565 97.5815 37.266 98.7591 37.5815L107.287 39.8662C108.472 40.1843 109.676 39.4748 109.99 38.3057C110.306 37.1281 109.606 35.9177 108.429 35.603Z" fill="#7C14FD"/>
<path d="M87.0007 4.72608L84.7135 13.2542C84.398 14.4318 85.0963 15.6414 86.2739 15.9578C87.4507 16.2725 88.6611 15.5759 88.9775 14.3974L91.2639 5.86926C91.5794 4.6916 90.8811 3.48118 89.7034 3.16565C88.5266 2.85011 87.3162 3.54843 87.0007 4.72608Z" fill="#7C14FD"/>
<g clip-path="url(#clip0_1101_2)">
<path d="M159.501 91.6336V96.454H150.642H150.286L150.17 96.7903L147.89 103.366L147.888 103.373L135.857 139.717H83.254L76.5914 100.235H143.554H143.908L144.026 99.9013L146.944 91.6325L159.501 91.6336ZM131.916 134.901H132.274L132.389 134.562L142.257 105.462L142.481 104.801H141.783H82.8313H82.242L82.338 105.383L87.1452 134.482L87.2144 134.901H87.6386H131.916Z" fill="black" stroke="#FAF6FF"/>
<path d="M98.0194 147.048C98.0194 149.986 95.6379 152.367 92.7001 152.367C89.7624 152.367 87.3809 149.986 87.3809 147.048C87.3809 144.11 89.7624 141.729 92.7001 141.729C95.6379 141.729 98.0194 144.11 98.0194 147.048Z" fill="black" stroke="#FAF6FF"/>
<path d="M131.416 147.048C131.416 149.986 129.034 152.367 126.097 152.367C123.159 152.367 120.777 149.986 120.777 147.048C120.777 144.11 123.159 141.729 126.097 141.729C129.034 141.729 131.416 144.11 131.416 147.048Z" fill="black" stroke="#FAF6FF"/>
<path d="M108.397 131.307L97.5006 116.934H102.828L107.991 123.573L108.372 124.063L108.769 123.587L121.523 108.331H126.826L108.397 131.307Z" fill="#7C14FD" stroke="#FAF6FF"/>
</g>
<defs>
<clipPath id="clip0_1101_2">
<rect width="84" height="84" fill="white" transform="translate(76 80)"/>
</clipPath>
</defs>
</svg>
