<svg width="141" height="128" viewBox="0 0 141 128" fill="none" xmlns="http://www.w3.org/2000/svg">
<path d="M77.6644 64.3701V19.2548C77.6644 16.9076 75.7547 14.9972 73.4075 14.9972H59.5484V11.2131C59.5484 10.2907 58.801 9.54321 57.8785 9.54321H57.7469V8.91064C57.7469 3.99706 53.7498 -6.10352e-05 48.8362 -6.10352e-05H28.9314C24.0178 -6.10352e-05 20.0207 3.99706 20.0207 8.91064V9.54321H19.8217C18.8992 9.54321 18.1517 10.2907 18.1517 11.2131V14.9972H4.35951C2.01226 14.9972 0.102539 16.9069 0.102539 19.2548V64.3701C0.102539 66.7173 2.01226 68.6277 4.35951 68.6277H73.4075C75.7547 68.6277 77.6644 66.718 77.6644 64.3701ZM31.1845 14.9978V11.2138C31.1845 10.2913 30.437 9.54388 29.5145 9.54388H29.4324L29.427 9.00215L48.3172 8.97944V9.54321H48.1856C47.2632 9.54321 46.5157 10.2907 46.5157 11.2131V14.9972H31.1845V14.9978ZM49.8549 12.8837H56.2079V14.9978H49.8549V12.8837ZM23.3599 8.91131C23.3599 5.83932 25.8594 3.34045 28.9307 3.34045H48.8349C51.9069 3.34045 54.4057 5.83999 54.4057 8.91131V9.54388H51.6571V8.98011C51.6571 7.15121 50.1688 5.66298 48.3399 5.66298H29.427C27.5981 5.66298 26.1099 7.15121 26.1099 8.98011V9.54388H23.3606V8.91131H23.3599ZM21.4916 12.8837H27.8446V14.9978H21.4916V12.8837ZM3.44172 64.3701V54.4027H27.7691C28.6916 54.4027 29.4391 53.6552 29.4391 52.7327C29.4391 51.8103 28.6916 51.0628 27.7691 51.0628H3.44172V19.2548C3.44172 18.7492 3.85319 18.337 4.35884 18.337H19.8217H29.5145H48.185H57.8778H73.4068C73.9124 18.337 74.3239 18.7485 74.3239 19.2548V51.0621H49.9972C49.0747 51.0621 48.3272 51.8096 48.3272 52.7321C48.3272 53.6545 49.0747 54.402 49.9972 54.402H74.3239V64.3701C74.3239 64.8757 73.9124 65.2879 73.4068 65.2879H4.35951C3.85385 65.2879 3.44172 64.8764 3.44172 64.3701Z" fill="black"/>
<path d="M41.3473 46.069H36.4204C34.4131 46.069 32.7793 47.7022 32.7793 49.7101V58.0865C32.7793 60.0937 34.4125 61.7269 36.4204 61.7269H41.3473C43.3546 61.7269 44.9878 60.0937 44.9878 58.0865V49.7101C44.9878 47.7022 43.3546 46.069 41.3473 46.069ZM41.6479 58.0858C41.6479 58.2514 41.513 58.3864 41.3473 58.3864H36.4204C36.2541 58.3864 36.1191 58.2514 36.1191 58.0858V49.7095C36.1191 49.5438 36.2541 49.4082 36.4204 49.4082H41.3473C41.513 49.4082 41.6479 49.5431 41.6479 49.7095V58.0858Z" fill="black"/>
<path d="M136.641 73.3843H122.782V69.6003C122.782 68.6778 122.035 67.9303 121.112 67.9303H120.981V67.2978C120.981 62.3842 116.984 58.3871 112.07 58.3871H92.1661C87.2525 58.3871 83.2554 62.3842 83.2554 67.2978V67.9303H83.057C82.1345 67.9303 81.3871 68.6778 81.3871 69.6003V73.3843H67.5949C65.2476 73.3843 63.3379 75.294 63.3379 77.6419V122.757C63.3379 125.104 65.2476 127.015 67.5949 127.015H136.643C138.99 127.015 140.9 125.105 140.9 122.757V77.6413C140.899 75.294 138.989 73.3843 136.641 73.3843ZM94.4191 73.3843V69.6003C94.4191 68.6778 93.6717 67.9303 92.7492 67.9303H92.667L92.6617 67.3886L111.552 67.3659V67.9297H111.42C110.498 67.9297 109.75 68.6771 109.75 69.5996V73.3836H94.4191V73.3843ZM113.09 71.2702H119.443V73.3843H113.09V71.2702ZM86.5945 67.2971C86.5945 64.2251 89.0941 61.7263 92.1654 61.7263H112.07C115.142 61.7263 117.64 64.2251 117.64 67.2971V67.9297H114.891V67.3659C114.891 65.537 113.403 64.0488 111.574 64.0488H92.661C90.8321 64.0488 89.3439 65.537 89.3439 67.3659V67.9297H86.5939V67.2971H86.5945ZM84.7256 71.2702H91.0786V73.3843H84.7256V71.2702ZM136.641 123.674H67.5935C67.0879 123.674 66.6764 123.263 66.6764 122.757V112.788H91.0038C91.9263 112.788 92.6737 112.041 92.6737 111.119C92.6737 110.196 91.9263 109.449 91.0038 109.449H66.6764V77.6413C66.6764 77.1356 67.0879 76.7235 67.5935 76.7235H83.0557H92.7485H111.42H121.112H136.641C137.147 76.7235 137.559 77.135 137.559 77.6413V109.449H113.232C112.309 109.449 111.562 110.196 111.562 111.119C111.562 112.041 112.309 112.788 113.232 112.788H137.559V122.757C137.559 123.262 137.147 123.674 136.641 123.674Z" fill="black"/>
<path d="M104.581 104.455H99.6541C97.6469 104.455 96.0137 106.088 96.0137 108.096V116.472C96.0137 118.48 97.6469 120.113 99.6541 120.113H104.581C106.588 120.113 108.221 118.48 108.221 116.472V108.096C108.222 106.089 106.589 104.455 104.581 104.455ZM104.882 116.472C104.882 116.637 104.747 116.772 104.582 116.772H99.6548C99.4891 116.772 99.3542 116.637 99.3542 116.472V108.095C99.3542 107.929 99.4891 107.794 99.6548 107.794H104.582C104.747 107.794 104.882 107.929 104.882 108.095V116.472Z" fill="black"/>
<path d="M109.657 45.2007C109.006 44.5488 107.947 44.5488 107.296 45.2007L104.006 48.4898V43.3525C104.006 36.6614 98.5631 31.2181 91.8714 31.2181H82.8926C81.9701 31.2181 81.2227 31.9656 81.2227 32.8881C81.2227 33.8105 81.9701 34.558 82.8926 34.558H91.8714C96.7209 34.558 100.667 38.503 100.667 43.3525V48.4898L97.3775 45.2007C96.7256 44.5488 95.6682 44.5488 95.0162 45.2007C94.3636 45.8527 94.3636 46.9101 95.0162 47.562L101.154 53.7C101.232 53.7781 101.319 53.8482 101.411 53.9097C101.45 53.9364 101.494 53.9545 101.535 53.9772C101.589 54.0066 101.64 54.0393 101.698 54.0627C101.752 54.0854 101.809 54.0981 101.865 54.1148C101.913 54.1288 101.96 54.1475 102.01 54.1575C102.117 54.1789 102.227 54.1902 102.337 54.1902C102.446 54.1902 102.556 54.1789 102.663 54.1575C102.713 54.1475 102.76 54.1288 102.808 54.1148C102.864 54.0981 102.92 54.0854 102.974 54.0633C103.032 54.0393 103.084 54.0072 103.138 53.9772C103.179 53.9545 103.222 53.9364 103.262 53.9097C103.354 53.8482 103.44 53.7781 103.518 53.7L109.657 47.562C110.309 46.9101 110.309 45.8527 109.657 45.2007Z" fill="#7C14FD"/>
<path d="M58.1084 92.4568H49.1296C44.2801 92.4568 40.3351 88.5118 40.3351 83.6616V78.5243L43.6242 81.8134C43.9502 82.1393 44.3777 82.3023 44.8052 82.3023C45.2327 82.3023 45.6602 82.1393 45.9861 81.8134C46.6387 81.1614 46.6387 80.104 45.9861 79.4521L39.8482 73.3142C39.77 73.236 39.6838 73.1659 39.5917 73.1044C39.5516 73.0777 39.5088 73.0597 39.4674 73.0369C39.4133 73.0075 39.3619 72.9748 39.3044 72.9514C39.2503 72.9287 39.1936 72.916 39.1374 72.9C39.0894 72.886 39.0426 72.8673 38.9932 72.8573C38.7774 72.8145 38.555 72.8145 38.3392 72.8573C38.2891 72.8673 38.243 72.886 38.1949 72.9C38.1388 72.9167 38.0821 72.9294 38.028 72.9514C37.9705 72.9748 37.9191 73.0075 37.865 73.0369C37.8236 73.0597 37.7801 73.0777 37.7401 73.1044C37.6479 73.1659 37.5617 73.236 37.4836 73.3142L31.3449 79.4521C30.6923 80.104 30.6923 81.1614 31.3449 81.8134C31.9969 82.466 33.0549 82.466 33.7062 81.8134L36.9959 78.5243V83.6616C36.9959 90.3527 42.4392 95.7966 49.1303 95.7966H58.1091C59.0316 95.7966 59.779 95.0492 59.779 94.1267C59.7783 93.2042 59.0309 92.4568 58.1084 92.4568Z" fill="#7C14FD"/>
</svg>
