<svg width="116" height="116" viewBox="0 0 116 116" fill="none" xmlns="http://www.w3.org/2000/svg">
<g clip-path="url(#clip0_3_18976)">
<path d="M115.337 0.663622C114.892 0.218881 114.285 -0.0221809 113.653 0.00160814C113.141 0.0199597 100.944 0.51024 86.4454 5.63485C74.8273 9.73698 65.1433 15.6101 57.6625 23.0912C55.9861 24.7676 54.3549 26.5452 52.7941 28.3919C45.3973 24.0378 39.47 25.4031 35.7229 27.4084C27.0952 32.0257 21.7549 44.5627 21.7549 53.5301C21.7556 54.4463 22.3077 55.2726 23.1541 55.6231C23.4344 55.7393 23.7289 55.7957 24.0207 55.7957C24.6105 55.7957 25.1898 55.5653 25.6232 55.1321C30.1733 50.582 35.7854 50.8666 37.6188 51.1077L38.4122 51.9011C36.8507 55.6167 35.5928 59.3115 34.6703 62.905C34.3372 64.2054 34.4496 65.5816 34.9446 66.8404C32.7633 67.8456 30.6588 69.3217 28.8263 71.1541C22.9944 76.9863 21.8102 91.1994 21.7626 91.8016C21.7105 92.4625 21.9502 93.1132 22.4189 93.5819C22.8456 94.0083 23.4226 94.2455 24.0207 94.2455C24.0801 94.2455 24.1397 94.2433 24.1993 94.2385C24.8015 94.1912 39.0151 93.0069 44.847 87.175C46.6788 85.3432 48.1546 83.2389 49.1598 81.058C50.4925 81.5821 51.8641 81.6467 53.0975 81.3306C56.6894 80.4083 60.3837 79.1508 64.0998 77.5892L64.8932 78.3826C65.134 80.2161 65.4186 85.8283 60.8688 90.3779C60.221 91.0259 60.0271 92.0003 60.3778 92.8467C60.7283 93.6934 61.5544 94.2453 62.4708 94.2453C71.4381 94.2453 83.9749 88.905 88.5923 80.2773C90.5976 76.5307 91.9628 70.6033 87.6088 63.2063C89.4546 61.6462 91.2324 60.015 92.9094 58.3379C100.39 50.8569 106.263 41.1729 110.366 29.5557C115.49 15.0562 115.98 2.85901 115.999 2.34698C116.021 1.71827 115.782 1.10859 115.337 0.663622ZM26.8204 48.6569C28.2278 41.8458 32.3156 34.3718 37.8619 31.4033C41.5682 29.42 45.6193 29.6144 49.9267 31.9722C46.2571 36.7985 43.0669 41.9981 40.4077 47.4888C40.374 47.4679 39.9662 46.9552 39.2085 46.7844C38.897 46.7139 32.9024 45.4246 26.8204 48.6569ZM41.643 83.9707C38.5277 87.086 31.22 88.729 26.601 89.3998C27.2721 84.7807 28.9154 77.4732 32.0304 74.3581C33.7749 72.6136 35.7977 71.291 37.8308 70.546L45.4551 78.1703C44.7102 80.2035 43.3877 82.2262 41.643 83.9707ZM51.9719 76.9412C51.3162 77.1091 50.5568 76.8626 49.9922 76.2989C47.0612 73.3679 45.9146 72.2212 45.5548 71.8617C44.895 71.2019 43.2771 69.584 39.7036 66.0102C39.1385 65.4441 38.892 64.6849 39.0595 64.0303C39.7851 61.2042 40.7342 58.3046 41.8883 55.3772L60.6239 74.1128C57.696 75.2671 54.7969 76.216 51.9719 76.9412ZM84.5978 78.1392C81.6293 83.6853 74.1555 87.7733 67.3446 89.1805C69.5162 85.094 69.9949 79.8919 69.2015 76.7375C69.0173 76.0048 68.5393 75.6364 68.5125 75.5931C74.0028 72.934 79.2022 69.7438 84.0289 66.0741C86.3867 70.382 86.5809 74.4336 84.5978 78.1392ZM89.7058 55.1339C87.6643 57.1752 85.466 59.1474 83.1718 60.9955C77.6568 65.4361 71.5868 69.1975 65.1107 72.1918L43.8093 50.8908C46.8036 44.4143 50.565 38.3443 55.0051 32.83C56.8548 30.5342 58.8268 28.3357 60.8674 26.2953C67.5793 19.5831 76.2417 14.2413 86.621 10.3961L105.605 29.3801C101.76 39.7592 96.4184 48.4216 89.7058 55.1339ZM107.235 24.6017L91.3994 8.76594C100.027 6.08616 107.533 5.08272 111.279 4.72203C110.918 8.46914 109.915 15.9749 107.235 24.6017Z" fill="black"/>
<path d="M60.8685 55.1341C59.9827 54.2482 58.5486 54.2482 57.6627 55.1341C56.7791 56.0177 56.7791 57.4518 57.6627 58.3376C58.5486 59.2212 59.9827 59.2212 60.8685 58.3376C61.7521 57.4518 61.7521 56.0177 60.8685 55.1341Z" fill="#7C14FD"/>
<path d="M89.7036 26.2971C85.2765 21.8703 78.1099 21.87 73.6827 26.2971C69.2672 30.7125 69.267 37.8991 73.6834 42.3182C78.1004 46.7325 85.287 46.7343 89.7036 42.3177C94.1301 37.8911 94.131 30.7243 89.7036 26.2971ZM86.4995 39.1134C83.8503 41.7629 79.538 41.7629 76.8874 39.1139C74.2378 36.4627 74.2375 32.1503 76.887 29.5011C79.5429 26.8451 83.8431 26.8447 86.4995 29.5011C89.1555 32.1569 89.156 36.4572 86.4995 39.1134Z" fill="#7C14FD"/>
<path d="M54.4583 93.5813C53.5731 92.6966 52.1385 92.697 51.254 93.5817L44.8468 99.9912C43.9623 100.876 43.9626 102.311 44.8473 103.195C45.7325 104.08 47.167 104.08 48.0515 103.195L54.4587 96.7853C55.3432 95.9004 55.343 94.4658 54.4583 93.5813Z" fill="#7C14FD"/>
<path d="M22.419 61.5413C21.5345 60.6563 20.1001 60.6563 19.2149 61.5408L12.8055 67.948C11.9205 68.8325 11.9203 70.2671 12.8048 71.152C13.6891 72.0365 15.1234 72.0374 16.0088 71.1525L22.4183 64.7453C23.3032 63.8608 23.3035 62.4262 22.419 61.5413Z" fill="#7C14FD"/>
<path d="M38.4387 96.7874C37.5545 95.9026 36.1196 95.9026 35.2347 96.7871L19.8874 112.132C19.0024 113.017 19.0024 114.451 19.8871 115.336C20.7714 116.221 22.2062 116.221 23.0912 115.336L38.4385 99.9914C39.3235 99.1067 39.3234 97.6721 38.4387 96.7874Z" fill="#7C14FD"/>
<path d="M20.3147 96.7874C19.4302 95.9026 17.9954 95.9026 17.1107 96.7871L1.76335 112.132C0.8784 113.017 0.8784 114.451 1.76312 115.336C2.6474 116.221 4.08221 116.221 4.96717 115.336L20.3145 99.9914C21.1994 99.1067 21.1994 97.6721 20.3147 96.7874Z" fill="#7C14FD"/>
<path d="M19.2136 77.5607C18.3291 76.6762 16.8943 76.6762 16.0095 77.561L0.664492 92.9083C-0.220233 93.7932 -0.220233 95.2276 0.664718 96.1125C1.54944 96.9973 2.98403 96.9973 3.86876 96.1123L19.2138 80.765C20.0985 79.8801 20.0985 78.4457 19.2136 77.5607Z" fill="#7C14FD"/>
<path d="M70.4796 45.5206C69.5946 44.6359 68.1605 44.6359 67.2753 45.5206L64.0717 48.7242C63.187 49.6089 63.187 51.0435 64.0717 51.9285C64.9567 52.8132 66.3911 52.8132 67.276 51.9285L70.4796 48.7249C71.3643 47.8401 71.3643 46.4056 70.4796 45.5206Z" fill="#7C14FD"/>
</g>
<defs>
<clipPath id="clip0_3_18976">
<rect width="116" height="116" fill="white"/>
</clipPath>
</defs>
</svg>
