<svg width="24" height="25" viewBox="0 0 24 25" fill="none" xmlns="http://www.w3.org/2000/svg">
<path d="M22.1623 6.42204C21.3989 6.75973 20.5893 6.98151 19.7603 7.08004C20.634 6.55747 21.288 5.73505 21.6003 4.76604C20.7803 5.25404 19.8813 5.59604 18.9443 5.78104C18.3149 5.10762 17.4807 4.661 16.5713 4.51062C15.6618 4.36025 14.7282 4.51453 13.9156 4.94949C13.1029 5.38445 12.4567 6.07572 12.0774 6.91583C11.6981 7.75594 11.607 8.69782 11.8183 9.59504C10.1554 9.51169 8.52863 9.07956 7.04358 8.3267C5.55854 7.57384 4.24842 6.51709 3.1983 5.22504C2.82659 5.86349 2.63125 6.58927 2.6323 7.32804C2.6323 8.77804 3.3703 10.059 4.4923 10.809C3.82831 10.7881 3.17893 10.6088 2.5983 10.286V10.338C2.5985 11.3037 2.93267 12.2397 3.54414 12.9871C4.15562 13.7345 5.00678 14.2475 5.9533 14.439C5.33691 14.6061 4.6906 14.6307 4.0633 14.511C4.33016 15.3423 4.8503 16.0692 5.55089 16.5901C6.25147 17.1111 7.09742 17.3998 7.9703 17.416C7.10278 18.0974 6.10947 18.601 5.04718 18.8982C3.98488 19.1954 2.87442 19.2803 1.7793 19.148C3.69099 20.3775 5.91639 21.0302 8.1893 21.028C15.8823 21.028 20.0893 14.655 20.0893 9.12804C20.0893 8.94804 20.0843 8.76604 20.0763 8.58804C20.8952 7.99621 21.6019 7.26306 22.1633 6.42304L22.1623 6.42204Z" fill="white"/>
</svg>
